<?xml version="1.0" encoding="UTF-8" standalone="no"?>
<!DOCTYPE svg PUBLIC "-//W3C//DTD SVG 1.1//EN" "http://www.w3.org/Graphics/SVG/1.1/DTD/svg11.dtd">
<svg width="100%" height="100%" viewBox="0 0 240 54" version="1.1" xmlns="http://www.w3.org/2000/svg" xmlns:xlink="http://www.w3.org/1999/xlink" xml:space="preserve" xmlns:serif="http://www.serif.com/" style="fill-rule:evenodd;clip-rule:evenodd;stroke-linejoin:round;stroke-miterlimit:2;">
    <g transform="matrix(1,0,0,1,0,-1.6)">
        <g id="Camada_1-2">
            <g>
                <g>
                    <g>
                        <path d="M223.98,7.35L219.96,15.53L219.84,10.41L223.87,2.24L223.98,7.35Z" style="fill:rgb(0,80,0);fill-rule:nonzero;"/>
                        <path d="M230.47,7.35L226.45,15.53L219.96,15.53L223.98,7.35L230.47,7.35Z" style="fill:rgb(0,80,0);fill-rule:nonzero;"/>
                        <path d="M230.58,12.24L226.56,20.41L226.45,15.53L230.47,7.35L230.58,12.24Z" style="fill:rgb(0,80,0);fill-rule:nonzero;"/>
                        <path d="M238.18,12.24L234.16,20.41L226.56,20.41L230.58,12.24L238.18,12.24Z" style="fill:rgb(0,80,0);fill-rule:nonzero;"/>
                        <path d="M238.72,36.12L234.69,44.3L234.16,20.41L238.18,12.24L238.72,36.12Z" style="fill:rgb(0,80,0);fill-rule:nonzero;"/>
                        <path d="M238.72,36.12L234.69,44.3L227.09,44.3L231.11,36.12L238.72,36.12Z" style="fill:rgb(0,80,0);fill-rule:nonzero;"/>
                        <path d="M239.37,36.76L235.35,44.94L227.75,44.94L231.77,36.76L239.37,36.76Z" style="fill:rgb(0,80,0);fill-rule:nonzero;"/>
                        <path d="M231.22,41.01L227.19,49.18L227.09,44.3L231.11,36.12L231.22,41.01Z" style="fill:rgb(0,80,0);fill-rule:nonzero;"/>
                        <path d="M231.22,41.01L227.19,49.18L220.71,49.18L224.73,41.01L231.22,41.01Z" style="fill:rgb(0,80,0);fill-rule:nonzero;"/>
                        <path d="M231.87,41.65L227.85,49.83L221.37,49.83L225.39,41.65L231.87,41.65Z" style="fill:rgb(0,80,0);fill-rule:nonzero;"/>
                        <path d="M224.84,46.12L220.82,54.3L220.71,49.18L224.73,41.01L224.84,46.12Z" style="fill:rgb(0,80,0);fill-rule:nonzero;"/>
                        <path d="M17.27,7.35L13.25,15.53L13.14,10.41L17.16,2.24L17.27,7.35Z" style="fill:rgb(0,80,0);fill-rule:nonzero;"/>
                        <path d="M16.6,6.72L12.58,14.89L12.47,9.78L16.49,1.6L16.6,6.72Z" style="fill:rgb(0,80,0);fill-rule:nonzero;"/>
                        <path d="M17.27,7.35L13.25,15.53L8.16,15.53L12.18,7.35L17.27,7.35Z" style="fill:rgb(0,80,0);fill-rule:nonzero;"/>
                        <path d="M12.29,12.24L8.27,20.41L8.16,15.53L12.18,7.35L12.29,12.24Z" style="fill:rgb(0,80,0);fill-rule:nonzero;"/>
                        <path d="M11.63,11.6L7.61,19.78L7.5,14.89L11.52,6.72L11.63,11.6Z" style="fill:rgb(0,80,0);fill-rule:nonzero;"/>
                        <path d="M12.29,12.24L8.27,20.41L0.66,20.41L4.68,12.24L12.29,12.24Z" style="fill:rgb(0,80,0);fill-rule:nonzero;"/>
                        <path d="M12.82,36.12L8.8,44.3L1.19,44.3L5.21,36.12L12.82,36.12Z" style="fill:rgb(0,80,0);fill-rule:nonzero;"/>
                        <path d="M5.21,36.12L1.19,44.3L0.66,20.41L4.68,12.24L5.21,36.12Z" style="fill:rgb(0,80,0);fill-rule:nonzero;"/>
                        <path d="M4.58,36.76L0.56,44.94L0,19.78L4.02,11.6L4.58,36.76Z" style="fill:rgb(0,80,0);fill-rule:nonzero;"/>
                        <path d="M12.19,36.76L8.17,44.94L0.56,44.94L4.58,36.76L12.19,36.76Z" style="fill:rgb(0,80,0);fill-rule:nonzero;"/>
                        <path d="M12.93,41.01L8.91,49.18L8.8,44.3L12.82,36.12L12.93,41.01Z" style="fill:rgb(0,80,0);fill-rule:nonzero;"/>
                        <path d="M18.02,41.01L14,49.18L8.91,49.18L12.93,41.01L18.02,41.01Z" style="fill:rgb(0,80,0);fill-rule:nonzero;"/>
                        <path d="M17.38,41.65L13.36,49.83L8.28,49.83L12.3,41.65L17.38,41.65Z" style="fill:rgb(0,80,0);fill-rule:nonzero;"/>
                        <path d="M12.3,41.65L8.28,49.83L8.17,44.94L12.19,36.76L12.3,41.65Z" style="fill:rgb(0,80,0);fill-rule:nonzero;"/>
                        <path d="M18.13,46.12L14.11,54.3L14,49.18L18.02,41.01L18.13,46.12Z" style="fill:rgb(0,80,0);fill-rule:nonzero;"/>
                        <path d="M17.49,46.77L13.47,54.94L13.36,49.83L17.38,41.65L17.49,46.77Z" style="fill:rgb(0,80,0);fill-rule:nonzero;"/>
                        <path d="M225.51,46.77L221.49,54.94L13.47,54.94L17.49,46.77L225.51,46.77Z" style="fill:rgb(0,80,0);fill-rule:nonzero;"/>
                        <path d="M231.21,11.6L238.81,11.6L239.37,36.76L231.77,36.76L231.87,41.65L225.39,41.65L225.51,46.76L17.51,46.76L17.4,41.65L12.3,41.65L12.19,36.76L4.58,36.76L4,11.6L11.61,11.6L11.5,6.72L16.6,6.72L16.49,1.6L224.49,1.6L224.61,6.72L231.09,6.72L231.21,11.6ZM238.71,36.12L238.18,12.24L230.58,12.24L230.47,7.35L224,7.35L223.88,2.24L17.16,2.24L17.27,7.35L12.18,7.35L12.29,12.24L4.68,12.24L5.21,36.12L12.82,36.12L12.93,41L18,41L18.11,46.11L224.84,46.11L224.73,41L231.22,41L231.11,36.11L238.71,36.11" style="fill:rgb(0,80,0);fill-rule:nonzero;"/>
                    </g>
                    <path d="M224.84,46.12L220.82,54.3L14.11,54.3L18.13,46.12L224.84,46.12Z" style="fill:rgb(0,80,0);fill-rule:nonzero;"/>
                </g>
                <path d="M223.87,2.24L219.84,10.41L13.14,10.41L17.16,2.24L223.87,2.24Z" style="fill:rgb(0,80,0);fill-rule:nonzero;"/>
                <path d="M223.87,2.24L223.98,7.35L230.47,7.35L230.58,12.24L238.18,12.24L238.72,36.12L231.11,36.12L231.22,41.01L224.73,41.01L224.84,46.12L18.13,46.12L18.02,41.01L12.93,41.01L12.82,36.12L5.21,36.12L4.68,12.24L12.29,12.24L12.18,7.35L17.27,7.35L17.16,2.24L223.87,2.24Z" style="fill:rgb(0,117,0);fill-rule:nonzero;"/>
            </g>
        </g>
    </g>
</svg>
