<?xml version="1.0" encoding="UTF-8" standalone="no"?>
<!DOCTYPE svg PUBLIC "-//W3C//DTD SVG 1.1//EN" "http://www.w3.org/Graphics/SVG/1.1/DTD/svg11.dtd">
<svg width="100%" height="100%" viewBox="0 0 241 55" version="1.1" xmlns="http://www.w3.org/2000/svg" xmlns:xlink="http://www.w3.org/1999/xlink" xml:space="preserve" xmlns:serif="http://www.serif.com/" style="fill-rule:evenodd;clip-rule:evenodd;stroke-linejoin:round;stroke-miterlimit:2;">
    <g>
        <g id="Camada_2">
            <g id="Camada_1-2">
                <g>
                    <path d="M226.56,20.294L230.58,12.174L238.18,12.174L238.72,35.906L238.408,36.536L234.388,44.665L230.254,44.669L227.85,49.532L224.004,49.532L221.49,54.61L13.47,54.61L13.36,49.532L8.28,49.532L8.17,44.672L0.56,44.672L0,21.668L4.02,13.538L4.022,13.606L12.571,13.606L8.27,22.294L4.216,22.294L4.58,36.542L12.19,36.542L12.3,41.402L17.38,41.402L17.49,46.491L221.896,46.491L224.73,40.766L228.707,40.766L231.11,35.906L234.509,35.906L234.16,20.294L226.56,20.294Z" style="fill:rgb(0,80,0);fill-rule:nonzero;"/>
                </g>
            </g>
        </g>
    </g>
</svg>
