<?xml version="1.0" encoding="UTF-8" standalone="no"?>
<!DOCTYPE svg PUBLIC "-//W3C//DTD SVG 1.1//EN" "http://www.w3.org/Graphics/SVG/1.1/DTD/svg11.dtd">
<svg width="100%" height="100%" viewBox="0 0 304 152" version="1.1" xmlns="http://www.w3.org/2000/svg" xmlns:xlink="http://www.w3.org/1999/xlink" xml:space="preserve" xmlns:serif="http://www.serif.com/" style="fill-rule:evenodd;clip-rule:evenodd;stroke-miterlimit:10;">
    <g transform="matrix(1,0,0,1,0,-26)">
        <path d="M176.88,134.88L151.68,134.88L151.68,160.08L176.88,160.08L176.88,134.88ZM0.5,10L302.87,10L302.87,85.35L277.67,85.35L277.67,60.27L227.28,60.27L227.28,35.2L202.08,35.2L202.08,60.27L176.88,60.27L176.88,110.42L126.49,110.42L126.49,85.35L101.29,85.35L101.29,60.27L76.09,60.27L76.09,85.35L50.9,85.35L50.9,110.42L25.7,110.42L25.7,60.27L0.5,60.27L0.5,10ZM252.48,84.73L227.28,84.73L227.28,109.93L252.48,109.93L252.48,84.73Z" style="fill:rgb(8,183,99);"/>
    </g>
    <g id="Camada_2" transform="matrix(1,0,0,1,0,-26)">
        <g id="Camada_1-2">
            <g transform="matrix(-1,7.65714e-16,-7.65714e-16,-1,177.38,26.2)">
                <rect x="76.09" y="0.5" width="25.2" height="25.2" style="fill:rgb(10,228,124);"/>
            </g>
            <g transform="matrix(-1,7.65714e-16,-7.65714e-16,-1,177.38,76.35)">
                <rect x="76.09" y="25.58" width="25.2" height="25.2" style="fill:rgb(10,228,124);"/>
            </g>
            <g transform="matrix(-1,7.65714e-16,-7.65714e-16,-1,126.99,26.2)">
                <rect x="50.89" y="0.5" width="25.2" height="25.2" style="fill:rgb(10,228,124);"/>
            </g>
            <g transform="matrix(-1,7.65714e-16,-7.65714e-16,-1,126.99,76.35)">
                <rect x="50.89" y="25.58" width="25.2" height="25.2" style="fill:rgb(10,228,124);"/>
            </g>
            <g transform="matrix(-1,7.65714e-16,-7.65714e-16,-1,76.59,26.2)">
                <rect x="25.7" y="0.5" width="25.2" height="25.2" style="fill:rgb(10,228,124);"/>
            </g>
            <g transform="matrix(-1,7.65714e-16,-7.65714e-16,-1,76.59,76.35)">
                <rect x="25.7" y="25.58" width="25.2" height="25.2" style="fill:rgb(10,228,124);"/>
            </g>
            <g transform="matrix(-1,7.65714e-16,-7.65714e-16,-1,26.2,26.2)">
                <rect x="0.5" y="0.5" width="25.2" height="25.2" style="fill:rgb(10,228,124);"/>
            </g>
            <g transform="matrix(-1,7.65714e-16,-7.65714e-16,-1,26.2,76.35)">
                <rect x="0.5" y="25.58" width="25.2" height="25.2" style="fill:rgb(10,228,124);"/>
            </g>
            <g transform="matrix(-1,7.65714e-16,-7.65714e-16,-1,328.57,26.2)">
                <rect x="151.68" y="0.5" width="25.2" height="25.2" style="fill:rgb(10,228,124);"/>
            </g>
            <g transform="matrix(-1,7.65714e-16,-7.65714e-16,-1,328.57,76.35)">
                <rect x="151.68" y="25.58" width="25.2" height="25.2" style="fill:rgb(10,228,124);"/>
            </g>
            <g transform="matrix(-1,7.65714e-16,-7.65714e-16,-1,328.57,126.5)">
                <rect x="151.68" y="50.65" width="25.2" height="25.2" style="fill:rgb(10,228,124);"/>
            </g>
            <g transform="matrix(-1,7.65714e-16,-7.65714e-16,-1,328.57,176.65)">
                <rect x="151.68" y="75.73" width="25.2" height="25.2" style="fill:rgb(10,228,124);"/>
            </g>
            <g transform="matrix(-1,7.65714e-16,-7.65714e-16,-1,328.57,276.95)">
                <rect x="151.68" y="125.88" width="25.2" height="25.2" style="fill:rgb(10,228,124);"/>
            </g>
            <g transform="matrix(-1,7.65714e-16,-7.65714e-16,-1,278.17,26.2)">
                <rect x="126.49" y="0.5" width="25.2" height="25.2" style="fill:rgb(10,228,124);"/>
            </g>
            <g transform="matrix(-1,7.65714e-16,-7.65714e-16,-1,278.17,76.35)">
                <rect x="126.49" y="25.58" width="25.2" height="25.2" style="fill:rgb(10,228,124);"/>
            </g>
            <g transform="matrix(-1,7.65714e-16,-7.65714e-16,-1,278.17,126.5)">
                <rect x="126.49" y="50.65" width="25.2" height="25.2" style="fill:rgb(10,228,124);"/>
            </g>
            <g transform="matrix(-1,7.65714e-16,-7.65714e-16,-1,278.17,176.65)">
                <rect x="126.49" y="75.73" width="25.2" height="25.2" style="fill:rgb(10,228,124);"/>
            </g>
            <g transform="matrix(-1,7.65714e-16,-7.65714e-16,-1,227.78,26.2)">
                <rect x="101.29" y="0.5" width="25.2" height="25.2" style="fill:rgb(10,228,124);"/>
            </g>
            <g transform="matrix(-1,7.65714e-16,-7.65714e-16,-1,227.78,76.35)">
                <rect x="101.29" y="25.58" width="25.2" height="25.2" style="fill:rgb(10,228,124);"/>
            </g>
            <g transform="matrix(-1,7.65714e-16,-7.65714e-16,-1,227.78,126.5)">
                <rect x="101.29" y="50.65" width="25.2" height="25.2" style="fill:rgb(10,228,124);"/>
            </g>
            <g transform="matrix(-1,7.65714e-16,-7.65714e-16,-1,126.99,126.5)">
                <rect x="50.89" y="50.65" width="25.2" height="25.2" style="fill:rgb(10,228,124);"/>
            </g>
            <g transform="matrix(-1,7.65714e-16,-7.65714e-16,-1,76.59,126.5)">
                <rect x="25.7" y="50.65" width="25.2" height="25.2" style="fill:rgb(10,228,124);"/>
            </g>
            <g transform="matrix(-1,7.65714e-16,-7.65714e-16,-1,76.59,176.65)">
                <rect x="25.7" y="75.73" width="25.2" height="25.2" style="fill:rgb(10,228,124);"/>
            </g>
            <g transform="matrix(-1,7.65714e-16,-7.65714e-16,-1,580.54,26.2)">
                <rect x="277.67" y="0.5" width="25.2" height="25.2" style="fill:rgb(10,228,124);"/>
            </g>
            <g transform="matrix(-1,7.65714e-16,-7.65714e-16,-1,580.54,76.35)">
                <rect x="277.67" y="25.58" width="25.2" height="25.2" style="fill:rgb(10,228,124);"/>
            </g>
            <g transform="matrix(-1,7.65714e-16,-7.65714e-16,-1,580.54,126.5)">
                <rect x="277.67" y="50.65" width="25.2" height="25.2" style="fill:rgb(10,228,124);"/>
            </g>
            <g transform="matrix(-1,7.65714e-16,-7.65714e-16,-1,530.14,26.2)">
                <rect x="252.47" y="0.5" width="25.2" height="25.2" style="fill:rgb(10,228,124);"/>
            </g>
            <g transform="matrix(-1,7.65714e-16,-7.65714e-16,-1,530.14,76.35)">
                <rect x="252.47" y="25.58" width="25.2" height="25.2" style="fill:rgb(10,228,124);"/>
            </g>
            <g transform="matrix(-1,7.65714e-16,-7.65714e-16,-1,479.75,26.2)">
                <rect x="227.28" y="0.5" width="25.2" height="25.2" style="fill:rgb(10,228,124);"/>
            </g>
            <g transform="matrix(-1,7.65714e-16,-7.65714e-16,-1,479.75,76.35)">
                <rect x="227.28" y="25.58" width="25.2" height="25.2" style="fill:rgb(10,228,124);"/>
            </g>
            <g transform="matrix(-1,7.65714e-16,-7.65714e-16,-1,479.75,176.65)">
                <rect x="227.28" y="75.73" width="25.2" height="25.2" style="fill:rgb(10,228,124);"/>
            </g>
            <g transform="matrix(-1,7.65714e-16,-7.65714e-16,-1,429.36,26.2)">
                <rect x="202.08" y="0.5" width="25.2" height="25.2" style="fill:rgb(10,228,124);"/>
            </g>
            <g transform="matrix(-1,7.65714e-16,-7.65714e-16,-1,378.96,26.2)">
                <rect x="176.88" y="0.5" width="25.2" height="25.2" style="fill:rgb(10,228,124);"/>
            </g>
            <g transform="matrix(-1,7.65714e-16,-7.65714e-16,-1,378.96,76.35)">
                <rect x="176.88" y="25.58" width="25.2" height="25.2" style="fill:rgb(10,228,124);"/>
            </g>
            <g transform="matrix(-1,7.65714e-16,-7.65714e-16,-1,479.75,176.65)">
                <rect x="227.28" y="75.73" width="25.2" height="25.2" style="fill:rgb(10,228,124);"/>
            </g>
            <g transform="matrix(-1,7.65714e-16,-7.65714e-16,-1,177.38,26.2)">
                <g opacity="0.5">
                    <rect x="76.09" y="0.5" width="25.2" height="25.2" style="fill:none;stroke:white;stroke-width:1px;"/>
                </g>
            </g>
            <g transform="matrix(-1,7.65714e-16,-7.65714e-16,-1,177.38,76.35)">
                <g opacity="0.5">
                    <rect x="76.09" y="25.58" width="25.2" height="25.2" style="fill:none;stroke:white;stroke-width:1px;"/>
                </g>
            </g>
            <g transform="matrix(-1,7.65714e-16,-7.65714e-16,-1,126.99,26.2)">
                <g opacity="0.5">
                    <rect x="50.89" y="0.5" width="25.2" height="25.2" style="fill:none;stroke:white;stroke-width:1px;"/>
                </g>
            </g>
            <g transform="matrix(-1,7.65714e-16,-7.65714e-16,-1,126.99,76.35)">
                <g opacity="0.5">
                    <rect x="50.89" y="25.58" width="25.2" height="25.2" style="fill:none;stroke:white;stroke-width:1px;"/>
                </g>
            </g>
            <g transform="matrix(-1,7.65714e-16,-7.65714e-16,-1,76.59,26.2)">
                <g opacity="0.5">
                    <rect x="25.7" y="0.5" width="25.2" height="25.2" style="fill:none;stroke:white;stroke-width:1px;"/>
                </g>
            </g>
            <g transform="matrix(-1,7.65714e-16,-7.65714e-16,-1,76.59,76.35)">
                <g opacity="0.5">
                    <rect x="25.7" y="25.58" width="25.2" height="25.2" style="fill:none;stroke:white;stroke-width:1px;"/>
                </g>
            </g>
            <g transform="matrix(-1,7.65714e-16,-7.65714e-16,-1,26.2,26.2)">
                <g opacity="0.5">
                    <rect x="0.5" y="0.5" width="25.2" height="25.2" style="fill:none;stroke:white;stroke-width:1px;"/>
                </g>
            </g>
            <g transform="matrix(-1,7.65714e-16,-7.65714e-16,-1,26.2,76.35)">
                <g opacity="0.5">
                    <rect x="0.5" y="25.58" width="25.2" height="25.2" style="fill:none;stroke:white;stroke-width:1px;"/>
                </g>
            </g>
            <g transform="matrix(-1,7.65714e-16,-7.65714e-16,-1,328.57,26.2)">
                <g opacity="0.5">
                    <rect x="151.68" y="0.5" width="25.2" height="25.2" style="fill:none;stroke:white;stroke-width:1px;"/>
                </g>
            </g>
            <g transform="matrix(-1,7.65714e-16,-7.65714e-16,-1,328.57,76.35)">
                <g opacity="0.5">
                    <rect x="151.68" y="25.58" width="25.2" height="25.2" style="fill:none;stroke:white;stroke-width:1px;"/>
                </g>
            </g>
            <g transform="matrix(-1,7.65714e-16,-7.65714e-16,-1,328.57,126.5)">
                <g opacity="0.5">
                    <rect x="151.68" y="50.65" width="25.2" height="25.2" style="fill:none;stroke:white;stroke-width:1px;"/>
                </g>
            </g>
            <g transform="matrix(-1,7.65714e-16,-7.65714e-16,-1,328.57,176.65)">
                <g opacity="0.5">
                    <rect x="151.68" y="75.73" width="25.2" height="25.2" style="fill:none;stroke:white;stroke-width:1px;"/>
                </g>
            </g>
            <g transform="matrix(-1,7.65714e-16,-7.65714e-16,-1,328.57,276.95)">
                <g opacity="0.5">
                    <rect x="151.68" y="125.88" width="25.2" height="25.2" style="fill:none;stroke:white;stroke-width:1px;"/>
                </g>
            </g>
            <g transform="matrix(-1,7.65714e-16,-7.65714e-16,-1,278.17,26.2)">
                <g opacity="0.5">
                    <rect x="126.49" y="0.5" width="25.2" height="25.2" style="fill:none;stroke:white;stroke-width:1px;"/>
                </g>
            </g>
            <g transform="matrix(-1,7.65714e-16,-7.65714e-16,-1,278.17,76.35)">
                <g opacity="0.5">
                    <rect x="126.49" y="25.58" width="25.2" height="25.2" style="fill:none;stroke:white;stroke-width:1px;"/>
                </g>
            </g>
            <g transform="matrix(-1,7.65714e-16,-7.65714e-16,-1,278.17,126.5)">
                <g opacity="0.5">
                    <rect x="126.49" y="50.65" width="25.2" height="25.2" style="fill:none;stroke:white;stroke-width:1px;"/>
                </g>
            </g>
            <g transform="matrix(-1,7.65714e-16,-7.65714e-16,-1,278.17,176.65)">
                <g opacity="0.5">
                    <rect x="126.49" y="75.73" width="25.2" height="25.2" style="fill:none;stroke:white;stroke-width:1px;"/>
                </g>
            </g>
            <g transform="matrix(-1,7.65714e-16,-7.65714e-16,-1,227.78,26.2)">
                <g opacity="0.5">
                    <rect x="101.29" y="0.5" width="25.2" height="25.2" style="fill:none;stroke:white;stroke-width:1px;"/>
                </g>
            </g>
            <g transform="matrix(-1,7.65714e-16,-7.65714e-16,-1,227.78,76.35)">
                <g opacity="0.5">
                    <rect x="101.29" y="25.58" width="25.2" height="25.2" style="fill:none;stroke:white;stroke-width:1px;"/>
                </g>
            </g>
            <g transform="matrix(-1,7.65714e-16,-7.65714e-16,-1,227.78,126.5)">
                <g opacity="0.5">
                    <rect x="101.29" y="50.65" width="25.2" height="25.2" style="fill:none;stroke:white;stroke-width:1px;"/>
                </g>
            </g>
            <g transform="matrix(-1,7.65714e-16,-7.65714e-16,-1,126.99,126.5)">
                <g opacity="0.5">
                    <rect x="50.89" y="50.65" width="25.2" height="25.2" style="fill:none;stroke:white;stroke-width:1px;"/>
                </g>
            </g>
            <g transform="matrix(-1,7.65714e-16,-7.65714e-16,-1,76.59,126.5)">
                <g opacity="0.5">
                    <rect x="25.7" y="50.65" width="25.2" height="25.2" style="fill:none;stroke:white;stroke-width:1px;"/>
                </g>
            </g>
            <g transform="matrix(-1,7.65714e-16,-7.65714e-16,-1,76.59,176.65)">
                <g opacity="0.5">
                    <rect x="25.7" y="75.73" width="25.2" height="25.2" style="fill:none;stroke:white;stroke-width:1px;"/>
                </g>
            </g>
            <g transform="matrix(-1,7.65714e-16,-7.65714e-16,-1,580.54,26.2)">
                <g opacity="0.5">
                    <rect x="277.67" y="0.5" width="25.2" height="25.2" style="fill:none;stroke:white;stroke-width:1px;"/>
                </g>
            </g>
            <g transform="matrix(-1,7.65714e-16,-7.65714e-16,-1,580.54,76.35)">
                <g opacity="0.5">
                    <rect x="277.67" y="25.58" width="25.2" height="25.2" style="fill:none;stroke:white;stroke-width:1px;"/>
                </g>
            </g>
            <g transform="matrix(-1,7.65714e-16,-7.65714e-16,-1,580.54,126.5)">
                <g opacity="0.5">
                    <rect x="277.67" y="50.65" width="25.2" height="25.2" style="fill:none;stroke:white;stroke-width:1px;"/>
                </g>
            </g>
            <g transform="matrix(-1,7.65714e-16,-7.65714e-16,-1,530.14,26.2)">
                <g opacity="0.5">
                    <rect x="252.47" y="0.5" width="25.2" height="25.2" style="fill:none;stroke:white;stroke-width:1px;"/>
                </g>
            </g>
            <g transform="matrix(-1,7.65714e-16,-7.65714e-16,-1,530.14,76.35)">
                <g opacity="0.5">
                    <rect x="252.47" y="25.58" width="25.2" height="25.2" style="fill:none;stroke:white;stroke-width:1px;"/>
                </g>
            </g>
            <g transform="matrix(-1,7.65714e-16,-7.65714e-16,-1,479.75,26.2)">
                <g opacity="0.5">
                    <rect x="227.28" y="0.5" width="25.2" height="25.2" style="fill:none;stroke:white;stroke-width:1px;"/>
                </g>
            </g>
            <g transform="matrix(-1,7.65714e-16,-7.65714e-16,-1,479.75,76.35)">
                <g opacity="0.5">
                    <rect x="227.28" y="25.58" width="25.2" height="25.2" style="fill:none;stroke:white;stroke-width:1px;"/>
                </g>
            </g>
            <g transform="matrix(-1,7.65714e-16,-7.65714e-16,-1,479.75,176.65)">
                <g opacity="0.5">
                    <rect x="227.28" y="75.73" width="25.2" height="25.2" style="fill:none;stroke:white;stroke-width:1px;"/>
                </g>
            </g>
            <g transform="matrix(-1,7.65714e-16,-7.65714e-16,-1,429.36,26.2)">
                <g opacity="0.5">
                    <rect x="202.08" y="0.5" width="25.2" height="25.2" style="fill:none;stroke:white;stroke-width:1px;"/>
                </g>
            </g>
            <g transform="matrix(-1,7.65714e-16,-7.65714e-16,-1,378.96,26.2)">
                <g opacity="0.5">
                    <rect x="176.88" y="0.5" width="25.2" height="25.2" style="fill:none;stroke:white;stroke-width:1px;"/>
                </g>
            </g>
            <g transform="matrix(-1,7.65714e-16,-7.65714e-16,-1,378.96,76.35)">
                <g opacity="0.5">
                    <rect x="176.88" y="25.58" width="25.2" height="25.2" style="fill:none;stroke:white;stroke-width:1px;"/>
                </g>
            </g>
            <g transform="matrix(-1,7.65714e-16,-7.65714e-16,-1,479.75,176.65)">
                <g opacity="0.5">
                    <rect x="227.28" y="75.73" width="25.2" height="25.2" style="fill:none;stroke:white;stroke-width:1px;"/>
                </g>
            </g>
            <g transform="matrix(1,0,0,1,0,-0.5)">
                <path d="M0.5,0.5L302.87,0.5L302.87,75.85L277.67,75.85L277.67,50.77L227.28,50.77L227.28,25.7L202.08,25.7L202.08,50.77L176.88,50.77L176.88,100.92L126.49,100.92L126.49,75.85L101.29,75.85L101.29,50.77L76.09,50.77L76.09,75.85L50.9,75.85L50.9,100.92L25.7,100.92L25.7,50.77L0.5,50.77L0.5,0.5Z" style="fill:url(#_Linear1);fill-rule:nonzero;"/>
                <path d="M0.5,0.5L302.87,0.5L302.87,75.85L277.67,75.85L277.67,50.77L227.28,50.77L227.28,25.7L202.08,25.7L202.08,50.77L176.88,50.77L176.88,100.92L126.49,100.92L126.49,75.85L101.29,75.85L101.29,50.77L76.09,50.77L76.09,75.85L50.9,75.85L50.9,100.92L25.7,100.92L25.7,50.77L0.5,50.77L0.5,0.5Z" style="fill:url(#_Linear2);fill-rule:nonzero;"/>
            </g>
            <rect x="151.68" y="125.88" width="25.2" height="25.2" style="fill:url(#_Linear3);"/>
            <rect x="227.28" y="75.73" width="25.2" height="25.2" style="fill:url(#_Linear4);"/>
        </g>
    </g>
    <defs>
        <linearGradient id="_Linear1" x1="0" y1="0" x2="1" y2="0" gradientUnits="userSpaceOnUse" gradientTransform="matrix(3.20368e-15,-52.32,52.32,3.20368e-15,151.68,62.95)"><stop offset="0" style="stop-color:rgb(10,228,124);stop-opacity:0"/><stop offset="1" style="stop-color:rgb(10,228,124);stop-opacity:1"/></linearGradient>
        <linearGradient id="_Linear2" x1="0" y1="0" x2="1" y2="0" gradientUnits="userSpaceOnUse" gradientTransform="matrix(3.20368e-15,-52.32,52.32,3.20368e-15,151.68,62.95)"><stop offset="0" style="stop-color:rgb(10,228,124);stop-opacity:0"/><stop offset="1" style="stop-color:rgb(10,228,124);stop-opacity:1"/></linearGradient>
        <linearGradient id="_Linear3" x1="0" y1="0" x2="1" y2="0" gradientUnits="userSpaceOnUse" gradientTransform="matrix(8.07324e-14,-1318.46,1318.46,8.07324e-14,4291.54,1712.22)"><stop offset="0" style="stop-color:rgb(10,228,124);stop-opacity:0"/><stop offset="1" style="stop-color:rgb(10,228,124);stop-opacity:1"/></linearGradient>
        <linearGradient id="_Linear4" x1="0" y1="0" x2="1" y2="0" gradientUnits="userSpaceOnUse" gradientTransform="matrix(8.07324e-14,-1318.46,1318.46,8.07324e-14,6272.26,1662.07)"><stop offset="0" style="stop-color:rgb(10,228,124);stop-opacity:0"/><stop offset="1" style="stop-color:rgb(10,228,124);stop-opacity:1"/></linearGradient>
    </defs>
</svg>
