<?xml version="1.0" encoding="UTF-8" standalone="no"?>
<!DOCTYPE svg PUBLIC "-//W3C//DTD SVG 1.1//EN" "http://www.w3.org/Graphics/SVG/1.1/DTD/svg11.dtd">
<svg width="100%" height="100%" viewBox="0 0 329 127" version="1.1" xmlns="http://www.w3.org/2000/svg" xmlns:xlink="http://www.w3.org/1999/xlink" xml:space="preserve" xmlns:serif="http://www.serif.com/" style="fill-rule:evenodd;clip-rule:evenodd;stroke-miterlimit:10;">
    <g id="Camada_2">
        <g transform="matrix(1,0,0,1,0,-16.5)">
            <path d="M328.07,0.5L0.5,0.5L0.5,50.77L25.7,50.77L25.7,75.85L50.9,75.85L50.9,50.77L76.09,50.77L76.09,25.7L101.29,25.7L101.29,50.71L126.49,50.71L126.49,75.79L151.68,75.79L151.68,126L176.88,126L176.88,100.92L202.08,100.92L202.08,50.77L252.47,50.77L252.47,75.85L277.67,75.85L277.67,50.77L302.87,50.77L302.87,25.7L328.07,25.7L328.07,0.5Z" style="fill:rgb(2,174,228);fill-rule:nonzero;"/>
        </g>
        <g id="Camada_1-2" transform="matrix(1,0,0,1,0,-26)">
            <rect x="227.28" y="0.5" width="25.2" height="25.2" style="fill:rgb(125,223,255);"/>
            <rect x="252.47" y="0.5" width="25.2" height="25.2" style="fill:rgb(125,223,255);"/>
            <rect x="252.47" y="25.58" width="25.2" height="25.2" style="fill:rgb(125,223,255);"/>
            <rect x="277.67" y="0.5" width="25.2" height="25.2" style="fill:rgb(125,223,255);"/>
            <rect x="277.67" y="25.58" width="25.2" height="25.2" style="fill:rgb(125,223,255);"/>
            <rect x="302.87" y="0.5" width="25.2" height="25.2" style="fill:rgb(125,223,255);"/>
            <rect x="151.68" y="0.5" width="25.2" height="25.2" style="fill:rgb(125,223,255);"/>
            <rect x="151.68" y="25.58" width="25.2" height="25.2" style="fill:rgb(125,223,255);"/>
            <rect x="151.68" y="50.65" width="25.2" height="25.2" style="fill:rgb(125,223,255);"/>
            <rect x="151.68" y="75.73" width="25.2" height="25.2" style="fill:rgb(125,223,255);"/>
            <rect x="151.68" y="100.8" width="25.2" height="25.2" style="fill:rgb(125,223,255);"/>
            <rect x="176.88" y="0.5" width="25.2" height="25.2" style="fill:rgb(125,223,255);"/>
            <rect x="176.88" y="25.58" width="25.2" height="25.2" style="fill:rgb(125,223,255);"/>
            <rect x="176.88" y="50.65" width="25.2" height="25.2" style="fill:rgb(125,223,255);"/>
            <rect x="176.88" y="75.73" width="25.2" height="25.2" style="fill:rgb(125,223,255);"/>
            <rect x="202.08" y="0.5" width="25.2" height="25.2" style="fill:rgb(125,223,255);"/>
            <rect x="202.08" y="25.58" width="25.2" height="25.2" style="fill:rgb(125,223,255);"/>
            <rect x="227.28" y="25.58" width="25.2" height="25.2" style="fill:rgb(125,223,255);"/>
            <rect x="252.47" y="50.65" width="25.2" height="25.2" style="fill:rgb(125,223,255);"/>
            <rect x="25.7" y="0.5" width="25.2" height="25.2" style="fill:rgb(125,223,255);"/>
            <rect x="25.7" y="25.58" width="25.2" height="25.2" style="fill:rgb(125,223,255);"/>
            <rect x="25.7" y="50.65" width="25.2" height="25.2" style="fill:rgb(125,223,255);"/>
            <rect x="50.89" y="0.5" width="25.2" height="25.2" style="fill:rgb(125,223,255);"/>
            <rect x="50.89" y="25.58" width="25.2" height="25.2" style="fill:rgb(125,223,255);"/>
            <rect x="0.5" y="0.5" width="25.2" height="25.2" style="fill:rgb(125,223,255);"/>
            <rect x="0.5" y="25.58" width="25.2" height="25.2" style="fill:rgb(125,223,255);"/>
            <rect x="76.09" y="0.5" width="25.2" height="25.2" style="fill:rgb(125,223,255);"/>
            <rect x="101.29" y="0.5" width="25.2" height="25.2" style="fill:rgb(125,223,255);"/>
            <rect x="126.49" y="0.5" width="25.2" height="25.2" style="fill:rgb(125,223,255);"/>
            <rect x="126.49" y="25.58" width="25.2" height="25.2" style="fill:rgb(125,223,255);"/>
            <rect x="101.29" y="25.51" width="25.2" height="25.2" style="fill:rgb(125,223,255);"/>
            <rect x="126.49" y="50.59" width="25.2" height="25.2" style="fill:rgb(125,223,255);"/>
            <rect x="227.28" y="0.5" width="25.2" height="25.2" style="fill:none;stroke:white;stroke-width:1px;"/>
            <rect x="252.47" y="0.5" width="25.2" height="25.2" style="fill:none;stroke:white;stroke-width:1px;"/>
            <rect x="252.47" y="25.58" width="25.2" height="25.2" style="fill:none;stroke:white;stroke-width:1px;"/>
            <rect x="277.67" y="0.5" width="25.2" height="25.2" style="fill:none;stroke:white;stroke-width:1px;"/>
            <rect x="277.67" y="25.58" width="25.2" height="25.2" style="fill:none;stroke:white;stroke-width:1px;"/>
            <rect x="302.87" y="0.5" width="25.2" height="25.2" style="fill:none;stroke:white;stroke-width:1px;"/>
            <rect x="151.68" y="0.5" width="25.2" height="25.2" style="fill:none;stroke:white;stroke-width:1px;"/>
            <rect x="151.68" y="25.58" width="25.2" height="25.2" style="fill:none;stroke:white;stroke-width:1px;"/>
            <rect x="151.68" y="50.65" width="25.2" height="25.2" style="fill:none;stroke:white;stroke-width:1px;"/>
            <rect x="151.68" y="75.73" width="25.2" height="25.2" style="fill:none;stroke:white;stroke-width:1px;"/>
            <rect x="151.68" y="100.8" width="25.2" height="25.2" style="fill:none;stroke:white;stroke-width:1px;"/>
            <rect x="176.88" y="0.5" width="25.2" height="25.2" style="fill:none;stroke:white;stroke-width:1px;"/>
            <rect x="176.88" y="25.58" width="25.2" height="25.2" style="fill:none;stroke:white;stroke-width:1px;"/>
            <rect x="176.88" y="50.65" width="25.2" height="25.2" style="fill:none;stroke:white;stroke-width:1px;"/>
            <rect x="176.88" y="75.73" width="25.2" height="25.2" style="fill:none;stroke:white;stroke-width:1px;"/>
            <rect x="202.08" y="0.5" width="25.2" height="25.2" style="fill:none;stroke:white;stroke-width:1px;"/>
            <rect x="202.08" y="25.58" width="25.2" height="25.2" style="fill:none;stroke:white;stroke-width:1px;"/>
            <rect x="227.28" y="25.58" width="25.2" height="25.2" style="fill:none;stroke:white;stroke-width:1px;"/>
            <rect x="252.47" y="50.65" width="25.2" height="25.2" style="fill:none;stroke:white;stroke-width:1px;"/>
            <rect x="25.7" y="0.5" width="25.2" height="25.2" style="fill:none;stroke:white;stroke-width:1px;"/>
            <rect x="25.7" y="25.58" width="25.2" height="25.2" style="fill:none;stroke:white;stroke-width:1px;"/>
            <rect x="25.7" y="50.65" width="25.2" height="25.2" style="fill:none;stroke:white;stroke-width:1px;"/>
            <rect x="50.89" y="0.5" width="25.2" height="25.2" style="fill:none;stroke:white;stroke-width:1px;"/>
            <rect x="50.89" y="25.58" width="25.2" height="25.2" style="fill:none;stroke:white;stroke-width:1px;"/>
            <rect x="0.5" y="0.5" width="25.2" height="25.2" style="fill:none;stroke:white;stroke-width:1px;"/>
            <rect x="0.5" y="25.58" width="25.2" height="25.2" style="fill:none;stroke:white;stroke-width:1px;"/>
            <rect x="76.09" y="0.5" width="25.2" height="25.2" style="fill:none;stroke:white;stroke-width:1px;"/>
            <rect x="101.29" y="0.5" width="25.2" height="25.2" style="fill:none;stroke:white;stroke-width:1px;"/>
            <rect x="126.49" y="0.5" width="25.2" height="25.2" style="fill:none;stroke:white;stroke-width:1px;"/>
            <rect x="126.49" y="25.58" width="25.2" height="25.2" style="fill:none;stroke:white;stroke-width:1px;"/>
            <rect x="101.29" y="25.51" width="25.2" height="25.2" style="fill:none;stroke:white;stroke-width:1px;"/>
            <rect x="126.49" y="50.59" width="25.2" height="25.2" style="fill:none;stroke:white;stroke-width:1px;"/>
            <g transform="matrix(1,0,0,1,0,-0.5)">
                <path d="M328.07,0.5L0.5,0.5L0.5,50.77L25.7,50.77L25.7,75.85L50.9,75.85L50.9,50.77L76.09,50.77L76.09,25.7L101.29,25.7L101.29,50.71L126.49,50.71L126.49,75.79L151.68,75.79L151.68,126L176.88,126L176.88,100.92L202.08,100.92L202.08,50.77L252.47,50.77L252.47,75.85L277.67,75.85L277.67,50.77L302.87,50.77L302.87,25.7L328.07,25.7L328.07,0.5Z" style="fill:url(#_Linear1);fill-rule:nonzero;"/>
            </g>
        </g>
    </g>
    <defs>
        <linearGradient id="_Linear1" x1="0" y1="0" x2="1" y2="0" gradientUnits="userSpaceOnUse" gradientTransform="matrix(7.58791e-15,123.92,-123.92,7.58791e-15,164.28,2.77)"><stop offset="0" style="stop-color:rgb(125,223,255);stop-opacity:1"/><stop offset="1" style="stop-color:rgb(125,223,255);stop-opacity:0"/></linearGradient>
    </defs>
</svg>
