<?xml version="1.0" encoding="UTF-8" standalone="no"?>
<!DOCTYPE svg PUBLIC "-//W3C//DTD SVG 1.1//EN" "http://www.w3.org/Graphics/SVG/1.1/DTD/svg11.dtd">
<svg width="100%" height="100%" viewBox="0 0 1280 90" version="1.1" xmlns="http://www.w3.org/2000/svg" xmlns:xlink="http://www.w3.org/1999/xlink" xml:space="preserve" xmlns:serif="http://www.serif.com/" style="fill-rule:evenodd;clip-rule:evenodd;stroke-miterlimit:10;">
    <g transform="matrix(1,0,0,1,-0.5,0)">
        <g transform="matrix(0.707268,0,0,0.707268,1048.12,-1e-06)">
            <g id="footer2.svg">
                <g>
                    <g>
                        <g id="Camada_2">
                            <g id="Camada_1-2">
                                <g transform="matrix(-1,-7.65714e-16,7.65714e-16,-1,177.38,226.8)">
                                    <rect x="76.09" y="100.8" width="25.2" height="25.2" style="fill:rgb(88,88,88);"/>
                                </g>
                                <g transform="matrix(-1,-7.65714e-16,7.65714e-16,-1,126.99,226.8)">
                                    <rect x="50.89" y="100.8" width="25.2" height="25.2" style="fill:rgb(88,88,88);"/>
                                </g>
                                <g transform="matrix(-1,-7.65714e-16,7.65714e-16,-1,126.99,176.65)">
                                    <rect x="50.89" y="75.73" width="25.2" height="25.2" style="fill:rgb(88,88,88);"/>
                                </g>
                                <g transform="matrix(-1,-7.65714e-16,7.65714e-16,-1,76.59,226.8)">
                                    <rect x="25.7" y="100.8" width="25.2" height="25.2" style="fill:rgb(88,88,88);"/>
                                </g>
                                <g transform="matrix(-1,-7.65714e-16,7.65714e-16,-1,76.59,176.65)">
                                    <rect x="25.7" y="75.73" width="25.2" height="25.2" style="fill:rgb(88,88,88);"/>
                                </g>
                                <g transform="matrix(-1,-7.65714e-16,7.65714e-16,-1,26.2,226.8)">
                                    <rect x="0.5" y="100.8" width="25.2" height="25.2" style="fill:rgb(88,88,88);"/>
                                </g>
                                <g transform="matrix(-1,-7.65714e-16,7.65714e-16,-1,328.57,226.8)">
                                    <rect x="151.68" y="100.8" width="25.2" height="25.2" style="fill:rgb(88,88,88);"/>
                                </g>
                                <g transform="matrix(-1,-7.65714e-16,7.65714e-16,-1,328.57,176.65)">
                                    <rect x="151.68" y="75.73" width="25.2" height="25.2" style="fill:rgb(88,88,88);"/>
                                </g>
                                <g transform="matrix(-1,-7.65714e-16,7.65714e-16,-1,328.57,126.5)">
                                    <rect x="151.68" y="50.65" width="25.2" height="25.2" style="fill:rgb(88,88,88);"/>
                                </g>
                                <g transform="matrix(-1,-7.65714e-16,7.65714e-16,-1,328.57,76.35)">
                                    <rect x="151.68" y="25.58" width="25.2" height="25.2" style="fill:rgb(88,88,88);"/>
                                </g>
                                <g transform="matrix(-1,-7.65714e-16,7.65714e-16,-1,328.57,26.2)">
                                    <rect x="151.68" y="0.5" width="25.2" height="25.2" style="fill:rgb(88,88,88);"/>
                                </g>
                                <g transform="matrix(-1,-7.65714e-16,7.65714e-16,-1,278.17,226.8)">
                                    <rect x="126.49" y="100.8" width="25.2" height="25.2" style="fill:rgb(88,88,88);"/>
                                </g>
                                <g transform="matrix(-1,-7.65714e-16,7.65714e-16,-1,278.17,176.65)">
                                    <rect x="126.49" y="75.73" width="25.2" height="25.2" style="fill:rgb(88,88,88);"/>
                                </g>
                                <g transform="matrix(-1,-7.65714e-16,7.65714e-16,-1,278.17,126.5)">
                                    <rect x="126.49" y="50.65" width="25.2" height="25.2" style="fill:rgb(88,88,88);"/>
                                </g>
                                <g transform="matrix(-1,-7.65714e-16,7.65714e-16,-1,278.17,76.35)">
                                    <rect x="126.49" y="25.58" width="25.2" height="25.2" style="fill:rgb(88,88,88);"/>
                                </g>
                                <g transform="matrix(-1,-7.65714e-16,7.65714e-16,-1,227.78,226.8)">
                                    <rect x="101.29" y="100.8" width="25.2" height="25.2" style="fill:rgb(88,88,88);"/>
                                </g>
                                <g transform="matrix(-1,-7.65714e-16,7.65714e-16,-1,227.78,176.65)">
                                    <rect x="101.29" y="75.73" width="25.2" height="25.2" style="fill:rgb(88,88,88);"/>
                                </g>
                                <g transform="matrix(-1,-7.65714e-16,7.65714e-16,-1,177.38,176.65)">
                                    <rect x="76.09" y="75.73" width="25.2" height="25.2" style="fill:rgb(88,88,88);"/>
                                </g>
                                <g transform="matrix(-1,-7.65714e-16,7.65714e-16,-1,126.99,126.5)">
                                    <rect x="50.89" y="50.65" width="25.2" height="25.2" style="fill:rgb(88,88,88);"/>
                                </g>
                                <g transform="matrix(-1,-7.65714e-16,7.65714e-16,-1,580.54,226.8)">
                                    <rect x="277.67" y="100.8" width="25.2" height="25.2" style="fill:rgb(88,88,88);"/>
                                </g>
                                <g transform="matrix(-1,-7.65714e-16,7.65714e-16,-1,580.54,176.65)">
                                    <rect x="277.67" y="75.73" width="25.2" height="25.2" style="fill:rgb(88,88,88);"/>
                                </g>
                                <g transform="matrix(-1,-7.65714e-16,7.65714e-16,-1,580.54,126.5)">
                                    <rect x="277.67" y="50.65" width="25.2" height="25.2" style="fill:rgb(88,88,88);"/>
                                </g>
                                <g transform="matrix(-1,-7.65714e-16,7.65714e-16,-1,530.14,226.8)">
                                    <rect x="252.47" y="100.8" width="25.2" height="25.2" style="fill:rgb(88,88,88);"/>
                                </g>
                                <g transform="matrix(-1,-7.65714e-16,7.65714e-16,-1,530.14,176.65)">
                                    <rect x="252.47" y="75.73" width="25.2" height="25.2" style="fill:rgb(88,88,88);"/>
                                </g>
                                <g transform="matrix(-1,-7.65714e-16,7.65714e-16,-1,630.93,226.8)">
                                    <rect x="302.87" y="100.8" width="25.2" height="25.2" style="fill:rgb(88,88,88);"/>
                                </g>
                                <g transform="matrix(-1,-7.65714e-16,7.65714e-16,-1,630.93,176.65)">
                                    <rect x="302.87" y="75.73" width="25.2" height="25.2" style="fill:rgb(88,88,88);"/>
                                </g>
                                <g transform="matrix(-1,-7.65714e-16,7.65714e-16,-1,479.75,226.8)">
                                    <rect x="227.28" y="100.8" width="25.2" height="25.2" style="fill:rgb(88,88,88);"/>
                                </g>
                                <g transform="matrix(-1,-7.65714e-16,7.65714e-16,-1,429.36,226.8)">
                                    <rect x="202.08" y="100.8" width="25.2" height="25.2" style="fill:rgb(88,88,88);"/>
                                </g>
                                <g transform="matrix(-1,-7.65714e-16,7.65714e-16,-1,378.96,226.8)">
                                    <rect x="176.88" y="100.8" width="25.2" height="25.2" style="fill:rgb(88,88,88);"/>
                                </g>
                                <g transform="matrix(-1,-7.65714e-16,7.65714e-16,-1,378.96,176.65)">
                                    <rect x="176.88" y="75.73" width="25.2" height="25.2" style="fill:rgb(88,88,88);"/>
                                </g>
                                <g transform="matrix(-1,-7.65714e-16,7.65714e-16,-1,429.36,176.77)">
                                    <rect x="202.08" y="75.79" width="25.2" height="25.2" style="fill:rgb(88,88,88);"/>
                                </g>
                                <g transform="matrix(-1,-7.65714e-16,7.65714e-16,-1,378.96,126.62)">
                                    <rect x="176.88" y="50.71" width="25.2" height="25.2" style="fill:rgb(88,88,88);"/>
                                </g>
                                <g transform="matrix(-1,-7.65714e-16,7.65714e-16,-1,177.38,226.8)">
                                    <rect x="76.09" y="100.8" width="25.2" height="25.2" style="fill:none;stroke:white;stroke-width:1px;"/>
                                </g>
                                <g transform="matrix(-1,-7.65714e-16,7.65714e-16,-1,126.99,226.8)">
                                    <rect x="50.89" y="100.8" width="25.2" height="25.2" style="fill:none;stroke:white;stroke-width:1px;"/>
                                </g>
                                <g transform="matrix(-1,-7.65714e-16,7.65714e-16,-1,126.99,176.65)">
                                    <rect x="50.89" y="75.73" width="25.2" height="25.2" style="fill:none;stroke:white;stroke-width:1px;"/>
                                </g>
                                <g transform="matrix(-1,-7.65714e-16,7.65714e-16,-1,76.59,226.8)">
                                    <rect x="25.7" y="100.8" width="25.2" height="25.2" style="fill:none;stroke:white;stroke-width:1px;"/>
                                </g>
                                <g transform="matrix(-1,-7.65714e-16,7.65714e-16,-1,76.59,176.65)">
                                    <rect x="25.7" y="75.73" width="25.2" height="25.2" style="fill:none;stroke:white;stroke-width:1px;"/>
                                </g>
                                <g transform="matrix(-1,-7.65714e-16,7.65714e-16,-1,26.2,226.8)">
                                    <rect x="0.5" y="100.8" width="25.2" height="25.2" style="fill:none;stroke:white;stroke-width:1px;"/>
                                </g>
                                <g transform="matrix(-1,-7.65714e-16,7.65714e-16,-1,328.57,226.8)">
                                    <rect x="151.68" y="100.8" width="25.2" height="25.2" style="fill:none;stroke:white;stroke-width:1px;"/>
                                </g>
                                <g transform="matrix(-1,-7.65714e-16,7.65714e-16,-1,328.57,176.65)">
                                    <rect x="151.68" y="75.73" width="25.2" height="25.2" style="fill:none;stroke:white;stroke-width:1px;"/>
                                </g>
                                <g transform="matrix(-1,-7.65714e-16,7.65714e-16,-1,328.57,126.5)">
                                    <rect x="151.68" y="50.65" width="25.2" height="25.2" style="fill:none;stroke:white;stroke-width:1px;"/>
                                </g>
                                <g transform="matrix(-1,-7.65714e-16,7.65714e-16,-1,328.57,76.35)">
                                    <rect x="151.68" y="25.58" width="25.2" height="25.2" style="fill:none;stroke:white;stroke-width:1px;"/>
                                </g>
                                <g transform="matrix(-1,-7.65714e-16,7.65714e-16,-1,328.57,26.2)">
                                    <rect x="151.68" y="0.5" width="25.2" height="25.2" style="fill:none;stroke:white;stroke-width:1px;"/>
                                </g>
                                <g transform="matrix(-1,-7.65714e-16,7.65714e-16,-1,278.17,226.8)">
                                    <rect x="126.49" y="100.8" width="25.2" height="25.2" style="fill:none;stroke:white;stroke-width:1px;"/>
                                </g>
                                <g transform="matrix(-1,-7.65714e-16,7.65714e-16,-1,278.17,176.65)">
                                    <rect x="126.49" y="75.73" width="25.2" height="25.2" style="fill:none;stroke:white;stroke-width:1px;"/>
                                </g>
                                <g transform="matrix(-1,-7.65714e-16,7.65714e-16,-1,278.17,126.5)">
                                    <rect x="126.49" y="50.65" width="25.2" height="25.2" style="fill:none;stroke:white;stroke-width:1px;"/>
                                </g>
                                <g transform="matrix(-1,-7.65714e-16,7.65714e-16,-1,278.17,76.35)">
                                    <rect x="126.49" y="25.58" width="25.2" height="25.2" style="fill:none;stroke:white;stroke-width:1px;"/>
                                </g>
                                <g transform="matrix(-1,-7.65714e-16,7.65714e-16,-1,227.78,226.8)">
                                    <rect x="101.29" y="100.8" width="25.2" height="25.2" style="fill:none;stroke:white;stroke-width:1px;"/>
                                </g>
                                <g transform="matrix(-1,-7.65714e-16,7.65714e-16,-1,227.78,176.65)">
                                    <rect x="101.29" y="75.73" width="25.2" height="25.2" style="fill:none;stroke:white;stroke-width:1px;"/>
                                </g>
                                <g transform="matrix(-1,-7.65714e-16,7.65714e-16,-1,177.38,176.65)">
                                    <rect x="76.09" y="75.73" width="25.2" height="25.2" style="fill:none;stroke:white;stroke-width:1px;"/>
                                </g>
                                <g transform="matrix(-1,-7.65714e-16,7.65714e-16,-1,126.99,126.5)">
                                    <rect x="50.89" y="50.65" width="25.2" height="25.2" style="fill:none;stroke:white;stroke-width:1px;"/>
                                </g>
                                <g transform="matrix(-1,-7.65714e-16,7.65714e-16,-1,580.54,226.8)">
                                    <rect x="277.67" y="100.8" width="25.2" height="25.2" style="fill:none;stroke:white;stroke-width:1px;"/>
                                </g>
                                <g transform="matrix(-1,-7.65714e-16,7.65714e-16,-1,580.54,176.65)">
                                    <rect x="277.67" y="75.73" width="25.2" height="25.2" style="fill:none;stroke:white;stroke-width:1px;"/>
                                </g>
                                <g transform="matrix(-1,-7.65714e-16,7.65714e-16,-1,580.54,126.5)">
                                    <rect x="277.67" y="50.65" width="25.2" height="25.2" style="fill:none;stroke:white;stroke-width:1px;"/>
                                </g>
                                <g transform="matrix(-1,-7.65714e-16,7.65714e-16,-1,530.14,226.8)">
                                    <rect x="252.47" y="100.8" width="25.2" height="25.2" style="fill:none;stroke:white;stroke-width:1px;"/>
                                </g>
                                <g transform="matrix(-1,-7.65714e-16,7.65714e-16,-1,530.14,176.65)">
                                    <rect x="252.47" y="75.73" width="25.2" height="25.2" style="fill:none;stroke:white;stroke-width:1px;"/>
                                </g>
                                <g transform="matrix(-1,-7.65714e-16,7.65714e-16,-1,630.93,226.8)">
                                    <rect x="302.87" y="100.8" width="25.2" height="25.2" style="fill:none;stroke:white;stroke-width:1px;"/>
                                </g>
                                <g transform="matrix(-1,-7.65714e-16,7.65714e-16,-1,630.93,176.65)">
                                    <rect x="302.87" y="75.73" width="25.2" height="25.2" style="fill:none;stroke:white;stroke-width:1px;"/>
                                </g>
                                <g transform="matrix(-1,-7.65714e-16,7.65714e-16,-1,479.75,226.8)">
                                    <rect x="227.28" y="100.8" width="25.2" height="25.2" style="fill:none;stroke:white;stroke-width:1px;"/>
                                </g>
                                <g transform="matrix(-1,-7.65714e-16,7.65714e-16,-1,429.36,226.8)">
                                    <rect x="202.08" y="100.8" width="25.2" height="25.2" style="fill:none;stroke:white;stroke-width:1px;"/>
                                </g>
                                <g transform="matrix(-1,-7.65714e-16,7.65714e-16,-1,378.96,226.8)">
                                    <rect x="176.88" y="100.8" width="25.2" height="25.2" style="fill:none;stroke:white;stroke-width:1px;"/>
                                </g>
                                <g transform="matrix(-1,-7.65714e-16,7.65714e-16,-1,378.96,176.65)">
                                    <rect x="176.88" y="75.73" width="25.2" height="25.2" style="fill:none;stroke:white;stroke-width:1px;"/>
                                </g>
                                <g transform="matrix(-1,-7.65714e-16,7.65714e-16,-1,429.36,176.77)">
                                    <rect x="202.08" y="75.79" width="25.2" height="25.2" style="fill:none;stroke:white;stroke-width:1px;"/>
                                </g>
                                <g transform="matrix(-1,-7.65714e-16,7.65714e-16,-1,378.96,126.62)">
                                    <rect x="176.88" y="50.71" width="25.2" height="25.2" style="fill:none;stroke:white;stroke-width:1px;"/>
                                </g>
                                <g transform="matrix(1,0,0,1,0,1.25021)">
                                    <path d="M0.5,126L328.07,126L328.07,75.73L302.87,75.73L302.87,50.65L277.67,50.65L277.67,75.73L252.47,75.73L252.47,100.8L227.28,100.8L227.28,75.79L202.08,75.79L202.08,50.71L176.88,50.71L176.88,0.5L151.68,0.5L151.68,25.58L126.49,25.58L126.49,75.73L76.09,75.73L76.09,50.65L50.9,50.65L50.9,75.73L25.7,75.73L25.7,100.8L0.5,100.8L0.5,126Z" style="fill:url(#_Linear1);fill-rule:nonzero;"/>
                                </g>
                            </g>
                        </g>
                    </g>
                </g>
            </g>
        </g>
        <g transform="matrix(0.590246,0,0,0.590246,0.499535,-4.434e-05)">
            <g id="footer1.svg">
                <g>
                    <g>
                        <g id="Camada_21" serif:id="Camada_2">
                            <g id="Camada_1-21" serif:id="Camada_1-2">
                                <g transform="matrix(-1,-7.65714e-16,7.65714e-16,-1,177.38,276.95)">
                                    <rect x="76.09" y="125.88" width="25.2" height="25.2" style="fill:rgb(88,88,88);"/>
                                </g>
                                <g transform="matrix(-1,-7.65714e-16,7.65714e-16,-1,177.38,226.8)">
                                    <rect x="76.09" y="100.8" width="25.2" height="25.2" style="fill:rgb(88,88,88);"/>
                                </g>
                                <g transform="matrix(-1,-7.65714e-16,7.65714e-16,-1,126.99,276.95)">
                                    <rect x="50.89" y="125.88" width="25.2" height="25.2" style="fill:rgb(88,88,88);"/>
                                </g>
                                <g transform="matrix(-1,-7.65714e-16,7.65714e-16,-1,126.99,226.8)">
                                    <rect x="50.89" y="100.8" width="25.2" height="25.2" style="fill:rgb(88,88,88);"/>
                                </g>
                                <g transform="matrix(-1,-7.65714e-16,7.65714e-16,-1,76.59,276.95)">
                                    <rect x="25.7" y="125.88" width="25.2" height="25.2" style="fill:rgb(88,88,88);"/>
                                </g>
                                <g transform="matrix(-1,-7.65714e-16,7.65714e-16,-1,76.59,226.8)">
                                    <rect x="25.7" y="100.8" width="25.2" height="25.2" style="fill:rgb(88,88,88);"/>
                                </g>
                                <g transform="matrix(-1,-7.65714e-16,7.65714e-16,-1,26.2,276.95)">
                                    <rect x="0.5" y="125.88" width="25.2" height="25.2" style="fill:rgb(88,88,88);"/>
                                </g>
                                <g transform="matrix(-1,-7.65714e-16,7.65714e-16,-1,26.2,226.8)">
                                    <rect x="0.5" y="100.8" width="25.2" height="25.2" style="fill:rgb(88,88,88);"/>
                                </g>
                                <g transform="matrix(-1,-7.65714e-16,7.65714e-16,-1,328.57,276.95)">
                                    <rect x="151.68" y="125.88" width="25.2" height="25.2" style="fill:rgb(88,88,88);"/>
                                </g>
                                <g transform="matrix(-1,-7.65714e-16,7.65714e-16,-1,328.57,226.8)">
                                    <rect x="151.68" y="100.8" width="25.2" height="25.2" style="fill:rgb(88,88,88);"/>
                                </g>
                                <g transform="matrix(-1,-7.65714e-16,7.65714e-16,-1,328.57,176.65)">
                                    <rect x="151.68" y="75.73" width="25.2" height="25.2" style="fill:rgb(88,88,88);"/>
                                </g>
                                <g transform="matrix(-1,-7.65714e-16,7.65714e-16,-1,328.57,126.5)">
                                    <rect x="151.68" y="50.65" width="25.2" height="25.2" style="fill:rgb(88,88,88);"/>
                                </g>
                                <g transform="matrix(-1,-7.65714e-16,7.65714e-16,-1,328.57,26.2)">
                                    <rect x="151.68" y="0.5" width="25.2" height="25.2" style="fill:rgb(88,88,88);"/>
                                </g>
                                <g transform="matrix(-1,-7.65714e-16,7.65714e-16,-1,278.17,276.95)">
                                    <rect x="126.49" y="125.88" width="25.2" height="25.2" style="fill:rgb(88,88,88);"/>
                                </g>
                                <g transform="matrix(-1,-7.65714e-16,7.65714e-16,-1,278.17,226.8)">
                                    <rect x="126.49" y="100.8" width="25.2" height="25.2" style="fill:rgb(88,88,88);"/>
                                </g>
                                <g transform="matrix(-1,-7.65714e-16,7.65714e-16,-1,278.17,176.65)">
                                    <rect x="126.49" y="75.73" width="25.2" height="25.2" style="fill:rgb(88,88,88);"/>
                                </g>
                                <g transform="matrix(-1,-7.65714e-16,7.65714e-16,-1,278.17,126.5)">
                                    <rect x="126.49" y="50.65" width="25.2" height="25.2" style="fill:rgb(88,88,88);"/>
                                </g>
                                <g transform="matrix(-1,-7.65714e-16,7.65714e-16,-1,227.78,276.95)">
                                    <rect x="101.29" y="125.88" width="25.2" height="25.2" style="fill:rgb(88,88,88);"/>
                                </g>
                                <g transform="matrix(-1,-7.65714e-16,7.65714e-16,-1,227.78,226.8)">
                                    <rect x="101.29" y="100.8" width="25.2" height="25.2" style="fill:rgb(88,88,88);"/>
                                </g>
                                <g transform="matrix(-1,-7.65714e-16,7.65714e-16,-1,227.78,176.65)">
                                    <rect x="101.29" y="75.73" width="25.2" height="25.2" style="fill:rgb(88,88,88);"/>
                                </g>
                                <g transform="matrix(-1,-7.65714e-16,7.65714e-16,-1,126.99,176.65)">
                                    <rect x="50.89" y="75.73" width="25.2" height="25.2" style="fill:rgb(88,88,88);"/>
                                </g>
                                <g transform="matrix(-1,-7.65714e-16,7.65714e-16,-1,76.59,176.65)">
                                    <rect x="25.7" y="75.73" width="25.2" height="25.2" style="fill:rgb(88,88,88);"/>
                                </g>
                                <g transform="matrix(-1,-7.65714e-16,7.65714e-16,-1,76.59,126.5)">
                                    <rect x="25.7" y="50.65" width="25.2" height="25.2" style="fill:rgb(88,88,88);"/>
                                </g>
                                <g transform="matrix(-1,-7.65714e-16,7.65714e-16,-1,580.54,276.95)">
                                    <rect x="277.67" y="125.88" width="25.2" height="25.2" style="fill:rgb(88,88,88);"/>
                                </g>
                                <g transform="matrix(-1,-7.65714e-16,7.65714e-16,-1,580.54,226.8)">
                                    <rect x="277.67" y="100.8" width="25.2" height="25.2" style="fill:rgb(88,88,88);"/>
                                </g>
                                <g transform="matrix(-1,-7.65714e-16,7.65714e-16,-1,580.54,176.65)">
                                    <rect x="277.67" y="75.73" width="25.2" height="25.2" style="fill:rgb(88,88,88);"/>
                                </g>
                                <g transform="matrix(-1,-7.65714e-16,7.65714e-16,-1,530.14,276.95)">
                                    <rect x="252.47" y="125.88" width="25.2" height="25.2" style="fill:rgb(88,88,88);"/>
                                </g>
                                <g transform="matrix(-1,-7.65714e-16,7.65714e-16,-1,530.14,226.8)">
                                    <rect x="252.47" y="100.8" width="25.2" height="25.2" style="fill:rgb(88,88,88);"/>
                                </g>
                                <g transform="matrix(-1,-7.65714e-16,7.65714e-16,-1,479.75,276.95)">
                                    <rect x="227.28" y="125.88" width="25.2" height="25.2" style="fill:rgb(88,88,88);"/>
                                </g>
                                <g transform="matrix(-1,-7.65714e-16,7.65714e-16,-1,479.75,226.8)">
                                    <rect x="227.28" y="100.8" width="25.2" height="25.2" style="fill:rgb(88,88,88);"/>
                                </g>
                                <g transform="matrix(-1,-7.65714e-16,7.65714e-16,-1,479.75,126.5)">
                                    <rect x="227.28" y="50.65" width="25.2" height="25.2" style="fill:rgb(88,88,88);"/>
                                </g>
                                <g transform="matrix(-1,-7.65714e-16,7.65714e-16,-1,429.36,276.95)">
                                    <rect x="202.08" y="125.88" width="25.2" height="25.2" style="fill:rgb(88,88,88);"/>
                                </g>
                                <g transform="matrix(-1,-7.65714e-16,7.65714e-16,-1,378.96,276.95)">
                                    <rect x="176.88" y="125.88" width="25.2" height="25.2" style="fill:rgb(88,88,88);"/>
                                </g>
                                <g transform="matrix(-1,-7.65714e-16,7.65714e-16,-1,378.96,226.8)">
                                    <rect x="176.88" y="100.8" width="25.2" height="25.2" style="fill:rgb(88,88,88);"/>
                                </g>
                                <g transform="matrix(-1,-7.65714e-16,7.65714e-16,-1,479.75,126.5)">
                                    <rect x="227.28" y="50.65" width="25.2" height="25.2" style="fill:rgb(88,88,88);"/>
                                </g>
                                <g transform="matrix(-1,-7.65714e-16,7.65714e-16,-1,177.38,276.95)">
                                    <rect x="76.09" y="125.88" width="25.2" height="25.2" style="fill:none;stroke:white;stroke-width:1px;"/>
                                </g>
                                <g transform="matrix(-1,-7.65714e-16,7.65714e-16,-1,177.38,226.8)">
                                    <rect x="76.09" y="100.8" width="25.2" height="25.2" style="fill:none;stroke:white;stroke-width:1px;"/>
                                </g>
                                <g transform="matrix(-1,-7.65714e-16,7.65714e-16,-1,126.99,276.95)">
                                    <rect x="50.89" y="125.88" width="25.2" height="25.2" style="fill:none;stroke:white;stroke-width:1px;"/>
                                </g>
                                <g transform="matrix(-1,-7.65714e-16,7.65714e-16,-1,126.99,226.8)">
                                    <rect x="50.89" y="100.8" width="25.2" height="25.2" style="fill:none;stroke:white;stroke-width:1px;"/>
                                </g>
                                <g transform="matrix(-1,-7.65714e-16,7.65714e-16,-1,76.59,276.95)">
                                    <rect x="25.7" y="125.88" width="25.2" height="25.2" style="fill:none;stroke:white;stroke-width:1px;"/>
                                </g>
                                <g transform="matrix(-1,-7.65714e-16,7.65714e-16,-1,76.59,226.8)">
                                    <rect x="25.7" y="100.8" width="25.2" height="25.2" style="fill:none;stroke:white;stroke-width:1px;"/>
                                </g>
                                <g transform="matrix(-1,-7.65714e-16,7.65714e-16,-1,26.2,276.95)">
                                    <rect x="0.5" y="125.88" width="25.2" height="25.2" style="fill:none;stroke:white;stroke-width:1px;"/>
                                </g>
                                <g transform="matrix(-1,-7.65714e-16,7.65714e-16,-1,26.2,226.8)">
                                    <rect x="0.5" y="100.8" width="25.2" height="25.2" style="fill:none;stroke:white;stroke-width:1px;"/>
                                </g>
                                <g transform="matrix(-1,-7.65714e-16,7.65714e-16,-1,328.57,276.95)">
                                    <rect x="151.68" y="125.88" width="25.2" height="25.2" style="fill:none;stroke:white;stroke-width:1px;"/>
                                </g>
                                <g transform="matrix(-1,-7.65714e-16,7.65714e-16,-1,328.57,226.8)">
                                    <rect x="151.68" y="100.8" width="25.2" height="25.2" style="fill:none;stroke:white;stroke-width:1px;"/>
                                </g>
                                <g transform="matrix(-1,-7.65714e-16,7.65714e-16,-1,328.57,176.65)">
                                    <rect x="151.68" y="75.73" width="25.2" height="25.2" style="fill:none;stroke:white;stroke-width:1px;"/>
                                </g>
                                <g transform="matrix(-1,-7.65714e-16,7.65714e-16,-1,328.57,126.5)">
                                    <rect x="151.68" y="50.65" width="25.2" height="25.2" style="fill:none;stroke:white;stroke-width:1px;"/>
                                </g>
                                <g transform="matrix(-1,-7.65714e-16,7.65714e-16,-1,328.57,26.2)">
                                    <rect x="151.68" y="0.5" width="25.2" height="25.2" style="fill:none;stroke:white;stroke-width:1px;"/>
                                </g>
                                <g transform="matrix(-1,-7.65714e-16,7.65714e-16,-1,278.17,276.95)">
                                    <rect x="126.49" y="125.88" width="25.2" height="25.2" style="fill:none;stroke:white;stroke-width:1px;"/>
                                </g>
                                <g transform="matrix(-1,-7.65714e-16,7.65714e-16,-1,278.17,226.8)">
                                    <rect x="126.49" y="100.8" width="25.2" height="25.2" style="fill:none;stroke:white;stroke-width:1px;"/>
                                </g>
                                <g transform="matrix(-1,-7.65714e-16,7.65714e-16,-1,278.17,176.65)">
                                    <rect x="126.49" y="75.73" width="25.2" height="25.2" style="fill:none;stroke:white;stroke-width:1px;"/>
                                </g>
                                <g transform="matrix(-1,-7.65714e-16,7.65714e-16,-1,278.17,126.5)">
                                    <rect x="126.49" y="50.65" width="25.2" height="25.2" style="fill:none;stroke:white;stroke-width:1px;"/>
                                </g>
                                <g transform="matrix(-1,-7.65714e-16,7.65714e-16,-1,227.78,276.95)">
                                    <rect x="101.29" y="125.88" width="25.2" height="25.2" style="fill:none;stroke:white;stroke-width:1px;"/>
                                </g>
                                <g transform="matrix(-1,-7.65714e-16,7.65714e-16,-1,227.78,226.8)">
                                    <rect x="101.29" y="100.8" width="25.2" height="25.2" style="fill:none;stroke:white;stroke-width:1px;"/>
                                </g>
                                <g transform="matrix(-1,-7.65714e-16,7.65714e-16,-1,227.78,176.65)">
                                    <rect x="101.29" y="75.73" width="25.2" height="25.2" style="fill:none;stroke:white;stroke-width:1px;"/>
                                </g>
                                <g transform="matrix(-1,-7.65714e-16,7.65714e-16,-1,126.99,176.65)">
                                    <rect x="50.89" y="75.73" width="25.2" height="25.2" style="fill:none;stroke:white;stroke-width:1px;"/>
                                </g>
                                <g transform="matrix(-1,-7.65714e-16,7.65714e-16,-1,76.59,176.65)">
                                    <rect x="25.7" y="75.73" width="25.2" height="25.2" style="fill:none;stroke:white;stroke-width:1px;"/>
                                </g>
                                <g transform="matrix(-1,-7.65714e-16,7.65714e-16,-1,76.59,126.5)">
                                    <rect x="25.7" y="50.65" width="25.2" height="25.2" style="fill:none;stroke:white;stroke-width:1px;"/>
                                </g>
                                <g transform="matrix(-1,-7.65714e-16,7.65714e-16,-1,580.54,276.95)">
                                    <rect x="277.67" y="125.88" width="25.2" height="25.2" style="fill:none;stroke:white;stroke-width:1px;"/>
                                </g>
                                <g transform="matrix(-1,-7.65714e-16,7.65714e-16,-1,580.54,226.8)">
                                    <rect x="277.67" y="100.8" width="25.2" height="25.2" style="fill:none;stroke:white;stroke-width:1px;"/>
                                </g>
                                <g transform="matrix(-1,-7.65714e-16,7.65714e-16,-1,580.54,176.65)">
                                    <rect x="277.67" y="75.73" width="25.2" height="25.2" style="fill:none;stroke:white;stroke-width:1px;"/>
                                </g>
                                <g transform="matrix(-1,-7.65714e-16,7.65714e-16,-1,530.14,276.95)">
                                    <rect x="252.47" y="125.88" width="25.2" height="25.2" style="fill:none;stroke:white;stroke-width:1px;"/>
                                </g>
                                <g transform="matrix(-1,-7.65714e-16,7.65714e-16,-1,530.14,226.8)">
                                    <rect x="252.47" y="100.8" width="25.2" height="25.2" style="fill:none;stroke:white;stroke-width:1px;"/>
                                </g>
                                <g transform="matrix(-1,-7.65714e-16,7.65714e-16,-1,479.75,276.95)">
                                    <rect x="227.28" y="125.88" width="25.2" height="25.2" style="fill:none;stroke:white;stroke-width:1px;"/>
                                </g>
                                <g transform="matrix(-1,-7.65714e-16,7.65714e-16,-1,479.75,226.8)">
                                    <rect x="227.28" y="100.8" width="25.2" height="25.2" style="fill:none;stroke:white;stroke-width:1px;"/>
                                </g>
                                <g transform="matrix(-1,-7.65714e-16,7.65714e-16,-1,479.75,126.5)">
                                    <rect x="227.28" y="50.65" width="25.2" height="25.2" style="fill:none;stroke:white;stroke-width:1px;"/>
                                </g>
                                <g transform="matrix(-1,-7.65714e-16,7.65714e-16,-1,429.36,276.95)">
                                    <rect x="202.08" y="125.88" width="25.2" height="25.2" style="fill:none;stroke:white;stroke-width:1px;"/>
                                </g>
                                <g transform="matrix(-1,-7.65714e-16,7.65714e-16,-1,378.96,276.95)">
                                    <rect x="176.88" y="125.88" width="25.2" height="25.2" style="fill:none;stroke:white;stroke-width:1px;"/>
                                </g>
                                <g transform="matrix(-1,-7.65714e-16,7.65714e-16,-1,378.96,226.8)">
                                    <rect x="176.88" y="100.8" width="25.2" height="25.2" style="fill:none;stroke:white;stroke-width:1px;"/>
                                </g>
                                <g transform="matrix(-1,-7.65714e-16,7.65714e-16,-1,479.75,126.5)">
                                    <rect x="227.28" y="50.65" width="25.2" height="25.2" style="fill:none;stroke:white;stroke-width:1px;"/>
                                </g>
                                <g transform="matrix(1,0,0,1,0,1.40887)">
                                    <path d="M0.5,151.07L302.87,151.07L302.87,75.73L277.67,75.73L277.67,100.8L227.28,100.8L227.28,125.88L202.08,125.88L202.08,100.8L176.88,100.8L176.88,50.65L126.49,50.65L126.49,75.73L101.29,75.73L101.29,100.8L76.09,100.8L76.09,75.73L50.9,75.73L50.9,50.65L25.7,50.65L25.7,100.8L0.5,100.8L0.5,151.07Z" style="fill:url(#_Linear2);fill-rule:nonzero;"/>
                                </g>
                                <rect x="151.68" y="0.5" width="25.2" height="25.2" style="fill:url(#_Linear3);"/>
                                <rect x="227.28" y="50.65" width="25.2" height="25.2" style="fill:url(#_Linear4);"/>
                            </g>
                        </g>
                    </g>
                </g>
            </g>
        </g>
    </g>
    <defs>
        <linearGradient id="_Linear1" x1="0" y1="0" x2="1" y2="0" gradientUnits="userSpaceOnUse" gradientTransform="matrix(7.58791e-15,-123.92,123.92,7.58791e-15,164.28,123.72)"><stop offset="0" style="stop-color:rgb(88,88,88);stop-opacity:1"/><stop offset="1" style="stop-color:rgb(88,88,88);stop-opacity:0"/></linearGradient>
        <linearGradient id="_Linear2" x1="0" y1="0" x2="1" y2="0" gradientUnits="userSpaceOnUse" gradientTransform="matrix(9.202e-15,-150.28,150.28,9.202e-15,151.69,151.07)"><stop offset="0" style="stop-color:rgb(88,88,88);stop-opacity:1"/><stop offset="1" style="stop-color:rgb(88,88,88);stop-opacity:0"/></linearGradient>
        <linearGradient id="_Linear3" x1="0" y1="0" x2="1" y2="0" gradientUnits="userSpaceOnUse" gradientTransform="matrix(2.31891e-13,3787.06,-3787.06,2.31891e-13,-38954.4,-9679.32)"><stop offset="0" style="stop-color:rgb(88,88,88);stop-opacity:1"/><stop offset="1" style="stop-color:rgb(88,88,88);stop-opacity:0"/></linearGradient>
        <linearGradient id="_Linear4" x1="0" y1="0" x2="1" y2="0" gradientUnits="userSpaceOnUse" gradientTransform="matrix(2.31891e-13,3787.06,-3787.06,2.31891e-13,-40783.7,-9629.17)"><stop offset="0" style="stop-color:rgb(88,88,88);stop-opacity:1"/><stop offset="1" style="stop-color:rgb(88,88,88);stop-opacity:0"/></linearGradient>
    </defs>
</svg>
