<?xml version="1.0" encoding="UTF-8" standalone="no"?>
<!DOCTYPE svg PUBLIC "-//W3C//DTD SVG 1.1//EN" "http://www.w3.org/Graphics/SVG/1.1/DTD/svg11.dtd">
<svg width="100%" height="100%" viewBox="0 0 1280 100" version="1.1" xmlns="http://www.w3.org/2000/svg" xmlns:xlink="http://www.w3.org/1999/xlink" xml:space="preserve" xmlns:serif="http://www.serif.com/" style="fill-rule:evenodd;clip-rule:evenodd;stroke-miterlimit:10;">
    <g transform="matrix(0.664099,0,0,0.664099,0.408463,-0.332049)">
        <g id="detalhes-1.svg" serif:id="detalhes 1.svg">
            <g>
                <g>
                    <g id="Camada_2">
                        <g id="Camada_1-2">
                            <rect x="202.08" y="0.5" width="25.2" height="25.2" style="fill:rgb(125,223,255);"/>
                            <rect x="202.08" y="25.58" width="25.2" height="25.2" style="fill:rgb(125,223,255);"/>
                            <rect x="227.28" y="0.5" width="25.2" height="25.2" style="fill:rgb(125,223,255);"/>
                            <rect x="227.28" y="25.58" width="25.2" height="25.2" style="fill:rgb(125,223,255);"/>
                            <rect x="252.47" y="0.5" width="25.2" height="25.2" style="fill:rgb(125,223,255);"/>
                            <rect x="252.47" y="25.58" width="25.2" height="25.2" style="fill:rgb(125,223,255);"/>
                            <rect x="277.67" y="0.5" width="25.2" height="25.2" style="fill:rgb(125,223,255);"/>
                            <rect x="277.67" y="25.58" width="25.2" height="25.2" style="fill:rgb(125,223,255);"/>
                            <rect x="126.49" y="0.5" width="25.2" height="25.2" style="fill:rgb(125,223,255);"/>
                            <rect x="126.49" y="25.58" width="25.2" height="25.2" style="fill:rgb(125,223,255);"/>
                            <rect x="126.49" y="50.65" width="25.2" height="25.2" style="fill:rgb(125,223,255);"/>
                            <rect x="126.49" y="75.73" width="25.2" height="25.2" style="fill:rgb(125,223,255);"/>
                            <rect x="126.49" y="125.88" width="25.2" height="25.2" style="fill:rgb(125,223,255);"/>
                            <rect x="151.68" y="0.5" width="25.2" height="25.2" style="fill:rgb(125,223,255);"/>
                            <rect x="151.68" y="25.58" width="25.2" height="25.2" style="fill:rgb(125,223,255);"/>
                            <rect x="151.68" y="50.65" width="25.2" height="25.2" style="fill:rgb(125,223,255);"/>
                            <rect x="151.68" y="75.73" width="25.2" height="25.2" style="fill:rgb(125,223,255);"/>
                            <rect x="176.88" y="0.5" width="25.2" height="25.2" style="fill:rgb(125,223,255);"/>
                            <rect x="176.88" y="25.58" width="25.2" height="25.2" style="fill:rgb(125,223,255);"/>
                            <rect x="176.88" y="50.65" width="25.2" height="25.2" style="fill:rgb(125,223,255);"/>
                            <rect x="227.28" y="50.65" width="25.2" height="25.2" style="fill:rgb(125,223,255);"/>
                            <rect x="252.47" y="50.65" width="25.2" height="25.2" style="fill:rgb(125,223,255);"/>
                            <rect x="252.47" y="75.73" width="25.2" height="25.2" style="fill:rgb(125,223,255);"/>
                            <rect x="0.5" y="0.5" width="25.2" height="25.2" style="fill:rgb(125,223,255);"/>
                            <rect x="0.5" y="25.58" width="25.2" height="25.2" style="fill:rgb(125,223,255);"/>
                            <rect x="0.5" y="50.65" width="25.2" height="25.2" style="fill:rgb(125,223,255);"/>
                            <rect x="25.7" y="0.5" width="25.2" height="25.2" style="fill:rgb(125,223,255);"/>
                            <rect x="25.7" y="25.58" width="25.2" height="25.2" style="fill:rgb(125,223,255);"/>
                            <rect x="50.89" y="0.5" width="25.2" height="25.2" style="fill:rgb(125,223,255);"/>
                            <rect x="50.89" y="25.58" width="25.2" height="25.2" style="fill:rgb(125,223,255);"/>
                            <rect x="50.89" y="75.73" width="25.2" height="25.2" style="fill:rgb(125,223,255);"/>
                            <rect x="76.09" y="0.5" width="25.2" height="25.2" style="fill:rgb(125,223,255);"/>
                            <rect x="101.29" y="0.5" width="25.2" height="25.2" style="fill:rgb(125,223,255);"/>
                            <rect x="101.29" y="25.58" width="25.2" height="25.2" style="fill:rgb(125,223,255);"/>
                            <rect x="50.89" y="75.73" width="25.2" height="25.2" style="fill:rgb(125,223,255);"/>
                            <rect x="202.08" y="0.5" width="25.2" height="25.2" style="fill:none;stroke:white;stroke-width:1px;"/>
                            <rect x="202.08" y="25.58" width="25.2" height="25.2" style="fill:none;stroke:white;stroke-width:1px;"/>
                            <rect x="227.28" y="0.5" width="25.2" height="25.2" style="fill:none;stroke:white;stroke-width:1px;"/>
                            <rect x="227.28" y="25.58" width="25.2" height="25.2" style="fill:none;stroke:white;stroke-width:1px;"/>
                            <rect x="252.47" y="0.5" width="25.2" height="25.2" style="fill:none;stroke:white;stroke-width:1px;"/>
                            <rect x="252.47" y="25.58" width="25.2" height="25.2" style="fill:none;stroke:white;stroke-width:1px;"/>
                            <rect x="277.67" y="0.5" width="25.2" height="25.2" style="fill:none;stroke:white;stroke-width:1px;"/>
                            <rect x="277.67" y="25.58" width="25.2" height="25.2" style="fill:none;stroke:white;stroke-width:1px;"/>
                            <rect x="126.49" y="0.5" width="25.2" height="25.2" style="fill:none;stroke:white;stroke-width:1px;"/>
                            <rect x="126.49" y="25.58" width="25.2" height="25.2" style="fill:none;stroke:white;stroke-width:1px;"/>
                            <rect x="126.49" y="50.65" width="25.2" height="25.2" style="fill:none;stroke:white;stroke-width:1px;"/>
                            <rect x="126.49" y="75.73" width="25.2" height="25.2" style="fill:none;stroke:white;stroke-width:1px;"/>
                            <rect x="126.49" y="125.88" width="25.2" height="25.2" style="fill:none;stroke:white;stroke-width:1px;"/>
                            <rect x="151.68" y="0.5" width="25.2" height="25.2" style="fill:none;stroke:white;stroke-width:1px;"/>
                            <rect x="151.68" y="25.58" width="25.2" height="25.2" style="fill:none;stroke:white;stroke-width:1px;"/>
                            <rect x="151.68" y="50.65" width="25.2" height="25.2" style="fill:none;stroke:white;stroke-width:1px;"/>
                            <rect x="151.68" y="75.73" width="25.2" height="25.2" style="fill:none;stroke:white;stroke-width:1px;"/>
                            <rect x="176.88" y="0.5" width="25.2" height="25.2" style="fill:none;stroke:white;stroke-width:1px;"/>
                            <rect x="176.88" y="25.58" width="25.2" height="25.2" style="fill:none;stroke:white;stroke-width:1px;"/>
                            <rect x="176.88" y="50.65" width="25.2" height="25.2" style="fill:none;stroke:white;stroke-width:1px;"/>
                            <rect x="227.28" y="50.65" width="25.2" height="25.2" style="fill:none;stroke:white;stroke-width:1px;"/>
                            <rect x="252.47" y="50.65" width="25.2" height="25.2" style="fill:none;stroke:white;stroke-width:1px;"/>
                            <rect x="252.47" y="75.73" width="25.2" height="25.2" style="fill:none;stroke:white;stroke-width:1px;"/>
                            <rect x="0.5" y="0.5" width="25.2" height="25.2" style="fill:none;stroke:white;stroke-width:1px;"/>
                            <rect x="0.5" y="25.58" width="25.2" height="25.2" style="fill:none;stroke:white;stroke-width:1px;"/>
                            <rect x="0.5" y="50.65" width="25.2" height="25.2" style="fill:none;stroke:white;stroke-width:1px;"/>
                            <rect x="25.7" y="0.5" width="25.2" height="25.2" style="fill:none;stroke:white;stroke-width:1px;"/>
                            <rect x="25.7" y="25.58" width="25.2" height="25.2" style="fill:none;stroke:white;stroke-width:1px;"/>
                            <rect x="50.89" y="0.5" width="25.2" height="25.2" style="fill:none;stroke:white;stroke-width:1px;"/>
                            <rect x="50.89" y="25.58" width="25.2" height="25.2" style="fill:none;stroke:white;stroke-width:1px;"/>
                            <rect x="50.89" y="75.73" width="25.2" height="25.2" style="fill:none;stroke:white;stroke-width:1px;"/>
                            <rect x="76.09" y="0.5" width="25.2" height="25.2" style="fill:none;stroke:white;stroke-width:1px;"/>
                            <rect x="101.29" y="0.5" width="25.2" height="25.2" style="fill:none;stroke:white;stroke-width:1px;"/>
                            <rect x="101.29" y="25.58" width="25.2" height="25.2" style="fill:none;stroke:white;stroke-width:1px;"/>
                            <rect x="50.89" y="75.73" width="25.2" height="25.2" style="fill:none;stroke:white;stroke-width:1px;"/>
                            <path d="M302.87,0.5L0.5,0.5L0.5,75.85L25.7,75.85L25.7,50.77L76.09,50.77L76.09,25.7L101.29,25.7L101.29,50.77L126.49,50.77L126.49,100.92L176.88,100.92L176.88,75.85L202.08,75.85L202.08,50.77L227.28,50.77L227.28,75.85L252.47,75.85L252.47,100.92L277.67,100.92L277.67,50.77L302.87,50.77L302.87,0.5Z" style="fill:url(#_Linear1);fill-rule:nonzero;"/>
                            <rect x="126.49" y="125.88" width="25.2" height="25.2" style="fill:url(#_Linear2);"/>
                            <rect x="50.89" y="75.73" width="25.2" height="25.2" style="fill:url(#_Linear3);"/>
                        </g>
                    </g>
                </g>
            </g>
        </g>
    </g>
    <g transform="matrix(0.796813,0,0,0.796813,1018.59,-0.398406)">
        <g id="detalhes-2.svg" serif:id="detalhes 2.svg">
            <g>
                <g>
                    <g id="Camada_21" serif:id="Camada_2">
                        <g id="Camada_1-21" serif:id="Camada_1-2">
                            <rect x="227.28" y="0.5" width="25.2" height="25.2" style="fill:rgb(125,223,255);"/>
                            <rect x="252.47" y="0.5" width="25.2" height="25.2" style="fill:rgb(125,223,255);"/>
                            <rect x="252.47" y="25.58" width="25.2" height="25.2" style="fill:rgb(125,223,255);"/>
                            <rect x="277.67" y="0.5" width="25.2" height="25.2" style="fill:rgb(125,223,255);"/>
                            <rect x="277.67" y="25.58" width="25.2" height="25.2" style="fill:rgb(125,223,255);"/>
                            <rect x="302.87" y="0.5" width="25.2" height="25.2" style="fill:rgb(125,223,255);"/>
                            <rect x="151.68" y="0.5" width="25.2" height="25.2" style="fill:rgb(125,223,255);"/>
                            <rect x="151.68" y="25.58" width="25.2" height="25.2" style="fill:rgb(125,223,255);"/>
                            <rect x="151.68" y="50.65" width="25.2" height="25.2" style="fill:rgb(125,223,255);"/>
                            <rect x="151.68" y="75.73" width="25.2" height="25.2" style="fill:rgb(125,223,255);"/>
                            <rect x="151.68" y="100.8" width="25.2" height="25.2" style="fill:rgb(125,223,255);"/>
                            <rect x="176.88" y="0.5" width="25.2" height="25.2" style="fill:rgb(125,223,255);"/>
                            <rect x="176.88" y="25.58" width="25.2" height="25.2" style="fill:rgb(125,223,255);"/>
                            <rect x="176.88" y="50.65" width="25.2" height="25.2" style="fill:rgb(125,223,255);"/>
                            <rect x="176.88" y="75.73" width="25.2" height="25.2" style="fill:rgb(125,223,255);"/>
                            <rect x="202.08" y="0.5" width="25.2" height="25.2" style="fill:rgb(125,223,255);"/>
                            <rect x="202.08" y="25.58" width="25.2" height="25.2" style="fill:rgb(125,223,255);"/>
                            <rect x="227.28" y="25.58" width="25.2" height="25.2" style="fill:rgb(125,223,255);"/>
                            <rect x="252.47" y="50.65" width="25.2" height="25.2" style="fill:rgb(125,223,255);"/>
                            <rect x="25.7" y="0.5" width="25.2" height="25.2" style="fill:rgb(125,223,255);"/>
                            <rect x="25.7" y="25.58" width="25.2" height="25.2" style="fill:rgb(125,223,255);"/>
                            <rect x="25.7" y="50.65" width="25.2" height="25.2" style="fill:rgb(125,223,255);"/>
                            <rect x="50.89" y="0.5" width="25.2" height="25.2" style="fill:rgb(125,223,255);"/>
                            <rect x="50.89" y="25.58" width="25.2" height="25.2" style="fill:rgb(125,223,255);"/>
                            <rect x="0.5" y="0.5" width="25.2" height="25.2" style="fill:rgb(125,223,255);"/>
                            <rect x="0.5" y="25.58" width="25.2" height="25.2" style="fill:rgb(125,223,255);"/>
                            <rect x="76.09" y="0.5" width="25.2" height="25.2" style="fill:rgb(125,223,255);"/>
                            <rect x="101.29" y="0.5" width="25.2" height="25.2" style="fill:rgb(125,223,255);"/>
                            <rect x="126.49" y="0.5" width="25.2" height="25.2" style="fill:rgb(125,223,255);"/>
                            <rect x="126.49" y="25.58" width="25.2" height="25.2" style="fill:rgb(125,223,255);"/>
                            <rect x="101.29" y="25.51" width="25.2" height="25.2" style="fill:rgb(125,223,255);"/>
                            <rect x="126.49" y="50.59" width="25.2" height="25.2" style="fill:rgb(125,223,255);"/>
                            <rect x="227.28" y="0.5" width="25.2" height="25.2" style="fill:none;stroke:white;stroke-width:1px;"/>
                            <rect x="252.47" y="0.5" width="25.2" height="25.2" style="fill:none;stroke:white;stroke-width:1px;"/>
                            <rect x="252.47" y="25.58" width="25.2" height="25.2" style="fill:none;stroke:white;stroke-width:1px;"/>
                            <rect x="277.67" y="0.5" width="25.2" height="25.2" style="fill:none;stroke:white;stroke-width:1px;"/>
                            <rect x="277.67" y="25.58" width="25.2" height="25.2" style="fill:none;stroke:white;stroke-width:1px;"/>
                            <rect x="302.87" y="0.5" width="25.2" height="25.2" style="fill:none;stroke:white;stroke-width:1px;"/>
                            <rect x="151.68" y="0.5" width="25.2" height="25.2" style="fill:none;stroke:white;stroke-width:1px;"/>
                            <rect x="151.68" y="25.58" width="25.2" height="25.2" style="fill:none;stroke:white;stroke-width:1px;"/>
                            <rect x="151.68" y="50.65" width="25.2" height="25.2" style="fill:none;stroke:white;stroke-width:1px;"/>
                            <rect x="151.68" y="75.73" width="25.2" height="25.2" style="fill:none;stroke:white;stroke-width:1px;"/>
                            <rect x="151.68" y="100.8" width="25.2" height="25.2" style="fill:none;stroke:white;stroke-width:1px;"/>
                            <rect x="176.88" y="0.5" width="25.2" height="25.2" style="fill:none;stroke:white;stroke-width:1px;"/>
                            <rect x="176.88" y="25.58" width="25.2" height="25.2" style="fill:none;stroke:white;stroke-width:1px;"/>
                            <rect x="176.88" y="50.65" width="25.2" height="25.2" style="fill:none;stroke:white;stroke-width:1px;"/>
                            <rect x="176.88" y="75.73" width="25.2" height="25.2" style="fill:none;stroke:white;stroke-width:1px;"/>
                            <rect x="202.08" y="0.5" width="25.2" height="25.2" style="fill:none;stroke:white;stroke-width:1px;"/>
                            <rect x="202.08" y="25.58" width="25.2" height="25.2" style="fill:none;stroke:white;stroke-width:1px;"/>
                            <rect x="227.28" y="25.58" width="25.2" height="25.2" style="fill:none;stroke:white;stroke-width:1px;"/>
                            <rect x="252.47" y="50.65" width="25.2" height="25.2" style="fill:none;stroke:white;stroke-width:1px;"/>
                            <rect x="25.7" y="0.5" width="25.2" height="25.2" style="fill:none;stroke:white;stroke-width:1px;"/>
                            <rect x="25.7" y="25.58" width="25.2" height="25.2" style="fill:none;stroke:white;stroke-width:1px;"/>
                            <rect x="25.7" y="50.65" width="25.2" height="25.2" style="fill:none;stroke:white;stroke-width:1px;"/>
                            <rect x="50.89" y="0.5" width="25.2" height="25.2" style="fill:none;stroke:white;stroke-width:1px;"/>
                            <rect x="50.89" y="25.58" width="25.2" height="25.2" style="fill:none;stroke:white;stroke-width:1px;"/>
                            <rect x="0.5" y="0.5" width="25.2" height="25.2" style="fill:none;stroke:white;stroke-width:1px;"/>
                            <rect x="0.5" y="25.58" width="25.2" height="25.2" style="fill:none;stroke:white;stroke-width:1px;"/>
                            <rect x="76.09" y="0.5" width="25.2" height="25.2" style="fill:none;stroke:white;stroke-width:1px;"/>
                            <rect x="101.29" y="0.5" width="25.2" height="25.2" style="fill:none;stroke:white;stroke-width:1px;"/>
                            <rect x="126.49" y="0.5" width="25.2" height="25.2" style="fill:none;stroke:white;stroke-width:1px;"/>
                            <rect x="126.49" y="25.58" width="25.2" height="25.2" style="fill:none;stroke:white;stroke-width:1px;"/>
                            <rect x="101.29" y="25.51" width="25.2" height="25.2" style="fill:none;stroke:white;stroke-width:1px;"/>
                            <rect x="126.49" y="50.59" width="25.2" height="25.2" style="fill:none;stroke:white;stroke-width:1px;"/>
                            <path d="M328.07,0.5L0.5,0.5L0.5,50.77L25.7,50.77L25.7,75.85L50.9,75.85L50.9,50.77L76.09,50.77L76.09,25.7L101.29,25.7L101.29,50.71L126.49,50.71L126.49,75.79L151.68,75.79L151.68,126L176.88,126L176.88,100.92L202.08,100.92L202.08,50.77L252.47,50.77L252.47,75.85L277.67,75.85L277.67,50.77L302.87,50.77L302.87,25.7L328.07,25.7L328.07,0.5Z" style="fill:url(#_Linear4);fill-rule:nonzero;"/>
                        </g>
                    </g>
                </g>
            </g>
        </g>
    </g>
    <defs>
        <linearGradient id="_Linear1" x1="0" y1="0" x2="1" y2="0" gradientUnits="userSpaceOnUse" gradientTransform="matrix(9.202e-15,150.28,-150.28,9.202e-15,151.68,0.5)"><stop offset="0" style="stop-color:rgb(125,223,255);stop-opacity:1"/><stop offset="1" style="stop-color:rgb(125,223,255);stop-opacity:0"/></linearGradient>
        <linearGradient id="_Linear2" x1="0" y1="0" x2="1" y2="0" gradientUnits="userSpaceOnUse" gradientTransform="matrix(2.31891e-13,3787.06,-3787.06,2.31891e-13,3631.56,138.48)"><stop offset="0" style="stop-color:rgb(125,223,255);stop-opacity:1"/><stop offset="1" style="stop-color:rgb(125,223,255);stop-opacity:0"/></linearGradient>
        <linearGradient id="_Linear3" x1="0" y1="0" x2="1" y2="0" gradientUnits="userSpaceOnUse" gradientTransform="matrix(2.31891e-13,3787.06,-3787.06,2.31891e-13,1650.84,88.33)"><stop offset="0" style="stop-color:rgb(125,223,255);stop-opacity:1"/><stop offset="1" style="stop-color:rgb(125,223,255);stop-opacity:0"/></linearGradient>
        <linearGradient id="_Linear4" x1="0" y1="0" x2="1" y2="0" gradientUnits="userSpaceOnUse" gradientTransform="matrix(7.58791e-15,123.92,-123.92,7.58791e-15,164.28,2.77)"><stop offset="0" style="stop-color:rgb(125,223,255);stop-opacity:1"/><stop offset="1" style="stop-color:rgb(125,223,255);stop-opacity:0"/></linearGradient>
    </defs>
</svg>
