<svg xmlns="http://www.w3.org/2000/svg" xmlns:xlink="http://www.w3.org/1999/xlink" viewBox="0 0 1015.74 594.83"><defs><style>.cls-1{fill:#7ddfff;}.cls-2{fill:none;stroke:#fff;stroke-miterlimit:10;stroke-width:0.53px;}.cls-3{fill:url(#Gradiente_sem_nome_15);}.cls-4{fill:url(#Gradiente_sem_nome_15-2);}.cls-5{fill:url(#Gradiente_sem_nome_15-3);}.cls-6{fill:url(#Gradiente_sem_nome_15-4);}.cls-7{opacity:0.3;}.cls-8{fill:#fff;}</style><linearGradient id="Gradiente_sem_nome_15" x1="928.92" y1="516.19" x2="928.92" y2="581.68" gradientUnits="userSpaceOnUse"><stop offset="0" stop-color="#7ddfff"/><stop offset="1" stop-color="#7ddfff" stop-opacity="0"/></linearGradient><linearGradient id="Gradiente_sem_nome_15-2" x1="80.16" y1="514.99" x2="80.16" y2="594.41" xlink:href="#Gradiente_sem_nome_15"/><linearGradient id="Gradiente_sem_nome_15-3" x1="73.51" y1="514.99" x2="73.51" y2="594.41" xlink:href="#Gradiente_sem_nome_15"/><linearGradient id="Gradiente_sem_nome_15-4" x1="33.56" y1="514.99" x2="33.56" y2="594.41" xlink:href="#Gradiente_sem_nome_15"/></defs><g id="Camada_2" data-name="Camada 2"><g id="Camada_1-2" data-name="Camada 1"><rect class="cls-1" x="962.21" y="514.99" width="13.32" height="13.32"/><rect class="cls-1" x="975.53" y="514.99" width="13.32" height="13.32"/><rect class="cls-1" x="975.53" y="528.24" width="13.32" height="13.32"/><rect class="cls-1" x="988.85" y="514.99" width="13.32" height="13.32"/><rect class="cls-1" x="988.85" y="528.24" width="13.32" height="13.32"/><rect class="cls-1" x="1002.16" y="514.99" width="13.32" height="13.32"/><rect class="cls-1" x="922.26" y="514.99" width="13.32" height="13.32"/><rect class="cls-1" x="922.26" y="528.24" width="13.32" height="13.32"/><rect class="cls-1" x="922.26" y="541.49" width="13.32" height="13.32"/><rect class="cls-1" x="922.26" y="554.74" width="13.32" height="13.32"/><rect class="cls-1" x="922.26" y="568" width="13.32" height="13.32"/><rect class="cls-1" x="935.58" y="514.99" width="13.32" height="13.32"/><rect class="cls-1" x="935.58" y="528.24" width="13.32" height="13.32"/><rect class="cls-1" x="935.58" y="541.49" width="13.32" height="13.32"/><rect class="cls-1" x="935.58" y="554.74" width="13.32" height="13.32"/><rect class="cls-1" x="948.9" y="514.99" width="13.32" height="13.32"/><rect class="cls-1" x="948.9" y="528.24" width="13.32" height="13.32"/><rect class="cls-1" x="962.21" y="528.24" width="13.32" height="13.32"/><rect class="cls-1" x="975.53" y="541.49" width="13.32" height="13.32"/><rect class="cls-1" x="855.68" y="514.99" width="13.32" height="13.32"/><rect class="cls-1" x="855.68" y="528.24" width="13.32" height="13.32"/><rect class="cls-1" x="855.68" y="541.49" width="13.32" height="13.32"/><rect class="cls-1" x="869" y="514.99" width="13.32" height="13.32"/><rect class="cls-1" x="869" y="528.24" width="13.32" height="13.32"/><rect class="cls-1" x="842.36" y="514.99" width="13.32" height="13.32"/><rect class="cls-1" x="842.36" y="528.24" width="13.32" height="13.32"/><rect class="cls-1" x="882.31" y="514.99" width="13.32" height="13.32"/><rect class="cls-1" x="895.63" y="514.99" width="13.32" height="13.32"/><rect class="cls-1" x="908.95" y="514.99" width="13.32" height="13.32"/><rect class="cls-1" x="908.95" y="528.24" width="13.32" height="13.32"/><rect class="cls-1" x="895.63" y="528.21" width="13.32" height="13.32"/><rect class="cls-1" x="908.95" y="541.46" width="13.32" height="13.32"/><rect class="cls-2" x="962.21" y="514.99" width="13.32" height="13.32"/><rect class="cls-2" x="975.53" y="514.99" width="13.32" height="13.32"/><rect class="cls-2" x="975.53" y="528.24" width="13.32" height="13.32"/><rect class="cls-2" x="988.85" y="514.99" width="13.32" height="13.32"/><rect class="cls-2" x="988.85" y="528.24" width="13.32" height="13.32"/><rect class="cls-2" x="1002.16" y="514.99" width="13.32" height="13.32"/><rect class="cls-2" x="922.26" y="514.99" width="13.32" height="13.32"/><rect class="cls-2" x="922.26" y="528.24" width="13.32" height="13.32"/><rect class="cls-2" x="922.26" y="541.49" width="13.32" height="13.32"/><rect class="cls-2" x="922.26" y="554.74" width="13.32" height="13.32"/><rect class="cls-2" x="922.26" y="568" width="13.32" height="13.32"/><rect class="cls-2" x="935.58" y="514.99" width="13.32" height="13.32"/><rect class="cls-2" x="935.58" y="528.24" width="13.32" height="13.32"/><rect class="cls-2" x="935.58" y="541.49" width="13.32" height="13.32"/><rect class="cls-2" x="935.58" y="554.74" width="13.32" height="13.32"/><rect class="cls-2" x="948.9" y="514.99" width="13.32" height="13.32"/><rect class="cls-2" x="948.9" y="528.24" width="13.32" height="13.32"/><rect class="cls-2" x="962.21" y="528.24" width="13.32" height="13.32"/><rect class="cls-2" x="975.53" y="541.49" width="13.32" height="13.32"/><rect class="cls-2" x="855.68" y="514.99" width="13.32" height="13.32"/><rect class="cls-2" x="855.68" y="528.24" width="13.32" height="13.32"/><rect class="cls-2" x="855.68" y="541.49" width="13.32" height="13.32"/><rect class="cls-2" x="869" y="514.99" width="13.32" height="13.32"/><rect class="cls-2" x="869" y="528.24" width="13.32" height="13.32"/><rect class="cls-2" x="842.36" y="514.99" width="13.32" height="13.32"/><rect class="cls-2" x="842.36" y="528.24" width="13.32" height="13.32"/><rect class="cls-2" x="882.31" y="514.99" width="13.32" height="13.32"/><rect class="cls-2" x="895.63" y="514.99" width="13.32" height="13.32"/><rect class="cls-2" x="908.95" y="514.99" width="13.32" height="13.32"/><rect class="cls-2" x="908.95" y="528.24" width="13.32" height="13.32"/><rect class="cls-2" x="895.63" y="528.21" width="13.32" height="13.32"/><rect class="cls-2" x="908.95" y="541.46" width="13.32" height="13.32"/><polygon class="cls-3" points="1002.16 514.99 988.85 514.99 975.53 514.99 962.21 514.99 948.9 514.99 935.58 514.99 922.26 514.99 908.95 514.99 895.63 514.99 882.31 514.99 869 514.99 855.68 514.99 842.36 514.99 842.36 528.24 842.36 528.3 842.36 541.56 855.68 541.56 855.68 554.81 869 554.81 869 541.56 882.31 541.56 882.31 528.3 895.63 528.3 895.63 541.52 908.95 541.52 908.95 541.56 908.95 554.78 922.26 554.78 922.26 554.81 922.26 568 922.26 568.06 922.26 581.31 935.58 581.31 935.58 568.06 948.9 568.06 948.9 554.81 948.9 554.75 948.9 541.56 962.21 541.56 975.53 541.56 975.53 554.81 988.85 554.81 988.85 541.56 1002.16 541.56 1002.16 528.3 1015.48 528.3 1015.48 514.99 1002.16 514.99"/><rect class="cls-1" x="106.8" y="514.99" width="13.32" height="13.32"/><rect class="cls-1" x="106.8" y="528.24" width="13.32" height="13.32"/><rect class="cls-1" x="120.11" y="514.99" width="13.32" height="13.32"/><rect class="cls-1" x="120.11" y="528.24" width="13.32" height="13.32"/><rect class="cls-1" x="133.43" y="514.99" width="13.32" height="13.32"/><rect class="cls-1" x="133.43" y="528.24" width="13.32" height="13.32"/><rect class="cls-1" x="146.75" y="514.99" width="13.32" height="13.32"/><rect class="cls-1" x="146.75" y="528.24" width="13.32" height="13.32"/><rect class="cls-1" x="66.85" y="514.99" width="13.32" height="13.32"/><rect class="cls-1" x="66.85" y="528.24" width="13.32" height="13.32"/><rect class="cls-1" x="66.85" y="541.49" width="13.32" height="13.32"/><rect class="cls-1" x="66.85" y="554.74" width="13.32" height="13.32"/><rect class="cls-1" x="66.85" y="581.25" width="13.32" height="13.32"/><rect class="cls-1" x="80.16" y="514.99" width="13.32" height="13.32"/><rect class="cls-1" x="80.16" y="528.24" width="13.32" height="13.32"/><rect class="cls-1" x="80.16" y="541.49" width="13.32" height="13.32"/><rect class="cls-1" x="80.16" y="554.74" width="13.32" height="13.32"/><rect class="cls-1" x="93.48" y="514.99" width="13.32" height="13.32"/><rect class="cls-1" x="93.48" y="528.24" width="13.32" height="13.32"/><rect class="cls-1" x="93.48" y="541.49" width="13.32" height="13.32"/><rect class="cls-1" x="120.11" y="541.49" width="13.32" height="13.32"/><rect class="cls-1" x="133.43" y="541.49" width="13.32" height="13.32"/><rect class="cls-1" x="133.43" y="554.74" width="13.32" height="13.32"/><rect class="cls-1" x="0.26" y="514.99" width="13.32" height="13.32"/><rect class="cls-1" x="0.26" y="528.24" width="13.32" height="13.32"/><rect class="cls-1" x="0.26" y="541.49" width="13.32" height="13.32"/><rect class="cls-1" x="13.58" y="514.99" width="13.32" height="13.32"/><rect class="cls-1" x="13.58" y="528.24" width="13.32" height="13.32"/><rect class="cls-1" x="26.9" y="514.99" width="13.32" height="13.32"/><rect class="cls-1" x="26.9" y="528.24" width="13.32" height="13.32"/><rect class="cls-1" x="26.9" y="554.74" width="13.32" height="13.32"/><rect class="cls-1" x="40.21" y="514.99" width="13.32" height="13.32"/><rect class="cls-1" x="53.53" y="514.99" width="13.32" height="13.32"/><rect class="cls-1" x="53.53" y="528.24" width="13.32" height="13.32"/><rect class="cls-1" x="26.9" y="554.74" width="13.32" height="13.32"/><rect class="cls-2" x="106.8" y="514.99" width="13.32" height="13.32"/><rect class="cls-2" x="106.8" y="528.24" width="13.32" height="13.32"/><rect class="cls-2" x="120.11" y="514.99" width="13.32" height="13.32"/><rect class="cls-2" x="120.11" y="528.24" width="13.32" height="13.32"/><rect class="cls-2" x="133.43" y="514.99" width="13.32" height="13.32"/><rect class="cls-2" x="133.43" y="528.24" width="13.32" height="13.32"/><rect class="cls-2" x="146.75" y="514.99" width="13.32" height="13.32"/><rect class="cls-2" x="146.75" y="528.24" width="13.32" height="13.32"/><rect class="cls-2" x="66.85" y="514.99" width="13.32" height="13.32"/><rect class="cls-2" x="66.85" y="528.24" width="13.32" height="13.32"/><rect class="cls-2" x="66.85" y="541.49" width="13.32" height="13.32"/><rect class="cls-2" x="66.85" y="554.74" width="13.32" height="13.32"/><rect class="cls-2" x="66.85" y="581.25" width="13.32" height="13.32"/><rect class="cls-2" x="80.16" y="514.99" width="13.32" height="13.32"/><rect class="cls-2" x="80.16" y="528.24" width="13.32" height="13.32"/><rect class="cls-2" x="80.16" y="541.49" width="13.32" height="13.32"/><rect class="cls-2" x="80.16" y="554.74" width="13.32" height="13.32"/><rect class="cls-2" x="93.48" y="514.99" width="13.32" height="13.32"/><rect class="cls-2" x="93.48" y="528.24" width="13.32" height="13.32"/><rect class="cls-2" x="93.48" y="541.49" width="13.32" height="13.32"/><rect class="cls-2" x="120.11" y="541.49" width="13.32" height="13.32"/><rect class="cls-2" x="133.43" y="541.49" width="13.32" height="13.32"/><rect class="cls-2" x="133.43" y="554.74" width="13.32" height="13.32"/><rect class="cls-2" x="0.26" y="514.99" width="13.32" height="13.32"/><rect class="cls-2" x="0.26" y="528.24" width="13.32" height="13.32"/><rect class="cls-2" x="0.26" y="541.49" width="13.32" height="13.32"/><rect class="cls-2" x="13.58" y="514.99" width="13.32" height="13.32"/><rect class="cls-2" x="13.58" y="528.24" width="13.32" height="13.32"/><rect class="cls-2" x="26.9" y="514.99" width="13.32" height="13.32"/><rect class="cls-2" x="26.9" y="528.24" width="13.32" height="13.32"/><rect class="cls-2" x="26.9" y="554.74" width="13.32" height="13.32"/><rect class="cls-2" x="40.21" y="514.99" width="13.32" height="13.32"/><rect class="cls-2" x="53.53" y="514.99" width="13.32" height="13.32"/><rect class="cls-2" x="53.53" y="528.24" width="13.32" height="13.32"/><rect class="cls-2" x="26.9" y="554.74" width="13.32" height="13.32"/><polygon class="cls-4" points="146.75 514.99 133.43 514.99 120.11 514.99 106.8 514.99 93.48 514.99 80.16 514.99 66.85 514.99 53.53 514.99 40.21 514.99 26.9 514.99 13.58 514.99 0.26 514.99 0.26 528.24 0.26 528.3 0.26 541.49 0.26 541.56 0.26 554.81 13.58 554.81 13.58 541.56 26.9 541.56 40.21 541.56 40.21 528.3 53.53 528.3 53.53 541.56 66.85 541.56 66.85 554.75 66.85 554.81 66.85 568.06 80.16 568.06 93.48 568.06 93.48 554.81 106.8 554.81 106.8 541.56 120.11 541.56 120.11 554.81 133.43 554.81 133.43 568.06 146.75 568.06 146.75 554.81 146.75 554.75 146.75 541.56 160.06 541.56 160.06 528.3 160.06 528.24 160.06 514.99 146.75 514.99"/><rect class="cls-5" x="66.85" y="581.25" width="13.32" height="13.32"/><rect class="cls-6" x="26.9" y="554.74" width="13.32" height="13.32"/><rect class="cls-1" x="0.26" width="1015.22" height="514.99"/><g class="cls-7"><rect class="cls-8" x="803.53" y="14.17" width="22.75" height="22.75"/><rect class="cls-8" x="871.77" y="14.17" width="22.75" height="22.75"/><rect class="cls-8" x="849.02" y="14.17" width="22.75" height="22.75"/><rect class="cls-8" x="803.53" y="36.92" width="22.75" height="22.75"/><rect class="cls-8" x="780.78" y="36.92" width="22.75" height="22.75"/><rect class="cls-8" x="894.52" y="36.92" width="22.75" height="22.75"/><rect class="cls-8" x="871.77" y="36.92" width="22.75" height="22.75"/><rect class="cls-8" x="849.02" y="36.92" width="22.75" height="22.75"/><rect class="cls-8" x="826.28" y="36.92" width="22.75" height="22.75"/><rect class="cls-8" x="826.28" y="59.66" width="22.75" height="22.75"/><rect class="cls-8" x="803.53" y="59.66" width="22.75" height="22.75"/><rect class="cls-8" x="780.78" y="59.66" width="22.75" height="22.75"/><rect class="cls-8" x="894.52" y="59.66" width="22.75" height="22.75"/><rect class="cls-8" x="871.77" y="59.66" width="22.75" height="22.75"/><rect class="cls-8" x="849.02" y="59.66" width="22.75" height="22.75"/><rect class="cls-8" x="826.28" y="59.66" width="22.75" height="22.75"/><rect class="cls-8" x="826.28" y="82.41" width="22.75" height="22.75"/><rect class="cls-8" x="803.53" y="82.41" width="22.75" height="22.75"/><rect class="cls-8" x="871.77" y="82.41" width="22.75" height="22.75"/><rect class="cls-8" x="849.02" y="82.41" width="22.75" height="22.75"/><rect class="cls-8" x="826.28" y="82.41" width="22.75" height="22.75"/></g><g class="cls-7"><rect class="cls-8" x="201.42" y="20.78" width="22.75" height="22.75"/><rect class="cls-8" x="178.68" y="20.78" width="22.75" height="22.75"/><rect class="cls-8" x="224.17" y="43.53" width="22.75" height="22.75"/><rect class="cls-8" x="201.42" y="43.53" width="22.75" height="22.75"/><rect class="cls-8" x="178.68" y="43.53" width="22.75" height="22.75"/><rect class="cls-8" x="178.68" y="66.28" width="22.75" height="22.75"/></g><g class="cls-7"><rect class="cls-8" x="133.1" y="66.36" width="22.75" height="22.75" transform="translate(288.94 155.47) rotate(180)"/><rect class="cls-8" x="155.85" y="66.36" width="22.75" height="22.75" transform="translate(334.44 155.47) rotate(180)"/><rect class="cls-8" x="110.35" y="43.62" width="22.75" height="22.75" transform="translate(243.45 109.98) rotate(180)"/><rect class="cls-8" x="133.1" y="43.62" width="22.75" height="22.75" transform="translate(288.94 109.98) rotate(180)"/><rect class="cls-8" x="155.85" y="43.62" width="22.75" height="22.75" transform="translate(334.44 109.98) rotate(180)"/><rect class="cls-8" x="155.85" y="20.87" width="22.75" height="22.75" transform="translate(334.44 64.48) rotate(180)"/></g><g class="cls-7"><rect class="cls-8" x="498.1" y="59.15" width="13.11" height="13.11" transform="translate(1009.31 131.41) rotate(180)"/><rect class="cls-8" x="511.21" y="59.15" width="13.11" height="13.11" transform="translate(1035.53 131.41) rotate(180)"/><rect class="cls-8" x="537.43" y="46.04" width="13.11" height="13.11" transform="translate(1087.97 105.19) rotate(180)"/><rect class="cls-8" x="484.99" y="46.04" width="13.11" height="13.11" transform="translate(983.09 105.19) rotate(180)"/><rect class="cls-8" x="498.1" y="46.04" width="13.11" height="13.11" transform="translate(1009.31 105.19) rotate(180)"/><rect class="cls-8" x="511.21" y="46.04" width="13.11" height="13.11" transform="translate(1035.53 105.19) rotate(180)"/><rect class="cls-8" x="524.32" y="46.04" width="13.11" height="13.11" transform="translate(1061.75 105.19) rotate(180)"/><rect class="cls-8" x="524.32" y="32.93" width="13.11" height="13.11" transform="translate(1061.75 78.97) rotate(180)"/><rect class="cls-8" x="537.43" y="32.93" width="13.11" height="13.11" transform="translate(1087.97 78.97) rotate(180)"/><rect class="cls-8" x="550.54" y="32.93" width="13.11" height="13.11" transform="translate(1114.2 78.97) rotate(180)"/><rect class="cls-8" x="498.1" y="32.93" width="13.11" height="13.11" transform="translate(1009.31 78.97) rotate(180)"/><rect class="cls-8" x="511.21" y="32.93" width="13.11" height="13.11" transform="translate(1035.53 78.97) rotate(180)"/><rect class="cls-8" x="524.32" y="32.93" width="13.11" height="13.11" transform="translate(1061.75 78.97) rotate(180)"/><rect class="cls-8" x="537.43" y="19.82" width="13.11" height="13.11" transform="translate(1087.97 52.75) rotate(180)"/><rect class="cls-8" x="511.21" y="19.82" width="13.11" height="13.11" transform="translate(1035.53 52.75) rotate(180)"/></g><g class="cls-7"><rect class="cls-8" x="934.49" y="304.81" width="24.35" height="24.35"/><rect class="cls-8" x="910.14" y="304.81" width="24.35" height="24.35"/><rect class="cls-8" x="958.83" y="329.16" width="24.35" height="24.35"/><rect class="cls-8" x="934.49" y="329.16" width="24.35" height="24.35"/><rect class="cls-8" x="910.14" y="329.16" width="24.35" height="24.35"/><rect class="cls-8" x="910.14" y="353.5" width="24.35" height="24.35"/></g><g class="cls-7"><rect class="cls-8" x="861.36" y="353.6" width="24.35" height="24.35" transform="translate(1747.06 731.54) rotate(180)"/><rect class="cls-8" x="885.7" y="353.6" width="24.35" height="24.35" transform="translate(1795.75 731.54) rotate(180)"/><rect class="cls-8" x="837.01" y="329.25" width="24.35" height="24.35" transform="translate(1698.36 682.85) rotate(180)"/><rect class="cls-8" x="861.36" y="329.25" width="24.35" height="24.35" transform="translate(1747.06 682.85) rotate(180)"/><rect class="cls-8" x="885.7" y="329.25" width="24.35" height="24.35" transform="translate(1795.75 682.85) rotate(180)"/><rect class="cls-8" x="885.7" y="304.9" width="24.35" height="24.35" transform="translate(1795.75 634.15) rotate(180)"/></g><g class="cls-7"><rect class="cls-8" x="84.68" y="320.56" width="16.94" height="16.94"/><rect class="cls-8" x="135.51" y="320.56" width="16.94" height="16.94"/><rect class="cls-8" x="118.57" y="320.56" width="16.94" height="16.94"/><rect class="cls-8" x="84.68" y="337.51" width="16.94" height="16.94"/><rect class="cls-8" x="67.74" y="337.51" width="16.94" height="16.94"/><rect class="cls-8" x="152.46" y="337.51" width="16.94" height="16.94"/><rect class="cls-8" x="135.51" y="337.51" width="16.94" height="16.94"/><rect class="cls-8" x="118.57" y="337.51" width="16.94" height="16.94"/><rect class="cls-8" x="101.62" y="337.51" width="16.94" height="16.94"/><rect class="cls-8" x="101.62" y="354.45" width="16.94" height="16.94"/><rect class="cls-8" x="84.68" y="354.45" width="16.94" height="16.94"/><rect class="cls-8" x="67.74" y="354.45" width="16.94" height="16.94"/><rect class="cls-8" x="152.46" y="354.45" width="16.94" height="16.94"/><rect class="cls-8" x="135.51" y="354.45" width="16.94" height="16.94"/><rect class="cls-8" x="118.57" y="354.45" width="16.94" height="16.94"/><rect class="cls-8" x="101.62" y="354.45" width="16.94" height="16.94"/><rect class="cls-8" x="101.62" y="371.4" width="16.94" height="16.94"/><rect class="cls-8" x="84.68" y="371.4" width="16.94" height="16.94"/><rect class="cls-8" x="135.51" y="371.4" width="16.94" height="16.94"/><rect class="cls-8" x="118.57" y="371.4" width="16.94" height="16.94"/><rect class="cls-8" x="101.62" y="371.4" width="16.94" height="16.94"/></g><g class="cls-7"><rect class="cls-8" x="481.82" y="368.91" width="13.07" height="13.07" transform="translate(976.72 750.9) rotate(180)"/><rect class="cls-8" x="494.89" y="368.91" width="13.07" height="13.07" transform="translate(1002.86 750.9) rotate(180)"/><rect class="cls-8" x="521.04" y="355.84" width="13.07" height="13.07" transform="translate(1055.16 724.75) rotate(180)"/><rect class="cls-8" x="468.75" y="355.84" width="13.07" height="13.07" transform="translate(950.57 724.75) rotate(180)"/><rect class="cls-8" x="481.82" y="355.84" width="13.07" height="13.07" transform="translate(976.72 724.75) rotate(180)"/><rect class="cls-8" x="494.89" y="355.84" width="13.07" height="13.07" transform="translate(1002.86 724.75) rotate(180)"/><rect class="cls-8" x="507.97" y="355.84" width="13.07" height="13.07" transform="translate(1029.01 724.75) rotate(180)"/><rect class="cls-8" x="507.97" y="342.77" width="13.07" height="13.07" transform="translate(1029.01 698.61) rotate(180)"/><rect class="cls-8" x="521.04" y="342.77" width="13.07" height="13.07" transform="translate(1055.16 698.61) rotate(180)"/><rect class="cls-8" x="534.12" y="342.77" width="13.07" height="13.07" transform="translate(1081.31 698.61) rotate(180)"/><rect class="cls-8" x="481.82" y="342.77" width="13.07" height="13.07" transform="translate(976.72 698.61) rotate(180)"/><rect class="cls-8" x="494.89" y="342.77" width="13.07" height="13.07" transform="translate(1002.86 698.61) rotate(180)"/><rect class="cls-8" x="507.97" y="342.77" width="13.07" height="13.07" transform="translate(1029.01 698.61) rotate(180)"/><rect class="cls-8" x="521.04" y="329.69" width="13.07" height="13.07" transform="translate(1055.16 672.46) rotate(180)"/><rect class="cls-8" x="494.89" y="329.69" width="13.07" height="13.07" transform="translate(1002.86 672.46) rotate(180)"/></g></g></g></svg>