<?xml version="1.0" encoding="UTF-8" standalone="no"?>
<!DOCTYPE svg PUBLIC "-//W3C//DTD SVG 1.1//EN" "http://www.w3.org/Graphics/SVG/1.1/DTD/svg11.dtd">
<svg width="100%" height="100%" viewBox="0 0 1831 106" version="1.1" xmlns="http://www.w3.org/2000/svg" xmlns:xlink="http://www.w3.org/1999/xlink" xml:space="preserve" xmlns:serif="http://www.serif.com/" style="fill-rule:evenodd;clip-rule:evenodd;stroke-miterlimit:10;">
    <g id="Camada_2">
        <g id="Camada_1-2">
            <g transform="matrix(1,0,0,1,0,3.06)">
                <g transform="matrix(-1,-7.65714e-16,7.65714e-16,-1,3635.37,175.74)">
                    <rect x="1805.08" y="75.27" width="25.2" height="25.2" style="stroke:white;stroke-width:1px;"/>
                </g>
                <g transform="matrix(-1,-7.65714e-16,7.65714e-16,-1,3383.39,175.65)">
                    <rect x="1679.1" y="75.23" width="25.2" height="25.2" style="stroke:white;stroke-width:1px;"/>
                </g>
                <g transform="matrix(-1,-7.65714e-16,7.65714e-16,-1,3433.79,176.65)">
                    <rect x="1704.29" y="75.73" width="25.2" height="25.2" style="stroke:white;stroke-width:1px;"/>
                </g>
                <g transform="matrix(-1,-7.65714e-16,7.65714e-16,-1,3383.39,176.65)">
                    <rect x="1679.1" y="75.73" width="25.2" height="25.2" style="stroke:white;stroke-width:1px;"/>
                </g>
                <g transform="matrix(-1,-7.65714e-16,7.65714e-16,-1,3484.18,175.65)">
                    <rect x="1729.49" y="75.23" width="25.2" height="25.2" style="stroke:white;stroke-width:1px;"/>
                </g>
                <g transform="matrix(-1,-7.65714e-16,7.65714e-16,-1,3232.21,175.65)">
                    <rect x="1603.51" y="75.23" width="25.2" height="25.2" style="stroke:white;stroke-width:1px;"/>
                </g>
                <g transform="matrix(-1,-7.65714e-16,7.65714e-16,-1,3282.6,175.65)">
                    <rect x="1628.7" y="75.23" width="25.2" height="25.2" style="stroke:white;stroke-width:1px;"/>
                </g>
                <g transform="matrix(-1,-7.65714e-16,7.65714e-16,-1,3433.79,126.5)">
                    <rect x="1704.29" y="50.65" width="25.2" height="25.2" style="stroke:white;stroke-width:1px;"/>
                </g>
                <g transform="matrix(-1,-7.65714e-16,7.65714e-16,-1,3433.79,26.2)">
                    <rect x="1704.29" y="0.5" width="25.2" height="25.2" style="stroke:white;stroke-width:1px;"/>
                </g>
                <g transform="matrix(-1,-7.65714e-16,7.65714e-16,-1,3232.21,125.17)">
                    <rect x="1603.51" y="49.98" width="25.2" height="25.2" style="stroke:white;stroke-width:1px;"/>
                </g>
                <rect x="1805.08" y="76.74" width="25.2" height="25.2" style="fill:url(#_Linear1);"/>
                <path d="M1603.51,76.69L1603.51,101.89L1653.9,101.89L1653.9,76.69L1603.51,76.69Z" style="fill:url(#_Linear2);fill-rule:nonzero;"/>
                <path d="M1729.49,52.12L1704.3,52.12L1704.3,76.69L1679.1,76.69L1679.1,102.39L1729.49,102.39L1729.49,101.89L1754.69,101.89L1754.69,76.69L1729.49,76.69L1729.49,52.12Z" style="fill:url(#_Linear3);fill-rule:nonzero;"/>
                <rect x="1704.29" y="1.97" width="25.2" height="25.2" style="fill:url(#_Linear4);"/>
                <rect x="1603.51" y="51.45" width="25.2" height="25.2" style="fill:url(#_Linear5);"/>
                <g transform="matrix(-1,-7.65714e-16,7.65714e-16,-1,3635.37,178.18)">
                    <rect x="1805.08" y="76.49" width="25.2" height="25.2" style="stroke:white;stroke-width:1px;"/>
                </g>
                <g transform="matrix(-1,-7.65714e-16,7.65714e-16,-1,3383.39,178.09)">
                    <rect x="1679.1" y="76.45" width="25.2" height="25.2" style="stroke:white;stroke-width:1px;"/>
                </g>
                <g transform="matrix(-1,-7.65714e-16,7.65714e-16,-1,3433.79,179.09)">
                    <rect x="1704.29" y="76.95" width="25.2" height="25.2" style="stroke:white;stroke-width:1px;"/>
                </g>
                <g transform="matrix(-1,-7.65714e-16,7.65714e-16,-1,3383.39,179.09)">
                    <rect x="1679.1" y="76.95" width="25.2" height="25.2" style="stroke:white;stroke-width:1px;"/>
                </g>
                <g transform="matrix(-1,-7.65714e-16,7.65714e-16,-1,3484.18,178.09)">
                    <rect x="1729.49" y="76.45" width="25.2" height="25.2" style="stroke:white;stroke-width:1px;"/>
                </g>
                <g transform="matrix(-1,-7.65714e-16,7.65714e-16,-1,3232.21,178.09)">
                    <rect x="1603.51" y="76.45" width="25.2" height="25.2" style="stroke:white;stroke-width:1px;"/>
                </g>
                <g transform="matrix(-1,-7.65714e-16,7.65714e-16,-1,3282.6,178.09)">
                    <rect x="1628.7" y="76.45" width="25.2" height="25.2" style="stroke:white;stroke-width:1px;"/>
                </g>
                <g transform="matrix(-1,-7.65714e-16,7.65714e-16,-1,3433.79,128.94)">
                    <rect x="1704.29" y="51.87" width="25.2" height="25.2" style="stroke:white;stroke-width:1px;"/>
                </g>
                <g transform="matrix(-1,-7.65714e-16,7.65714e-16,-1,3433.79,28.63)">
                    <rect x="1704.29" y="1.72" width="25.2" height="25.2" style="stroke:white;stroke-width:1px;"/>
                </g>
                <g transform="matrix(-1,-7.65714e-16,7.65714e-16,-1,3232.21,127.6)">
                    <rect x="1603.51" y="51.2" width="25.2" height="25.2" style="stroke:white;stroke-width:1px;"/>
                </g>
                <rect x="1805.08" y="76.49" width="25.2" height="25.2" style="fill:rgb(9,197,107);"/>
                <path d="M1603.51,76.44L1603.51,101.64L1653.9,101.64L1653.9,76.44L1603.51,76.44Z" style="fill:url(#_Linear6);fill-rule:nonzero;"/>
                <path d="M1729.49,51.87L1704.3,51.87L1704.3,76.44L1679.1,76.44L1679.1,102.14L1729.49,102.14L1729.49,101.64L1754.69,101.64L1754.69,76.44L1729.49,76.44L1729.49,51.87Z" style="fill:url(#_Linear7);fill-rule:nonzero;"/>
                <rect x="1704.29" y="1.72" width="25.2" height="25.2" style="fill:url(#_Linear8);"/>
                <rect x="1603.51" y="51.2" width="25.2" height="25.2" style="fill:url(#_Linear9);"/>
                <g transform="matrix(-1,-7.65714e-16,7.65714e-16,-1,3383.39,178.09)">
                    <rect x="1679.1" y="76.45" width="25.2" height="25.2"/>
                </g>
                <g transform="matrix(-1,-7.65714e-16,7.65714e-16,-1,3433.79,128.94)">
                    <rect x="1704.29" y="51.87" width="25.2" height="25.2"/>
                </g>
            </g>
            <g transform="matrix(1,0,0,1,0,0.25)">
                <g transform="matrix(-1,-7.65714e-16,7.65714e-16,-1,227.78,182.28)">
                    <rect x="101.29" y="78.54" width="25.2" height="25.2" style="stroke:white;stroke-width:1px;"/>
                </g>
                <g transform="matrix(-1,-7.65714e-16,7.65714e-16,-1,278.17,182.28)">
                    <rect x="126.49" y="78.54" width="25.2" height="25.2" style="stroke:white;stroke-width:1px;"/>
                </g>
                <g transform="matrix(-1,-7.65714e-16,7.65714e-16,-1,328.57,182.28)">
                    <rect x="151.68" y="78.54" width="25.2" height="25.2" style="stroke:white;stroke-width:1px;"/>
                </g>
                <g transform="matrix(-1,-7.65714e-16,7.65714e-16,-1,378.96,182.28)">
                    <rect x="176.88" y="78.54" width="25.2" height="25.2" style="stroke:white;stroke-width:1px;"/>
                </g>
                <g transform="matrix(-1,-7.65714e-16,7.65714e-16,-1,429.36,182.28)">
                    <rect x="202.08" y="78.54" width="25.2" height="25.2" style="stroke:white;stroke-width:1px;"/>
                </g>
                <g transform="matrix(-1,-7.65714e-16,7.65714e-16,-1,479.75,182.28)">
                    <rect x="227.28" y="78.54" width="25.2" height="25.2" style="stroke:white;stroke-width:1px;"/>
                </g>
                <g transform="matrix(-1,-7.65714e-16,7.65714e-16,-1,479.75,131.79)">
                    <rect x="227.28" y="53.3" width="25.2" height="25.2" style="stroke:white;stroke-width:1px;"/>
                </g>
                <g transform="matrix(-1,-7.65714e-16,7.65714e-16,-1,479.75,30.91)">
                    <rect x="227.28" y="2.86" width="25.2" height="25.2" style="stroke:white;stroke-width:1px;"/>
                </g>
                <g transform="matrix(-1,-7.65714e-16,7.65714e-16,-1,530.14,182.28)">
                    <rect x="252.47" y="78.54" width="25.2" height="25.2" style="stroke:white;stroke-width:1px;"/>
                </g>
                <g transform="matrix(-1,-7.65714e-16,7.65714e-16,-1,26.2,182.28)">
                    <rect x="0.5" y="78.54" width="25.2" height="25.2" style="stroke:white;stroke-width:1px;"/>
                </g>
                <g transform="matrix(-1,-7.65714e-16,7.65714e-16,-1,76.59,182.28)">
                    <rect x="25.7" y="78.54" width="25.2" height="25.2" style="stroke:white;stroke-width:1px;"/>
                </g>
                <g transform="matrix(-1,-7.65714e-16,7.65714e-16,-1,126.99,182.28)">
                    <rect x="50.89" y="78.54" width="25.2" height="25.2" style="stroke:white;stroke-width:1px;"/>
                </g>
                <g transform="matrix(-1,-7.65714e-16,7.65714e-16,-1,177.38,182.28)">
                    <rect x="76.09" y="78.54" width="25.2" height="25.2" style="stroke:white;stroke-width:1px;"/>
                </g>
                <g transform="matrix(-1,-7.65714e-16,7.65714e-16,-1,227.78,131.79)">
                    <rect x="101.29" y="53.3" width="25.2" height="25.2" style="stroke:white;stroke-width:1px;"/>
                </g>
                <g transform="matrix(-1,-7.65714e-16,7.65714e-16,-1,278.17,132.12)">
                    <rect x="126.49" y="53.46" width="25.2" height="25.2" style="stroke:white;stroke-width:1px;"/>
                </g>
                <g transform="matrix(-1,-7.65714e-16,7.65714e-16,-1,328.57,131.79)">
                    <rect x="151.68" y="53.3" width="25.2" height="25.2" style="stroke:white;stroke-width:1px;"/>
                </g>
                <g transform="matrix(-1,-7.65714e-16,7.65714e-16,-1,378.96,131.79)">
                    <rect x="176.88" y="53.3" width="25.2" height="25.2" style="stroke:white;stroke-width:1px;"/>
                </g>
                <g transform="matrix(-1,-7.65714e-16,7.65714e-16,-1,26.2,131.79)">
                    <rect x="0.5" y="53.3" width="25.2" height="25.2" style="stroke:white;stroke-width:1px;"/>
                </g>
                <g transform="matrix(-1,-7.65714e-16,7.65714e-16,-1,76.59,131.79)">
                    <rect x="25.7" y="53.3" width="25.2" height="25.2" style="stroke:white;stroke-width:1px;"/>
                </g>
                <g transform="matrix(-1,-7.65714e-16,7.65714e-16,-1,126.99,131.79)">
                    <rect x="50.89" y="53.3" width="25.2" height="25.2" style="stroke:white;stroke-width:1px;"/>
                </g>
                <g transform="matrix(-1,-7.65714e-16,7.65714e-16,-1,177.38,131.79)">
                    <rect x="76.09" y="53.3" width="25.2" height="25.2" style="stroke:white;stroke-width:1px;"/>
                </g>
                <g transform="matrix(-1,-7.65714e-16,7.65714e-16,-1,227.78,81.31)">
                    <rect x="101.29" y="28.05" width="25.2" height="25.2" style="stroke:white;stroke-width:1px;"/>
                </g>
                <g transform="matrix(-1,-7.65714e-16,7.65714e-16,-1,278.17,81.97)">
                    <rect x="126.49" y="28.39" width="25.2" height="25.2" style="stroke:white;stroke-width:1px;"/>
                </g>
                <g transform="matrix(-1,-7.65714e-16,7.65714e-16,-1,328.57,81.31)">
                    <rect x="151.68" y="28.05" width="25.2" height="25.2" style="stroke:white;stroke-width:1px;"/>
                </g>
                <g transform="matrix(-1,-7.65714e-16,7.65714e-16,-1,76.59,81.31)">
                    <rect x="25.7" y="28.05" width="25.2" height="25.2" style="stroke:white;stroke-width:1px;"/>
                </g>
                <g transform="matrix(-1,-7.65714e-16,7.65714e-16,-1,126.99,81.31)">
                    <rect x="50.89" y="28.05" width="25.2" height="25.2" style="stroke:white;stroke-width:1px;"/>
                </g>
                <g transform="matrix(-1,-7.65714e-16,7.65714e-16,-1,278.17,31.82)">
                    <rect x="126.49" y="3.31" width="25.2" height="25.2" style="stroke:white;stroke-width:1px;"/>
                </g>
                <g transform="matrix(-1,-7.65714e-16,7.65714e-16,-1,227.78,182.28)">
                    <rect x="101.29" y="78.54" width="25.2" height="25.2" style="stroke:white;stroke-width:1px;"/>
                </g>
                <g transform="matrix(-1,-7.65714e-16,7.65714e-16,-1,227.78,132.12)">
                    <rect x="101.29" y="53.46" width="25.2" height="25.2" style="stroke:white;stroke-width:1px;"/>
                </g>
                <g transform="matrix(-1,-7.65714e-16,7.65714e-16,-1,227.78,81.97)">
                    <rect x="101.29" y="28.39" width="25.2" height="25.2" style="stroke:white;stroke-width:1px;"/>
                </g>
                <path d="M277.67,80.01L151.68,80.01L151.68,79.96L202.08,79.96L202.08,54.76L151.68,54.76L151.68,54.72L176.88,54.72L176.88,29.52L151.68,29.52L151.68,4.78L126.49,4.78L126.49,29.52L101.29,29.52L101.29,54.76L0.5,54.76L0.5,79.96L101.29,79.96L101.29,80.01L0.5,80.01L0.5,105.2L277.67,105.2L277.67,80.01Z" style="fill:url(#_Linear10);fill-rule:nonzero;"/>
                <rect x="227.28" y="54.76" width="25.2" height="25.2" style="fill:url(#_Linear11);"/>
                <rect x="227.28" y="4.32" width="25.2" height="25.2" style="fill:url(#_Linear12);"/>
                <path d="M76.09,54.72L76.09,29.52L25.7,29.52L25.7,54.72L76.09,54.72Z" style="fill:url(#_Linear13);fill-rule:nonzero;"/>
                <g transform="matrix(-1,-7.65714e-16,7.65714e-16,-1,227.78,184.71)">
                    <rect x="101.29" y="79.76" width="25.2" height="25.2" style="stroke:white;stroke-width:1px;"/>
                </g>
                <g transform="matrix(-1,-7.65714e-16,7.65714e-16,-1,278.17,184.71)">
                    <rect x="126.49" y="79.76" width="25.2" height="25.2" style="stroke:white;stroke-width:1px;"/>
                </g>
                <g transform="matrix(-1,-7.65714e-16,7.65714e-16,-1,328.57,184.71)">
                    <rect x="151.68" y="79.76" width="25.2" height="25.2" style="stroke:white;stroke-width:1px;"/>
                </g>
                <g transform="matrix(-1,-7.65714e-16,7.65714e-16,-1,378.96,184.71)">
                    <rect x="176.88" y="79.76" width="25.2" height="25.2" style="stroke:white;stroke-width:1px;"/>
                </g>
                <g transform="matrix(-1,-7.65714e-16,7.65714e-16,-1,429.36,184.71)">
                    <rect x="202.08" y="79.76" width="25.2" height="25.2" style="stroke:white;stroke-width:1px;"/>
                </g>
                <g transform="matrix(-1,-7.65714e-16,7.65714e-16,-1,479.75,184.71)">
                    <rect x="227.28" y="79.76" width="25.2" height="25.2" style="stroke:white;stroke-width:1px;"/>
                </g>
                <g transform="matrix(-1,-7.65714e-16,7.65714e-16,-1,479.75,134.23)">
                    <rect x="227.28" y="54.51" width="25.2" height="25.2" style="stroke:white;stroke-width:1px;"/>
                </g>
                <g transform="matrix(-1,-7.65714e-16,7.65714e-16,-1,479.75,33.35)">
                    <rect x="227.28" y="4.08" width="25.2" height="25.2" style="stroke:white;stroke-width:1px;"/>
                </g>
                <g transform="matrix(-1,-7.65714e-16,7.65714e-16,-1,530.14,184.71)">
                    <rect x="252.47" y="79.76" width="25.2" height="25.2" style="stroke:white;stroke-width:1px;"/>
                </g>
                <g transform="matrix(-1,-7.65714e-16,7.65714e-16,-1,26.2,184.71)">
                    <rect x="0.5" y="79.76" width="25.2" height="25.2" style="stroke:white;stroke-width:1px;"/>
                </g>
                <g transform="matrix(-1,-7.65714e-16,7.65714e-16,-1,76.59,184.71)">
                    <rect x="25.7" y="79.76" width="25.2" height="25.2" style="stroke:white;stroke-width:1px;"/>
                </g>
                <g transform="matrix(-1,-7.65714e-16,7.65714e-16,-1,126.99,184.71)">
                    <rect x="50.89" y="79.76" width="25.2" height="25.2" style="stroke:white;stroke-width:1px;"/>
                </g>
                <g transform="matrix(-1,-7.65714e-16,7.65714e-16,-1,177.38,184.71)">
                    <rect x="76.09" y="79.76" width="25.2" height="25.2" style="stroke:white;stroke-width:1px;"/>
                </g>
                <g transform="matrix(-1,-7.65714e-16,7.65714e-16,-1,227.78,134.23)">
                    <rect x="101.29" y="54.51" width="25.2" height="25.2" style="stroke:white;stroke-width:1px;"/>
                </g>
                <g transform="matrix(-1,-7.65714e-16,7.65714e-16,-1,278.17,134.56)">
                    <rect x="126.49" y="54.68" width="25.2" height="25.2" style="stroke:white;stroke-width:1px;"/>
                </g>
                <g transform="matrix(-1,-7.65714e-16,7.65714e-16,-1,328.57,134.23)">
                    <rect x="151.68" y="54.51" width="25.2" height="25.2" style="stroke:white;stroke-width:1px;"/>
                </g>
                <g transform="matrix(-1,-7.65714e-16,7.65714e-16,-1,378.96,134.23)">
                    <rect x="176.88" y="54.51" width="25.2" height="25.2" style="stroke:white;stroke-width:1px;"/>
                </g>
                <g transform="matrix(-1,-7.65714e-16,7.65714e-16,-1,26.2,134.23)">
                    <rect x="0.5" y="54.51" width="25.2" height="25.2" style="stroke:white;stroke-width:1px;"/>
                </g>
                <g transform="matrix(-1,-7.65714e-16,7.65714e-16,-1,76.59,134.23)">
                    <rect x="25.7" y="54.51" width="25.2" height="25.2" style="stroke:white;stroke-width:1px;"/>
                </g>
                <g transform="matrix(-1,-7.65714e-16,7.65714e-16,-1,126.99,134.23)">
                    <rect x="50.89" y="54.51" width="25.2" height="25.2" style="stroke:white;stroke-width:1px;"/>
                </g>
                <g transform="matrix(-1,-7.65714e-16,7.65714e-16,-1,177.38,134.23)">
                    <rect x="76.09" y="54.51" width="25.2" height="25.2" style="stroke:white;stroke-width:1px;"/>
                </g>
                <g transform="matrix(-1,-7.65714e-16,7.65714e-16,-1,227.78,83.74)">
                    <rect x="101.29" y="29.27" width="25.2" height="25.2" style="stroke:white;stroke-width:1px;"/>
                </g>
                <g transform="matrix(-1,-7.65714e-16,7.65714e-16,-1,278.17,84.41)">
                    <rect x="126.49" y="29.61" width="25.2" height="25.2" style="stroke:white;stroke-width:1px;"/>
                </g>
                <g transform="matrix(-1,-7.65714e-16,7.65714e-16,-1,328.57,83.74)">
                    <rect x="151.68" y="29.27" width="25.2" height="25.2" style="stroke:white;stroke-width:1px;"/>
                </g>
                <g transform="matrix(-1,-7.65714e-16,7.65714e-16,-1,76.59,83.74)">
                    <rect x="25.7" y="29.27" width="25.2" height="25.2" style="stroke:white;stroke-width:1px;"/>
                </g>
                <g transform="matrix(-1,-7.65714e-16,7.65714e-16,-1,126.99,83.74)">
                    <rect x="50.89" y="29.27" width="25.2" height="25.2" style="stroke:white;stroke-width:1px;"/>
                </g>
                <g transform="matrix(-1,-7.65714e-16,7.65714e-16,-1,278.17,34.26)">
                    <rect x="126.49" y="4.53" width="25.2" height="25.2" style="stroke:white;stroke-width:1px;"/>
                </g>
                <g transform="matrix(-1,-7.65714e-16,7.65714e-16,-1,227.78,184.71)">
                    <rect x="101.29" y="79.76" width="25.2" height="25.2" style="stroke:white;stroke-width:1px;"/>
                </g>
                <g transform="matrix(-1,-7.65714e-16,7.65714e-16,-1,227.78,134.56)">
                    <rect x="101.29" y="54.68" width="25.2" height="25.2" style="stroke:white;stroke-width:1px;"/>
                </g>
                <g transform="matrix(-1,-7.65714e-16,7.65714e-16,-1,227.78,84.41)">
                    <rect x="101.29" y="29.61" width="25.2" height="25.2" style="stroke:white;stroke-width:1px;"/>
                </g>
                <path d="M277.67,79.76L151.68,79.76L151.68,79.71L202.08,79.71L202.08,54.52L151.68,54.52L151.68,54.47L176.88,54.47L176.88,29.27L151.68,29.27L151.68,4.53L126.49,4.53L126.49,29.27L101.29,29.27L101.29,54.52L0.5,54.52L0.5,79.71L101.29,79.71L101.29,79.76L0.5,79.76L0.5,104.95L277.67,104.95L277.67,79.76Z" style="fill:url(#_Linear14);fill-rule:nonzero;"/>
                <rect x="227.28" y="54.52" width="25.2" height="25.2" style="fill:url(#_Linear15);"/>
                <rect x="227.28" y="4.08" width="25.2" height="25.2" style="fill:url(#_Linear16);"/>
                <path d="M76.09,54.47L76.09,29.27L25.7,29.27L25.7,54.47L76.09,54.47Z" style="fill:url(#_Linear17);fill-rule:nonzero;"/>
            </g>
        </g>
    </g>
    <defs>
        <linearGradient id="_Linear1" x1="0" y1="0" x2="1" y2="0" gradientUnits="userSpaceOnUse" gradientTransform="matrix(5.94137e-15,97.03,-97.03,5.94137e-15,1817.68,1.98)"><stop offset="0" style="stop-color:rgb(10,228,124);stop-opacity:0"/><stop offset="1" style="stop-color:rgb(10,228,124);stop-opacity:1"/></linearGradient>
        <linearGradient id="_Linear2" x1="0" y1="0" x2="1" y2="0" gradientUnits="userSpaceOnUse" gradientTransform="matrix(1.49723e-13,2445.16,-2445.16,1.49723e-13,83673.7,126.586)"><stop offset="0" style="stop-color:rgb(10,228,124);stop-opacity:0"/><stop offset="1" style="stop-color:rgb(10,228,124);stop-opacity:1"/></linearGradient>
        <linearGradient id="_Linear3" x1="0" y1="0" x2="1" y2="0" gradientUnits="userSpaceOnUse" gradientTransform="matrix(2.98673e-13,4877.7,-4877.7,2.98673e-13,131459,151.655)"><stop offset="0" style="stop-color:rgb(10,228,124);stop-opacity:0"/><stop offset="1" style="stop-color:rgb(10,228,124);stop-opacity:1"/></linearGradient>
        <linearGradient id="_Linear4" x1="0" y1="0" x2="1" y2="0" gradientUnits="userSpaceOnUse" gradientTransform="matrix(1.49723e-13,2445.16,-2445.16,1.49723e-13,44969.9,51.614)"><stop offset="0" style="stop-color:rgb(10,228,124);stop-opacity:0"/><stop offset="1" style="stop-color:rgb(10,228,124);stop-opacity:1"/></linearGradient>
        <linearGradient id="_Linear5" x1="0" y1="0" x2="1" y2="0" gradientUnits="userSpaceOnUse" gradientTransform="matrix(1.49723e-13,2445.16,-2445.16,1.49723e-13,42329.2,101.346)"><stop offset="0" style="stop-color:rgb(10,228,124);stop-opacity:0"/><stop offset="1" style="stop-color:rgb(10,228,124);stop-opacity:1"/></linearGradient>
        <linearGradient id="_Linear6" x1="0" y1="0" x2="1" y2="0" gradientUnits="userSpaceOnUse" gradientTransform="matrix(1.48936e-13,-2432.3,2432.3,1.48936e-13,83673.7,2668.01)"><stop offset="0" style="stop-color:rgb(10,228,124);stop-opacity:1"/><stop offset="1" style="stop-color:rgb(10,228,124);stop-opacity:0"/></linearGradient>
        <linearGradient id="_Linear7" x1="0" y1="0" x2="1" y2="0" gradientUnits="userSpaceOnUse" gradientTransform="matrix(2.97103e-13,-4852.06,4852.06,2.97103e-13,131459,5221.64)"><stop offset="0" style="stop-color:rgb(10,228,124);stop-opacity:1"/><stop offset="1" style="stop-color:rgb(10,228,124);stop-opacity:0"/></linearGradient>
        <linearGradient id="_Linear8" x1="0" y1="0" x2="1" y2="0" gradientUnits="userSpaceOnUse" gradientTransform="matrix(1.48936e-13,-2432.3,2432.3,1.48936e-13,44969.9,2593.29)"><stop offset="0" style="stop-color:rgb(10,228,124);stop-opacity:1"/><stop offset="1" style="stop-color:rgb(10,228,124);stop-opacity:0"/></linearGradient>
        <linearGradient id="_Linear9" x1="0" y1="0" x2="1" y2="0" gradientUnits="userSpaceOnUse" gradientTransform="matrix(1.48936e-13,-2432.3,2432.3,1.48936e-13,42329.2,2642.77)"><stop offset="0" style="stop-color:rgb(10,228,124);stop-opacity:1"/><stop offset="1" style="stop-color:rgb(10,228,124);stop-opacity:0"/></linearGradient>
        <linearGradient id="_Linear10" x1="0" y1="0" x2="1" y2="0" gradientUnits="userSpaceOnUse" gradientTransform="matrix(5.96633e-13,9743.75,-9743.75,5.96633e-13,38552.1,203.612)"><stop offset="0" style="stop-color:rgb(10,228,124);stop-opacity:0"/><stop offset="1" style="stop-color:rgb(10,228,124);stop-opacity:1"/></linearGradient>
        <linearGradient id="_Linear11" x1="0" y1="0" x2="1" y2="0" gradientUnits="userSpaceOnUse" gradientTransform="matrix(1.49723e-13,2445.16,-2445.16,1.49723e-13,6272.26,104.656)"><stop offset="0" style="stop-color:rgb(10,228,124);stop-opacity:0"/><stop offset="1" style="stop-color:rgb(10,228,124);stop-opacity:1"/></linearGradient>
        <linearGradient id="_Linear12" x1="0" y1="0" x2="1" y2="0" gradientUnits="userSpaceOnUse" gradientTransform="matrix(1.49723e-13,2445.16,-2445.16,1.49723e-13,6272.26,54.216)"><stop offset="0" style="stop-color:rgb(10,228,124);stop-opacity:0"/><stop offset="1" style="stop-color:rgb(10,228,124);stop-opacity:1"/></linearGradient>
        <linearGradient id="_Linear13" x1="0" y1="0" x2="1" y2="0" gradientUnits="userSpaceOnUse" gradientTransform="matrix(1.49723e-13,2445.16,-2445.16,1.49723e-13,2590.05,79.416)"><stop offset="0" style="stop-color:rgb(10,228,124);stop-opacity:0"/><stop offset="1" style="stop-color:rgb(10,228,124);stop-opacity:1"/></linearGradient>
        <linearGradient id="_Linear14" x1="0" y1="0" x2="1" y2="0" gradientUnits="userSpaceOnUse" gradientTransform="matrix(5.93497e-13,-9692.54,9692.54,5.93497e-13,38552.1,10331.7)"><stop offset="0" style="stop-color:rgb(10,228,124);stop-opacity:1"/><stop offset="1" style="stop-color:rgb(10,228,124);stop-opacity:0"/></linearGradient>
        <linearGradient id="_Linear15" x1="0" y1="0" x2="1" y2="0" gradientUnits="userSpaceOnUse" gradientTransform="matrix(1.48936e-13,-2432.3,2432.3,1.48936e-13,6272.26,2646.09)"><stop offset="0" style="stop-color:rgb(10,228,124);stop-opacity:1"/><stop offset="1" style="stop-color:rgb(10,228,124);stop-opacity:0"/></linearGradient>
        <linearGradient id="_Linear16" x1="0" y1="0" x2="1" y2="0" gradientUnits="userSpaceOnUse" gradientTransform="matrix(1.48936e-13,-2432.3,2432.3,1.48936e-13,6272.26,2595.65)"><stop offset="0" style="stop-color:rgb(10,228,124);stop-opacity:1"/><stop offset="1" style="stop-color:rgb(10,228,124);stop-opacity:0"/></linearGradient>
        <linearGradient id="_Linear17" x1="0" y1="0" x2="1" y2="0" gradientUnits="userSpaceOnUse" gradientTransform="matrix(1.48936e-13,-2432.3,2432.3,1.48936e-13,2590.05,2620.84)"><stop offset="0" style="stop-color:rgb(10,228,124);stop-opacity:1"/><stop offset="1" style="stop-color:rgb(10,228,124);stop-opacity:0"/></linearGradient>
    </defs>
</svg>
