<svg xmlns="http://www.w3.org/2000/svg" viewBox="0 0 240.37 54.61"><defs><style>.cls-1{isolation:isolate;}.cls-2{fill:#004000;}.cls-3{fill:#007500;}.cls-4{fill:gray;}.cls-5{fill:#ececec;}.cls-6{font-size:29.41px;fill:#fff;stroke:#007f00;stroke-miterlimit:10;stroke-width:0.65px;font-family:ChubbyChoo-SemiBold, Chubby Choo;font-weight:600;}</style></defs><g id="Camada_2" data-name="Camada 2"><g id="Camada_1-2" data-name="Camada 1"><g class="cls-1"><polygon class="cls-2" points="238.72 36.45 234.7 44.62 227.09 44.62 231.11 36.45 238.72 36.45"/><polygon class="cls-2" points="231.22 41.32 227.19 49.5 220.72 49.5 224.74 41.32 231.22 41.32"/><polygon class="cls-2" points="224.85 46.44 220.83 54.61 180.17 54.61 184.19 46.44 224.85 46.44"/><polygon class="cls-2" points="184.19 46.44 180.17 54.61 175.56 54.61 179.59 46.44 184.19 46.44"/><polygon class="cls-2" points="179.59 46.44 175.56 54.61 140.07 54.61 144.09 46.44 179.59 46.44"/><polygon class="cls-2" points="144.09 46.44 140.07 54.61 139.49 54.61 143.51 46.44 144.09 46.44"/><polygon class="cls-2" points="143.51 46.44 139.49 54.61 134.89 54.61 138.91 46.44 143.51 46.44"/><polygon class="cls-2" points="138.91 46.44 134.89 54.61 99.4 54.61 103.42 46.44 138.91 46.44"/><polygon class="cls-2" points="103.42 46.44 99.4 54.61 94.8 54.61 98.82 46.44 103.42 46.44"/><polygon class="cls-2" points="98.82 46.44 94.8 54.61 94.23 54.61 98.25 46.44 98.82 46.44"/><polygon class="cls-2" points="16.61 7.04 12.59 15.21 12.48 10.1 16.5 1.92 16.61 7.04"/><polygon class="cls-2" points="11.58 9.3 7.56 17.47 7.51 15.21 11.53 7.04 11.58 9.3"/><polygon class="cls-2" points="11.64 11.92 7.62 20.1 7.56 17.47 11.58 9.3 11.64 11.92"/><polygon class="cls-2" points="4.07 14.18 0.05 22.36 0 20.1 4.02 11.92 4.07 14.18"/><polygon class="cls-2" points="98.25 46.44 94.23 54.61 58.73 54.61 62.75 46.44 98.25 46.44"/><polygon class="cls-2" points="62.75 46.44 58.73 54.61 54.13 54.61 58.15 46.44 62.75 46.44"/><polygon class="cls-2" points="12.18 36.45 8.16 44.62 0.55 44.62 4.57 36.45 12.18 36.45"/><polygon class="cls-2" points="4.57 36.45 0.55 44.62 0.05 22.36 4.07 14.18 4.57 36.45"/><polygon class="cls-2" points="17.37 41.32 13.35 49.5 8.27 49.5 12.29 41.32 17.37 41.32"/><polygon class="cls-2" points="12.29 41.32 8.27 49.5 8.16 44.62 12.18 36.45 12.29 41.32"/><polygon class="cls-3" points="223.86 1.92 223.97 7.04 230.45 7.04 230.56 11.92 238.18 11.92 238.67 34.19 238.72 36.45 231.11 36.45 231.16 39.06 231.22 41.32 224.74 41.32 224.8 44.18 224.85 46.44 184.19 46.44 179.59 46.44 144.09 46.44 143.51 46.44 138.91 46.44 103.42 46.44 98.82 46.44 98.25 46.44 62.75 46.44 58.15 46.44 17.49 46.44 17.37 41.32 12.29 41.32 12.18 36.45 4.57 36.45 4.07 14.18 4.02 11.92 11.64 11.92 11.58 9.3 11.53 7.04 16.61 7.04 16.5 1.92 57.16 1.92 61.76 1.92 97.26 1.92 97.83 1.92 102.43 1.92 137.92 1.92 142.53 1.92 143.1 1.92 178.6 1.92 183.2 1.92 223.86 1.92"/><polygon class="cls-2" points="17.49 46.44 13.47 54.61 13.35 49.5 17.37 41.32 17.49 46.44"/><polygon class="cls-2" points="58.15 46.44 54.13 54.61 13.47 54.61 17.49 46.44 58.15 46.44"/></g><g class="cls-1"><polygon class="cls-4" points="224.97 5.76 224.17 7.38 224.06 2.27 224.86 0.64 224.97 5.76"/><polygon class="cls-4" points="231.46 5.76 230.66 7.38 224.17 7.38 224.97 5.76 231.46 5.76"/><polygon class="cls-4" points="239.18 10.64 238.38 12.27 230.77 12.27 231.57 10.64 239.18 10.64"/><polygon class="cls-4" points="231.57 10.64 230.77 12.27 230.66 7.38 231.46 5.76 231.57 10.64"/><polygon class="cls-4" points="239.71 34.53 238.91 36.15 238.38 12.27 239.18 10.64 239.71 34.53"/><polygon class="cls-4" points="240.37 35.16 239.57 36.79 231.96 36.79 232.76 35.16 240.37 35.16"/><polygon class="cls-4" points="232.21 39.4 231.41 41.03 231.3 36.15 232.1 34.53 232.21 39.4"/><polygon class="cls-4" points="232.87 40.05 232.07 41.67 225.59 41.67 226.39 40.05 232.87 40.05"/><polygon class="cls-4" points="225.83 44.53 225.03 46.15 224.92 41.03 225.72 39.4 225.83 44.53"/><polygon class="cls-4" points="224.86 0.64 224.06 2.27 16.62 2.27 17.42 0.64 224.86 0.64"/><polygon class="cls-4" points="16.87 5.12 16.07 6.74 15.96 1.63 16.76 0 16.87 5.12"/><polygon class="cls-4" points="17.53 5.76 16.73 7.38 11.65 7.38 12.45 5.76 17.53 5.76"/><polygon class="cls-4" points="11.89 10 11.09 11.63 10.98 6.74 11.78 5.12 11.89 10"/><polygon class="cls-4" points="12.55 10.64 11.76 12.27 4.14 12.27 4.94 10.64 12.55 10.64"/><polygon class="cls-4" points="4.84 35.16 4.04 36.79 3.48 11.63 4.28 10 4.84 35.16"/><polygon class="cls-4" points="12.45 35.16 11.65 36.79 4.04 36.79 4.84 35.16 12.45 35.16"/><polygon class="cls-4" points="12.55 40.05 11.75 41.67 11.65 36.79 12.45 35.16 12.55 40.05"/><polygon class="cls-4" points="17.65 40.05 16.85 41.67 11.75 41.67 12.55 40.05 17.65 40.05"/><polygon class="cls-4" points="226.5 45.16 225.7 46.79 16.96 46.79 17.76 45.16 226.5 45.16"/><polygon class="cls-4" points="17.76 45.16 16.96 46.79 16.85 41.67 17.65 40.05 17.76 45.16"/><path class="cls-5" d="M232.2,10h7.61l.56,25.16h-7.61l.11,4.89h-6.48l.11,5.11H17.76l-.11-5.11h-5.1l-.1-4.89H4.84L4.28,10h7.61l-.11-4.89h5.09L16.76,0H225.5l.11,5.11h6.48Zm7.51,24.53-.53-23.89h-7.61l-.11-4.88H225L224.86.64H17.42l.11,5.12H12.45l.1,4.88H4.94l.53,23.89h7.61l.11,4.87h5.09l.11,5.13H225.83l-.11-5.13h6.49l-.11-4.87h7.61"/></g><text class="cls-6" transform="translate(37.02 30.51)">SAIBA MAIS</text></g></g></svg>