<svg xmlns="http://www.w3.org/2000/svg" viewBox="0 0 240.7 54.94"><defs><style>.cls-1{isolation:isolate;}.cls-2{fill:#005000;}.cls-3{fill:#05723e;}.cls-4{fill:#09d373;}.cls-5{fill:#009400;}.cls-6{fill:gray;}.cls-7{fill:#ececec;}.cls-8{font-size:29.41px;fill:#fff;stroke:#007f00;stroke-miterlimit:10;stroke-width:0.65px;font-family:ChubbyChoo-SemiBold, Chubby Choo;font-weight:600;}</style></defs><g id="Camada_2" data-name="Camada 2"><g id="Camada_1-2" data-name="Camada 1"><g class="cls-1"><polygon class="cls-2" points="223.98 7.35 219.96 15.53 219.84 10.41 223.87 2.24 223.98 7.35"/><polygon class="cls-2" points="230.47 7.35 226.45 15.53 219.96 15.53 223.98 7.35 230.47 7.35"/><polygon class="cls-2" points="230.58 12.24 226.56 20.41 226.45 15.53 230.47 7.35 230.58 12.24"/><polygon class="cls-2" points="238.18 12.24 234.16 20.41 226.56 20.41 230.58 12.24 238.18 12.24"/><polygon class="cls-2" points="238.72 36.12 234.69 44.3 234.16 20.41 238.18 12.24 238.72 36.12"/><polygon class="cls-3" points="238.72 36.12 234.69 44.3 227.09 44.3 231.11 36.12 238.72 36.12"/><polygon class="cls-2" points="239.37 36.76 235.35 44.94 227.75 44.94 231.77 36.76 239.37 36.76"/><polygon class="cls-2" points="231.22 41.01 227.19 49.18 227.09 44.3 231.11 36.12 231.22 41.01"/><polygon class="cls-3" points="231.22 41.01 227.19 49.18 220.71 49.18 224.73 41.01 231.22 41.01"/><polygon class="cls-2" points="231.87 41.65 227.85 49.83 221.37 49.83 225.39 41.65 231.87 41.65"/><polygon class="cls-2" points="224.84 46.12 220.82 54.3 220.71 49.18 224.73 41.01 224.84 46.12"/><polygon class="cls-2" points="223.87 2.24 219.84 10.41 13.14 10.41 17.16 2.24 223.87 2.24"/><polygon class="cls-3" points="17.27 7.35 13.25 15.53 13.14 10.41 17.16 2.24 17.27 7.35"/><polygon class="cls-2" points="16.6 6.72 12.58 14.89 12.47 9.78 16.49 1.6 16.6 6.72"/><polygon class="cls-2" points="17.27 7.35 13.25 15.53 8.16 15.53 12.18 7.35 17.27 7.35"/><polygon class="cls-3" points="12.29 12.24 8.27 20.41 8.16 15.53 12.18 7.35 12.29 12.24"/><polygon class="cls-2" points="11.63 11.6 7.61 19.78 7.5 14.89 11.52 6.72 11.63 11.6"/><polygon class="cls-2" points="12.29 12.24 8.27 20.41 0.66 20.41 4.68 12.24 12.29 12.24"/><polygon class="cls-3" points="12.82 36.12 8.8 44.3 1.19 44.3 5.21 36.12 12.82 36.12"/><polygon class="cls-3" points="5.21 36.12 1.19 44.3 0.66 20.41 4.68 12.24 5.21 36.12"/><polygon class="cls-2" points="4.58 36.76 0.56 44.94 0 19.78 4.02 11.6 4.58 36.76"/><polygon class="cls-2" points="12.19 36.76 8.17 44.94 0.56 44.94 4.58 36.76 12.19 36.76"/><polygon class="cls-3" points="12.93 41.01 8.91 49.18 8.8 44.3 12.82 36.12 12.93 41.01"/><polygon class="cls-3" points="18.02 41.01 14 49.18 8.91 49.18 12.93 41.01 18.02 41.01"/><polygon class="cls-2" points="17.38 41.65 13.36 49.83 8.28 49.83 12.3 41.65 17.38 41.65"/><polygon class="cls-2" points="12.3 41.65 8.28 49.83 8.17 44.94 12.19 36.76 12.3 41.65"/><polygon class="cls-4" points="223.87 2.24 223.98 7.35 230.47 7.35 230.58 12.24 238.18 12.24 238.72 36.12 231.11 36.12 231.22 41.01 224.73 41.01 224.84 46.12 18.13 46.12 18.02 41.01 12.93 41.01 12.82 36.12 5.21 36.12 4.68 12.24 12.29 12.24 12.18 7.35 17.27 7.35 17.16 2.24 223.87 2.24"/><polygon class="cls-3" points="18.13 46.12 14.11 54.3 14 49.18 18.02 41.01 18.13 46.12"/><polygon class="cls-3" points="224.84 46.12 220.82 54.3 14.11 54.3 18.13 46.12 224.84 46.12"/><polygon class="cls-2" points="17.49 46.77 13.47 54.94 13.36 49.83 17.38 41.65 17.49 46.77"/><polygon class="cls-2" points="225.51 46.77 221.49 54.94 13.47 54.94 17.49 46.77 225.51 46.77"/><path class="cls-5" d="M231.21,11.6h7.6l.56,25.16h-7.6l.1,4.89h-6.48l.12,5.11h-208l-.11-5.11H12.3l-.11-4.89H4.58L4,11.6h7.61l-.11-4.88H16.6L16.49,1.6h208l.12,5.12h6.48Zm7.5,24.52-.53-23.88h-7.6l-.11-4.89H224l-.12-5.11H17.16l.11,5.11H12.18l.11,4.89H4.68l.53,23.88h7.61L12.93,41H18l.11,5.11H224.84L224.73,41h6.49l-.11-4.89h7.6"/></g><g class="cls-1"><polygon class="cls-6" points="225.3 5.76 224.5 7.38 224.39 2.27 225.19 0.64 225.3 5.76"/><polygon class="cls-6" points="231.78 5.76 230.98 7.38 224.5 7.38 225.3 5.76 231.78 5.76"/><polygon class="cls-6" points="239.5 10.64 238.7 12.27 231.09 12.27 231.89 10.64 239.5 10.64"/><polygon class="cls-6" points="231.89 10.64 231.09 12.27 230.98 7.38 231.78 5.76 231.89 10.64"/><polygon class="cls-6" points="240.03 34.53 239.23 36.15 238.7 12.27 239.5 10.64 240.03 34.53"/><polygon class="cls-6" points="240.69 35.16 239.9 36.79 232.28 36.79 233.08 35.16 240.69 35.16"/><polygon class="cls-6" points="232.53 39.4 231.73 41.03 231.62 36.15 232.42 34.53 232.53 39.4"/><polygon class="cls-6" points="233.19 40.05 232.39 41.67 225.91 41.67 226.71 40.05 233.19 40.05"/><polygon class="cls-6" points="226.16 44.53 225.36 46.15 225.25 41.03 226.05 39.4 226.16 44.53"/><polygon class="cls-6" points="225.19 0.64 224.39 2.27 16.95 2.27 17.75 0.64 225.19 0.64"/><polygon class="cls-6" points="17.19 5.12 16.39 6.74 16.28 1.63 17.08 0 17.19 5.12"/><polygon class="cls-6" points="17.86 5.76 17.06 7.38 11.97 7.38 12.77 5.76 17.86 5.76"/><polygon class="cls-6" points="12.22 10 11.42 11.63 11.31 6.74 12.11 5.12 12.22 10"/><polygon class="cls-6" points="12.88 10.64 12.07 12.27 4.47 12.27 5.27 10.64 12.88 10.64"/><polygon class="cls-6" points="5.17 35.16 4.37 36.79 3.81 11.63 4.61 10 5.17 35.16"/><polygon class="cls-6" points="12.78 35.16 11.97 36.79 4.37 36.79 5.17 35.16 12.78 35.16"/><polygon class="cls-6" points="12.88 40.05 12.08 41.67 11.97 36.79 12.78 35.16 12.88 40.05"/><polygon class="cls-6" points="17.97 40.05 17.17 41.67 12.08 41.67 12.88 40.05 17.97 40.05"/><polygon class="cls-6" points="226.82 45.16 226.02 46.79 17.28 46.79 18.08 45.16 226.82 45.16"/><polygon class="cls-6" points="18.08 45.16 17.28 46.79 17.17 41.67 17.97 40.05 18.08 45.16"/><path class="cls-7" d="M232.52,10h7.62l.56,25.16h-7.62l.11,4.89h-6.48l.11,5.11H18.08L18,40.05H12.88l-.11-4.89H5.17L4.61,10h7.61l-.11-4.89h5.08L17.08,0H225.82l.11,5.11h6.48ZM240,34.53l-.53-23.89h-7.61l-.11-4.88H225.3L225.19.64H17.75l.11,5.12H12.77l.1,4.88H5.27L5.8,34.53h7.61l.1,4.87h5.1l.11,5.13H226.16l-.11-5.13h6.48l-.11-4.87H240"/></g><text class="cls-8" transform="translate(25.83 30.51)">INSCREVA-SE</text></g></g></svg>