<svg xmlns="http://www.w3.org/2000/svg" viewBox="0 0 277.42 61.53"><defs><style>.cls-1{fill:#007f00;}</style></defs><g id="Camada_2" data-name="Camada 2"><g id="Camada_1-2" data-name="Camada 1"><polygon class="cls-1" points="225.13 15.38 213.61 15.38 213.61 7.87 203.81 7.87 203.81 0 142.27 0 80.74 0 19.21 0 19.21 7.87 11.52 7.87 11.52 15.38 0 15.38 0 46.15 11.52 46.15 11.52 53.66 19.21 53.66 19.21 61.53 80.74 61.53 142.27 61.53 203.81 61.53 203.81 53.66 213.61 53.66 213.61 46.15 225.13 46.15 225.13 15.38"/><polygon class="cls-1" points="277.43 15.38 265.91 15.38 265.91 7.87 256.1 7.87 256.1 0 194.57 0 133.04 0 71.51 0 71.51 7.87 63.81 7.87 63.81 15.38 52.3 15.38 52.3 46.15 63.81 46.15 63.81 53.66 71.51 53.66 71.51 61.53 133.04 61.53 194.57 61.53 256.1 61.53 256.1 53.66 265.91 53.66 265.91 46.15 277.43 46.15 277.43 15.38"/></g></g></svg>