<svg xmlns="http://www.w3.org/2000/svg" xmlns:xlink="http://www.w3.org/1999/xlink" viewBox="0 0 328.57 126.5"><defs><style>.cls-1{fill:#0ae47c;}.cls-2{fill:none;stroke:#fff;stroke-miterlimit:10;}.cls-3{fill:url(#Gradiente_sem_nome_9);}</style><linearGradient id="Gradiente_sem_nome_9" x1="164.28" y1="49.31" x2="164.28" y2="8.96" gradientUnits="userSpaceOnUse"><stop offset="0" stop-color="#0ae47c" stop-opacity="0"/><stop offset="1" stop-color="#0ae47c"/></linearGradient></defs><g id="Camada_2" data-name="Camada 2"><g id="Camada_1-2" data-name="Camada 1"><rect class="cls-1" x="76.09" y="0.5" width="25.2" height="25.2" transform="translate(177.38 26.2) rotate(-180)"/><rect class="cls-1" x="50.89" y="0.5" width="25.2" height="25.2" transform="translate(126.99 26.2) rotate(-180)"/><rect class="cls-1" x="50.89" y="25.58" width="25.2" height="25.2" transform="translate(126.99 76.35) rotate(-180)"/><rect class="cls-1" x="25.7" y="0.5" width="25.2" height="25.2" transform="translate(76.59 26.2) rotate(-180)"/><rect class="cls-1" x="25.7" y="25.58" width="25.2" height="25.2" transform="translate(76.59 76.35) rotate(-180)"/><rect class="cls-1" x="0.5" y="0.5" width="25.2" height="25.2" transform="translate(26.2 26.2) rotate(-180)"/><rect class="cls-1" x="151.68" y="0.5" width="25.2" height="25.2" transform="translate(328.57 26.2) rotate(-180)"/><rect class="cls-1" x="151.68" y="25.58" width="25.2" height="25.2" transform="translate(328.57 76.35) rotate(-180)"/><rect class="cls-1" x="151.68" y="50.65" width="25.2" height="25.2" transform="translate(328.57 126.5) rotate(-180)"/><rect class="cls-1" x="151.68" y="75.73" width="25.2" height="25.2" transform="translate(328.57 176.65) rotate(-180)"/><rect class="cls-1" x="151.68" y="100.8" width="25.2" height="25.2" transform="translate(328.57 226.8) rotate(-180)"/><rect class="cls-1" x="126.49" y="0.5" width="25.2" height="25.2" transform="translate(278.17 26.2) rotate(-180)"/><rect class="cls-1" x="126.49" y="25.58" width="25.2" height="25.2" transform="translate(278.17 76.35) rotate(-180)"/><rect class="cls-1" x="126.49" y="50.65" width="25.2" height="25.2" transform="translate(278.17 126.5) rotate(-180)"/><rect class="cls-1" x="126.49" y="75.73" width="25.2" height="25.2" transform="translate(278.17 176.65) rotate(-180)"/><rect class="cls-1" x="101.29" y="0.5" width="25.2" height="25.2" transform="translate(227.78 26.2) rotate(-180)"/><rect class="cls-1" x="101.29" y="25.58" width="25.2" height="25.2" transform="translate(227.78 76.35) rotate(-180)"/><rect class="cls-1" x="76.09" y="25.58" width="25.2" height="25.2" transform="translate(177.38 76.35) rotate(-180)"/><rect class="cls-1" x="50.89" y="50.65" width="25.2" height="25.2" transform="translate(126.99 126.5) rotate(-180)"/><rect class="cls-1" x="277.67" y="0.5" width="25.2" height="25.2" transform="translate(580.54 26.2) rotate(-180)"/><rect class="cls-1" x="277.67" y="25.58" width="25.2" height="25.2" transform="translate(580.54 76.35) rotate(-180)"/><rect class="cls-1" x="277.67" y="50.65" width="25.2" height="25.2" transform="translate(580.54 126.5) rotate(-180)"/><rect class="cls-1" x="252.47" y="0.5" width="25.2" height="25.2" transform="translate(530.14 26.2) rotate(-180)"/><rect class="cls-1" x="252.47" y="25.58" width="25.2" height="25.2" transform="translate(530.14 76.35) rotate(-180)"/><rect class="cls-1" x="302.87" y="0.5" width="25.2" height="25.2" transform="translate(630.93 26.2) rotate(-180)"/><rect class="cls-1" x="302.87" y="25.58" width="25.2" height="25.2" transform="translate(630.93 76.35) rotate(-180)"/><rect class="cls-1" x="227.28" y="0.5" width="25.2" height="25.2" transform="translate(479.75 26.2) rotate(-180)"/><rect class="cls-1" x="202.08" y="0.5" width="25.2" height="25.2" transform="translate(429.36 26.2) rotate(-180)"/><rect class="cls-1" x="176.88" y="0.5" width="25.2" height="25.2" transform="translate(378.96 26.2) rotate(-180)"/><rect class="cls-1" x="176.88" y="25.58" width="25.2" height="25.2" transform="translate(378.96 76.35) rotate(-180)"/><rect class="cls-1" x="202.08" y="25.51" width="25.2" height="25.2" transform="translate(429.36 76.23) rotate(-180)"/><rect class="cls-1" x="176.88" y="50.59" width="25.2" height="25.2" transform="translate(378.96 126.38) rotate(-180)"/><rect class="cls-2" x="76.09" y="0.5" width="25.2" height="25.2" transform="translate(177.38 26.2) rotate(-180)"/><rect class="cls-2" x="50.89" y="0.5" width="25.2" height="25.2" transform="translate(126.99 26.2) rotate(-180)"/><rect class="cls-2" x="50.89" y="25.58" width="25.2" height="25.2" transform="translate(126.99 76.35) rotate(-180)"/><rect class="cls-2" x="25.7" y="0.5" width="25.2" height="25.2" transform="translate(76.59 26.2) rotate(-180)"/><rect class="cls-2" x="25.7" y="25.58" width="25.2" height="25.2" transform="translate(76.59 76.35) rotate(-180)"/><rect class="cls-2" x="0.5" y="0.5" width="25.2" height="25.2" transform="translate(26.2 26.2) rotate(-180)"/><rect class="cls-2" x="151.68" y="0.5" width="25.2" height="25.2" transform="translate(328.57 26.2) rotate(-180)"/><rect class="cls-2" x="151.68" y="25.58" width="25.2" height="25.2" transform="translate(328.57 76.35) rotate(-180)"/><rect class="cls-2" x="151.68" y="50.65" width="25.2" height="25.2" transform="translate(328.57 126.5) rotate(-180)"/><rect class="cls-2" x="151.68" y="75.73" width="25.2" height="25.2" transform="translate(328.57 176.65) rotate(-180)"/><rect class="cls-2" x="151.68" y="100.8" width="25.2" height="25.2" transform="translate(328.57 226.8) rotate(-180)"/><rect class="cls-2" x="126.49" y="0.5" width="25.2" height="25.2" transform="translate(278.17 26.2) rotate(-180)"/><rect class="cls-2" x="126.49" y="25.58" width="25.2" height="25.2" transform="translate(278.17 76.35) rotate(-180)"/><rect class="cls-2" x="126.49" y="50.65" width="25.2" height="25.2" transform="translate(278.17 126.5) rotate(-180)"/><rect class="cls-2" x="126.49" y="75.73" width="25.2" height="25.2" transform="translate(278.17 176.65) rotate(-180)"/><rect class="cls-2" x="101.29" y="0.5" width="25.2" height="25.2" transform="translate(227.78 26.2) rotate(-180)"/><rect class="cls-2" x="101.29" y="25.58" width="25.2" height="25.2" transform="translate(227.78 76.35) rotate(-180)"/><rect class="cls-2" x="76.09" y="25.58" width="25.2" height="25.2" transform="translate(177.38 76.35) rotate(-180)"/><rect class="cls-2" x="50.89" y="50.65" width="25.2" height="25.2" transform="translate(126.99 126.5) rotate(-180)"/><rect class="cls-2" x="277.67" y="0.5" width="25.2" height="25.2" transform="translate(580.54 26.2) rotate(-180)"/><rect class="cls-2" x="277.67" y="25.58" width="25.2" height="25.2" transform="translate(580.54 76.35) rotate(-180)"/><rect class="cls-2" x="277.67" y="50.65" width="25.2" height="25.2" transform="translate(580.54 126.5) rotate(-180)"/><rect class="cls-2" x="252.47" y="0.5" width="25.2" height="25.2" transform="translate(530.14 26.2) rotate(-180)"/><rect class="cls-2" x="252.47" y="25.58" width="25.2" height="25.2" transform="translate(530.14 76.35) rotate(-180)"/><rect class="cls-2" x="302.87" y="0.5" width="25.2" height="25.2" transform="translate(630.93 26.2) rotate(-180)"/><rect class="cls-2" x="302.87" y="25.58" width="25.2" height="25.2" transform="translate(630.93 76.35) rotate(-180)"/><rect class="cls-2" x="227.28" y="0.5" width="25.2" height="25.2" transform="translate(479.75 26.2) rotate(-180)"/><rect class="cls-2" x="202.08" y="0.5" width="25.2" height="25.2" transform="translate(429.36 26.2) rotate(-180)"/><rect class="cls-2" x="176.88" y="0.5" width="25.2" height="25.2" transform="translate(378.96 26.2) rotate(-180)"/><rect class="cls-2" x="176.88" y="25.58" width="25.2" height="25.2" transform="translate(378.96 76.35) rotate(-180)"/><rect class="cls-2" x="202.08" y="25.51" width="25.2" height="25.2" transform="translate(429.36 76.23) rotate(-180)"/><rect class="cls-2" x="176.88" y="50.59" width="25.2" height="25.2" transform="translate(378.96 126.38) rotate(-180)"/><polygon class="cls-3" points="25.7 0.5 50.9 0.5 76.09 0.5 101.29 0.5 126.49 0.5 151.68 0.5 176.88 0.5 202.08 0.5 227.28 0.5 252.47 0.5 277.67 0.5 302.87 0.5 328.07 0.5 328.07 25.58 328.07 25.7 328.07 50.77 302.87 50.77 302.87 75.85 277.67 75.85 277.67 50.77 252.47 50.77 252.47 25.7 227.28 25.7 227.28 50.71 202.08 50.71 202.08 50.77 202.08 75.79 176.88 75.79 176.88 75.85 176.88 100.8 176.88 100.92 176.88 126 151.68 126 151.68 100.92 126.49 100.92 126.49 75.85 126.49 75.73 126.49 50.77 101.29 50.77 76.09 50.77 76.09 75.85 50.9 75.85 50.9 50.77 25.7 50.77 25.7 25.7 0.5 25.7 0.5 0.5 25.7 0.5"/></g></g></svg>