<svg xmlns="http://www.w3.org/2000/svg" xmlns:xlink="http://www.w3.org/1999/xlink" viewBox="0 0 303.37 151.58"><defs><style>.cls-1{fill:#7ddfff;}.cls-2{fill:none;stroke:#fff;stroke-miterlimit:10;}.cls-3{fill:url(#Gradiente_sem_nome_15);}.cls-4{fill:url(#Gradiente_sem_nome_15-2);}.cls-5{fill:url(#Gradiente_sem_nome_15-3);}</style><linearGradient id="Gradiente_sem_nome_15" x1="151.68" y1="0.5" x2="151.68" y2="150.78" gradientUnits="userSpaceOnUse"><stop offset="0" stop-color="#7ddfff"/><stop offset="1" stop-color="#7ddfff" stop-opacity="0"/></linearGradient><linearGradient id="Gradiente_sem_nome_15-2" x1="139.09" y1="0.5" x2="139.09" y2="150.78" xlink:href="#Gradiente_sem_nome_15"/><linearGradient id="Gradiente_sem_nome_15-3" x1="63.49" y1="0.5" x2="63.49" y2="150.78" xlink:href="#Gradiente_sem_nome_15"/></defs><g id="Camada_2" data-name="Camada 2"><g id="Camada_1-2" data-name="Camada 1"><rect class="cls-1" x="202.08" y="0.5" width="25.2" height="25.2"/><rect class="cls-1" x="202.08" y="25.58" width="25.2" height="25.2"/><rect class="cls-1" x="227.28" y="0.5" width="25.2" height="25.2"/><rect class="cls-1" x="227.28" y="25.58" width="25.2" height="25.2"/><rect class="cls-1" x="252.47" y="0.5" width="25.2" height="25.2"/><rect class="cls-1" x="252.47" y="25.58" width="25.2" height="25.2"/><rect class="cls-1" x="277.67" y="0.5" width="25.2" height="25.2"/><rect class="cls-1" x="277.67" y="25.58" width="25.2" height="25.2"/><rect class="cls-1" x="126.49" y="0.5" width="25.2" height="25.2"/><rect class="cls-1" x="126.49" y="25.58" width="25.2" height="25.2"/><rect class="cls-1" x="126.49" y="50.65" width="25.2" height="25.2"/><rect class="cls-1" x="126.49" y="75.73" width="25.2" height="25.2"/><rect class="cls-1" x="126.49" y="125.88" width="25.2" height="25.2"/><rect class="cls-1" x="151.68" y="0.5" width="25.2" height="25.2"/><rect class="cls-1" x="151.68" y="25.58" width="25.2" height="25.2"/><rect class="cls-1" x="151.68" y="50.65" width="25.2" height="25.2"/><rect class="cls-1" x="151.68" y="75.73" width="25.2" height="25.2"/><rect class="cls-1" x="176.88" y="0.5" width="25.2" height="25.2"/><rect class="cls-1" x="176.88" y="25.58" width="25.2" height="25.2"/><rect class="cls-1" x="176.88" y="50.65" width="25.2" height="25.2"/><rect class="cls-1" x="227.28" y="50.65" width="25.2" height="25.2"/><rect class="cls-1" x="252.47" y="50.65" width="25.2" height="25.2"/><rect class="cls-1" x="252.47" y="75.73" width="25.2" height="25.2"/><rect class="cls-1" x="0.5" y="0.5" width="25.2" height="25.2"/><rect class="cls-1" x="0.5" y="25.58" width="25.2" height="25.2"/><rect class="cls-1" x="0.5" y="50.65" width="25.2" height="25.2"/><rect class="cls-1" x="25.7" y="0.5" width="25.2" height="25.2"/><rect class="cls-1" x="25.7" y="25.58" width="25.2" height="25.2"/><rect class="cls-1" x="50.89" y="0.5" width="25.2" height="25.2"/><rect class="cls-1" x="50.89" y="25.58" width="25.2" height="25.2"/><rect class="cls-1" x="50.89" y="75.73" width="25.2" height="25.2"/><rect class="cls-1" x="76.09" y="0.5" width="25.2" height="25.2"/><rect class="cls-1" x="101.29" y="0.5" width="25.2" height="25.2"/><rect class="cls-1" x="101.29" y="25.58" width="25.2" height="25.2"/><rect class="cls-1" x="50.89" y="75.73" width="25.2" height="25.2"/><rect class="cls-2" x="202.08" y="0.5" width="25.2" height="25.2"/><rect class="cls-2" x="202.08" y="25.58" width="25.2" height="25.2"/><rect class="cls-2" x="227.28" y="0.5" width="25.2" height="25.2"/><rect class="cls-2" x="227.28" y="25.58" width="25.2" height="25.2"/><rect class="cls-2" x="252.47" y="0.5" width="25.2" height="25.2"/><rect class="cls-2" x="252.47" y="25.58" width="25.2" height="25.2"/><rect class="cls-2" x="277.67" y="0.5" width="25.2" height="25.2"/><rect class="cls-2" x="277.67" y="25.58" width="25.2" height="25.2"/><rect class="cls-2" x="126.49" y="0.5" width="25.2" height="25.2"/><rect class="cls-2" x="126.49" y="25.58" width="25.2" height="25.2"/><rect class="cls-2" x="126.49" y="50.65" width="25.2" height="25.2"/><rect class="cls-2" x="126.49" y="75.73" width="25.2" height="25.2"/><rect class="cls-2" x="126.49" y="125.88" width="25.2" height="25.2"/><rect class="cls-2" x="151.68" y="0.5" width="25.2" height="25.2"/><rect class="cls-2" x="151.68" y="25.58" width="25.2" height="25.2"/><rect class="cls-2" x="151.68" y="50.65" width="25.2" height="25.2"/><rect class="cls-2" x="151.68" y="75.73" width="25.2" height="25.2"/><rect class="cls-2" x="176.88" y="0.5" width="25.2" height="25.2"/><rect class="cls-2" x="176.88" y="25.58" width="25.2" height="25.2"/><rect class="cls-2" x="176.88" y="50.65" width="25.2" height="25.2"/><rect class="cls-2" x="227.28" y="50.65" width="25.2" height="25.2"/><rect class="cls-2" x="252.47" y="50.65" width="25.2" height="25.2"/><rect class="cls-2" x="252.47" y="75.73" width="25.2" height="25.2"/><rect class="cls-2" x="0.5" y="0.5" width="25.2" height="25.2"/><rect class="cls-2" x="0.5" y="25.58" width="25.2" height="25.2"/><rect class="cls-2" x="0.5" y="50.65" width="25.2" height="25.2"/><rect class="cls-2" x="25.7" y="0.5" width="25.2" height="25.2"/><rect class="cls-2" x="25.7" y="25.58" width="25.2" height="25.2"/><rect class="cls-2" x="50.89" y="0.5" width="25.2" height="25.2"/><rect class="cls-2" x="50.89" y="25.58" width="25.2" height="25.2"/><rect class="cls-2" x="50.89" y="75.73" width="25.2" height="25.2"/><rect class="cls-2" x="76.09" y="0.5" width="25.2" height="25.2"/><rect class="cls-2" x="101.29" y="0.5" width="25.2" height="25.2"/><rect class="cls-2" x="101.29" y="25.58" width="25.2" height="25.2"/><rect class="cls-2" x="50.89" y="75.73" width="25.2" height="25.2"/><polygon class="cls-3" points="277.67 0.5 252.47 0.5 227.28 0.5 202.08 0.5 176.88 0.5 151.68 0.5 126.49 0.5 101.29 0.5 76.09 0.5 50.9 0.5 25.7 0.5 0.5 0.5 0.5 25.58 0.5 25.7 0.5 50.65 0.5 50.77 0.5 75.85 25.7 75.85 25.7 50.77 50.9 50.77 76.09 50.77 76.09 25.7 101.29 25.7 101.29 50.77 126.49 50.77 126.49 75.73 126.49 75.85 126.49 100.92 151.68 100.92 176.88 100.92 176.88 75.85 202.08 75.85 202.08 50.77 227.28 50.77 227.28 75.85 252.47 75.85 252.47 100.92 277.67 100.92 277.67 75.85 277.67 75.73 277.67 50.77 302.87 50.77 302.87 25.7 302.87 25.58 302.87 0.5 277.67 0.5"/><rect class="cls-4" x="126.49" y="125.88" width="25.2" height="25.2"/><rect class="cls-5" x="50.89" y="75.73" width="25.2" height="25.2"/></g></g></svg>