<svg xmlns="http://www.w3.org/2000/svg" viewBox="0 0 136.48 90.98"><defs><style>.cls-1{opacity:0.3;}.cls-2{fill:#fff;}</style></defs><g id="Camada_2" data-name="Camada 2"><g id="Camada_1-2" data-name="Camada 1"><g class="cls-1"><rect class="cls-2" x="22.75" width="22.75" height="22.75"/><rect class="cls-2" x="90.98" width="22.75" height="22.75"/><rect class="cls-2" x="68.24" width="22.75" height="22.75"/><rect class="cls-2" x="22.75" y="22.75" width="22.75" height="22.75"/><rect class="cls-2" y="22.75" width="22.75" height="22.75"/><rect class="cls-2" x="113.73" y="22.75" width="22.75" height="22.75"/><rect class="cls-2" x="90.98" y="22.75" width="22.75" height="22.75"/><rect class="cls-2" x="68.24" y="22.75" width="22.75" height="22.75"/><rect class="cls-2" x="45.49" y="22.75" width="22.75" height="22.75"/><rect class="cls-2" x="45.49" y="45.49" width="22.75" height="22.75"/><rect class="cls-2" x="22.75" y="45.49" width="22.75" height="22.75"/><rect class="cls-2" y="45.49" width="22.75" height="22.75"/><rect class="cls-2" x="113.73" y="45.49" width="22.75" height="22.75"/><rect class="cls-2" x="90.98" y="45.49" width="22.75" height="22.75"/><rect class="cls-2" x="68.24" y="45.49" width="22.75" height="22.75"/><rect class="cls-2" x="45.49" y="45.49" width="22.75" height="22.75"/><rect class="cls-2" x="45.49" y="68.24" width="22.75" height="22.75"/><rect class="cls-2" x="22.75" y="68.24" width="22.75" height="22.75"/><rect class="cls-2" x="90.98" y="68.24" width="22.75" height="22.75"/><rect class="cls-2" x="68.24" y="68.24" width="22.75" height="22.75"/><rect class="cls-2" x="45.49" y="68.24" width="22.75" height="22.75"/></g></g></g></svg>