<svg xmlns="http://www.w3.org/2000/svg" viewBox="0 0 78.67 52.44"><defs><style>.cls-1{opacity:0.3;}.cls-2{fill:#fff;}</style></defs><g id="Camada_2" data-name="Camada 2"><g id="Camada_1-2" data-name="Camada 1"><g class="cls-1"><rect class="cls-2" x="13.11" y="39.33" width="13.11" height="13.11" transform="translate(39.33 91.78) rotate(180)"/><rect class="cls-2" x="26.22" y="39.33" width="13.11" height="13.11" transform="translate(65.55 91.78) rotate(180)"/><rect class="cls-2" x="52.44" y="26.22" width="13.11" height="13.11" transform="translate(118 65.55) rotate(180)"/><rect class="cls-2" y="26.22" width="13.11" height="13.11" transform="translate(13.11 65.55) rotate(180)"/><rect class="cls-2" x="13.11" y="26.22" width="13.11" height="13.11" transform="translate(39.33 65.55) rotate(180)"/><rect class="cls-2" x="26.22" y="26.22" width="13.11" height="13.11" transform="translate(65.55 65.55) rotate(180)"/><rect class="cls-2" x="39.33" y="26.22" width="13.11" height="13.11" transform="translate(91.78 65.55) rotate(180)"/><rect class="cls-2" x="39.33" y="13.11" width="13.11" height="13.11" transform="translate(91.78 39.33) rotate(180)"/><rect class="cls-2" x="52.44" y="13.11" width="13.11" height="13.11" transform="translate(118 39.33) rotate(180)"/><rect class="cls-2" x="65.55" y="13.11" width="13.11" height="13.11" transform="translate(144.22 39.33) rotate(180)"/><rect class="cls-2" x="13.11" y="13.11" width="13.11" height="13.11" transform="translate(39.33 39.33) rotate(180)"/><rect class="cls-2" x="26.22" y="13.11" width="13.11" height="13.11" transform="translate(65.55 39.33) rotate(180)"/><rect class="cls-2" x="39.33" y="13.11" width="13.11" height="13.11" transform="translate(91.78 39.33) rotate(180)"/><rect class="cls-2" x="52.44" width="13.11" height="13.11" transform="translate(118 13.11) rotate(180)"/><rect class="cls-2" x="26.22" width="13.11" height="13.11" transform="translate(65.55 13.11) rotate(180)"/></g></g></g></svg>