<svg xmlns="http://www.w3.org/2000/svg" viewBox="0 0 136.56 68.32"><defs><style>.cls-1{opacity:0.3;}.cls-2{fill:#fff;}</style></defs><g id="Camada_2" data-name="Camada 2"><g id="Camada_1-2" data-name="Camada 1"><g class="cls-1"><rect class="cls-2" x="91.07" width="22.75" height="22.75"/><rect class="cls-2" x="68.32" width="22.75" height="22.75"/><rect class="cls-2" x="113.82" y="22.75" width="22.75" height="22.75"/><rect class="cls-2" x="91.07" y="22.75" width="22.75" height="22.75"/><rect class="cls-2" x="68.32" y="22.75" width="22.75" height="22.75"/><rect class="cls-2" x="68.32" y="45.49" width="22.75" height="22.75"/></g><g class="cls-1"><rect class="cls-2" x="22.75" y="45.58" width="22.75" height="22.75" transform="translate(68.24 113.9) rotate(180)"/><rect class="cls-2" x="45.49" y="45.58" width="22.75" height="22.75" transform="translate(113.73 113.9) rotate(180)"/><rect class="cls-2" y="22.83" width="22.75" height="22.75" transform="translate(22.75 68.41) rotate(180)"/><rect class="cls-2" x="22.75" y="22.83" width="22.75" height="22.75" transform="translate(68.24 68.41) rotate(180)"/><rect class="cls-2" x="45.49" y="22.83" width="22.75" height="22.75" transform="translate(113.73 68.41) rotate(180)"/><rect class="cls-2" x="45.49" y="0.09" width="22.75" height="22.75" transform="translate(113.73 22.92) rotate(180)"/></g></g></g></svg>