<svg xmlns="http://www.w3.org/2000/svg" viewBox="0 0 146.17 73.13"><defs><style>.cls-1{opacity:0.3;}.cls-2{fill:#fff;}</style></defs><g id="Camada_2" data-name="Camada 2"><g id="Camada_1-2" data-name="Camada 1"><g class="cls-1"><rect class="cls-2" x="97.48" width="24.35" height="24.35"/><rect class="cls-2" x="73.13" width="24.35" height="24.35"/><rect class="cls-2" x="121.82" y="24.35" width="24.35" height="24.35"/><rect class="cls-2" x="97.48" y="24.35" width="24.35" height="24.35"/><rect class="cls-2" x="73.13" y="24.35" width="24.35" height="24.35"/><rect class="cls-2" x="73.13" y="48.69" width="24.35" height="24.35"/></g><g class="cls-1"><rect class="cls-2" x="24.35" y="48.78" width="24.35" height="24.35" transform="translate(73.04 121.91) rotate(180)"/><rect class="cls-2" x="48.69" y="48.78" width="24.35" height="24.35" transform="translate(121.73 121.91) rotate(180)"/><rect class="cls-2" y="24.44" width="24.35" height="24.35" transform="translate(24.35 73.22) rotate(180)"/><rect class="cls-2" x="24.35" y="24.44" width="24.35" height="24.35" transform="translate(73.04 73.22) rotate(180)"/><rect class="cls-2" x="48.69" y="24.44" width="24.35" height="24.35" transform="translate(121.73 73.22) rotate(180)"/><rect class="cls-2" x="48.69" y="0.09" width="24.35" height="24.35" transform="translate(121.73 24.53) rotate(180)"/></g></g></g></svg>