<svg xmlns="http://www.w3.org/2000/svg" viewBox="0 0 101.66 67.78"><defs><style>.cls-1{opacity:0.3;}.cls-2{fill:#fff;}</style></defs><g id="Camada_2" data-name="Camada 2"><g id="Camada_1-2" data-name="Camada 1"><g class="cls-1"><rect class="cls-2" x="16.94" width="16.94" height="16.94"/><rect class="cls-2" x="67.78" width="16.94" height="16.94"/><rect class="cls-2" x="50.83" width="16.94" height="16.94"/><rect class="cls-2" x="16.94" y="16.94" width="16.94" height="16.94"/><rect class="cls-2" y="16.94" width="16.94" height="16.94"/><rect class="cls-2" x="84.72" y="16.94" width="16.94" height="16.94"/><rect class="cls-2" x="67.78" y="16.94" width="16.94" height="16.94"/><rect class="cls-2" x="50.83" y="16.94" width="16.94" height="16.94"/><rect class="cls-2" x="33.89" y="16.94" width="16.94" height="16.94"/><rect class="cls-2" x="33.89" y="33.89" width="16.94" height="16.94"/><rect class="cls-2" x="16.94" y="33.89" width="16.94" height="16.94"/><rect class="cls-2" y="33.89" width="16.94" height="16.94"/><rect class="cls-2" x="84.72" y="33.89" width="16.94" height="16.94"/><rect class="cls-2" x="67.78" y="33.89" width="16.94" height="16.94"/><rect class="cls-2" x="50.83" y="33.89" width="16.94" height="16.94"/><rect class="cls-2" x="33.89" y="33.89" width="16.94" height="16.94"/><rect class="cls-2" x="33.89" y="50.83" width="16.94" height="16.94"/><rect class="cls-2" x="16.94" y="50.83" width="16.94" height="16.94"/><rect class="cls-2" x="67.78" y="50.83" width="16.94" height="16.94"/><rect class="cls-2" x="50.83" y="50.83" width="16.94" height="16.94"/><rect class="cls-2" x="33.89" y="50.83" width="16.94" height="16.94"/></g></g></g></svg>