<svg xmlns="http://www.w3.org/2000/svg" viewBox="0 0 78.45 52.3"><defs><style>.cls-1{opacity:0.3;}.cls-2{fill:#fff;}</style></defs><g id="Camada_2" data-name="Camada 2"><g id="Camada_1-2" data-name="Camada 1"><g class="cls-1"><rect class="cls-2" x="13.07" y="39.22" width="13.07" height="13.07" transform="translate(39.22 91.52) rotate(180)"/><rect class="cls-2" x="26.15" y="39.22" width="13.07" height="13.07" transform="translate(65.37 91.52) rotate(180)"/><rect class="cls-2" x="52.3" y="26.15" width="13.07" height="13.07" transform="translate(117.67 65.37) rotate(180)"/><rect class="cls-2" y="26.15" width="13.07" height="13.07" transform="translate(13.07 65.37) rotate(180)"/><rect class="cls-2" x="13.07" y="26.15" width="13.07" height="13.07" transform="translate(39.22 65.37) rotate(180)"/><rect class="cls-2" x="26.15" y="26.15" width="13.07" height="13.07" transform="translate(65.37 65.37) rotate(180)"/><rect class="cls-2" x="39.22" y="26.15" width="13.07" height="13.07" transform="translate(91.52 65.37) rotate(180)"/><rect class="cls-2" x="39.22" y="13.07" width="13.07" height="13.07" transform="translate(91.52 39.22) rotate(180)"/><rect class="cls-2" x="52.3" y="13.07" width="13.07" height="13.07" transform="translate(117.67 39.22) rotate(180)"/><rect class="cls-2" x="65.37" y="13.07" width="13.07" height="13.07" transform="translate(143.82 39.22) rotate(180)"/><rect class="cls-2" x="13.07" y="13.07" width="13.07" height="13.07" transform="translate(39.22 39.22) rotate(180)"/><rect class="cls-2" x="26.15" y="13.07" width="13.07" height="13.07" transform="translate(65.37 39.22) rotate(180)"/><rect class="cls-2" x="39.22" y="13.07" width="13.07" height="13.07" transform="translate(91.52 39.22) rotate(180)"/><rect class="cls-2" x="52.3" width="13.07" height="13.07" transform="translate(117.67 13.07) rotate(180)"/><rect class="cls-2" x="26.15" width="13.07" height="13.07" transform="translate(65.37 13.07) rotate(180)"/></g></g></g></svg>